<svg width="395" height="47" viewBox="0 0 395 47" fill="none" xmlns="http://www.w3.org/2000/svg">
<path d="M0.899902 2.29995H32.1999L35.6999 12C34.3999 9.29995 32.5999 7.19995 29.9999 5.59995C27.4999 3.99995 24.7999 3.19995 21.7999 3.19995H17.1999C15.8999 3.19995 14.7999 3.59995 13.8999 4.49995C12.9999 5.39995 12.4999 6.39995 12.4999 7.69995V21H21.6999C23.2999 21 24.6999 20.5 25.8999 19.5C27.0999 18.5 27.7999 17.2 28.0999 15.6V27.2999C27.8999 25.7999 27.0999 24.4999 25.8999 23.3999C24.6999 22.3999 23.2999 21.8999 21.6999 21.8999H12.4999V39.5C12.4999 40.9 12.8999 42.1 13.7999 43C14.6999 44.1 15.6999 44.7 16.9999 45H0.899902C2.1999 44.7 3.29991 44.1 4.09991 43C4.89991 42 5.29991 40.8 5.29991 39.5V7.69995C5.29991 6.39995 4.89991 5.19995 3.99991 4.19995C3.19991 3.09995 2.0999 2.49995 0.899902 2.19995V2.29995Z" fill="white"/>
<path d="M55 44.1998C58 44.1998 60.7 43.3998 63.2 41.7998C65.7 40.1998 67.6 38.0998 68.9 35.3998L65.4 45.0998H35C36.3 44.8998 37.3 44.1998 38.2 43.0998C39.1 41.9998 39.5 40.8998 39.5 39.5998V7.7998C39.5 6.4998 39.1 5.2998 38.2 4.2998C37.4 3.2998 36.3 2.5998 35 2.2998H51.1C49.8 2.4998 48.7 3.19981 47.9 4.19981C47.1 5.19981 46.6 6.3998 46.6 7.7998V39.6998C46.6 40.9998 47.1 41.9998 48 42.8998C48.9 43.7998 50 44.1998 51.3 44.1998H55Z" fill="white"/>
<path d="M84.8997 3.29995C83.5997 3.29995 82.5997 3.69995 81.6997 4.59995C80.7997 5.49995 80.3997 6.49995 80.3997 7.79995V21.1H89.5997C91.0997 21.1 92.4997 20.6 93.6997 19.6C94.8997 18.6 95.5997 17.3 95.8997 15.7V27.3999C95.5997 25.8999 94.8997 24.6 93.6997 23.5C92.4997 22.5 91.0997 22 89.5997 22H80.3997V39.7C80.3997 40.9 80.7997 41.9999 81.6997 42.7999C82.5997 43.6999 83.6997 44.1 84.8997 44.1H89.6997C92.5997 44.1 95.3997 43.3 97.8997 41.7C100.4 40.1 102.3 37.9999 103.6 35.2999L100.1 45H68.6997C69.9997 44.7 71.0997 44.1 71.8997 43C72.6997 42 73.1997 40.8 73.1997 39.5V7.69995C73.1997 6.39995 72.7997 5.19995 71.9997 4.19995C71.0997 3.09995 69.9997 2.49995 68.7997 2.19995H100.2L103.7 11.8999C102.4 9.19995 100.5 7.09995 97.9997 5.49995C95.4997 3.89995 92.7997 3.09995 89.7997 3.09995H85.0997L84.8997 3.29995Z" fill="white"/>
<path d="M136.9 40.3999C138.4 42.9999 140.6 44.6 143.5 45.2H126.7C127.4 45 128 44.7 128.5 44.1C129 43.5 129.2 42.9 129.2 42.2C129.2 41.5 129 41.1 128.7 40.6L120.4 26L110.7 40.7C110.2 41.6 110.2 42.4999 110.7 43.3999C111.1 44.2999 111.9 44.9 112.8 45.1H103.3C105.8 44.6 108 43 109.8 40.1L118 27.8999C119.3 25.9999 119.3 23.9999 118.1 21.8999L109.7 7.19995C108.2 4.49995 105.9 2.79995 102.9 2.19995H119.7C119 2.39995 118.4 2.69995 118 3.29995C117.6 3.89995 117.4 4.49995 117.4 5.19995C117.4 5.89995 117.5 6.19995 117.8 6.69995L125.4 20.1L133 6.79995C133.2 6.39995 133.4 5.89995 133.4 5.39995C133.4 4.59995 133.2 3.89995 132.7 3.39995C132.2 2.79995 131.6 2.39995 130.9 2.29995H140.3C137.6 2.89995 135.6 4.49995 134 7.19995L127.6 18.1C127.1 19 126.9 20.0999 126.9 21.2999C126.9 22.4999 127.2 23.4999 127.7 24.3999L136.9 40.3999Z" fill="white"/>
<path d="M181.8 23.5998H204.6C204.6 25.3998 204.6 26.8998 204.5 28.3998C204.5 29.7998 204.2 31.3998 203.9 32.9998C203.6 34.5998 203.2 36.0998 202.6 37.2998C202.1 38.4998 201.4 39.7998 200.5 40.9998C199.6 42.1998 198.5 43.1998 197.3 43.9998C196.1 44.7998 194.6 45.3998 192.7 45.8998C190.9 46.3998 188.9 46.5998 186.7 46.5998C184.5 46.5998 180.8 46.0998 178.2 45.0998C175.6 44.0998 173.5 42.6998 171.8 40.9998C170.1 39.2998 168.7 37.2998 167.5 35.0998C166.3 32.8998 165.6 30.5998 165.4 28.0998C165.1 25.6998 165.1 23.1998 165.4 20.7998C165.6 18.3998 166.3 15.9998 167.4 13.7998C168.5 11.5998 169.9 9.5998 171.5 7.8998C173.1 6.1998 175.2 4.7998 177.7 3.7998C180.2 2.7998 183 2.2998 186 2.2998H198.7L202.2 12.2998C200.9 9.5998 199.1 7.3998 196.5 5.7998C194 4.1998 191.3 3.3998 188.3 3.3998H187.2C184.3 3.3998 181.8 4.39981 179.6 6.49981C177.4 8.49981 175.9 11.0998 174.9 14.0998C173.9 17.1998 173.4 20.4998 173.3 24.0998C173.3 27.6998 173.7 30.9998 174.6 34.1998C175.5 37.2998 177 39.8998 179.1 42.0998C181.2 44.1998 183.7 45.3998 186.7 45.5998C192 45.5998 195.6 43.7998 197.7 40.1998C199.3 37.3998 199.6 34.3998 198.4 31.1998C197.3 28.1998 195.4 26.1998 192.6 25.2998C191.6 24.9998 190.5 24.7998 189.4 24.7998H181.8V23.7998V23.5998Z" fill="white"/>
<path d="M224.2 44.1998C227.2 44.1998 229.9 43.3998 232.4 41.7998C234.9 40.1998 236.8 38.0998 238.1 35.3998L234.6 45.0998H204.2C205.5 44.8998 206.5 44.1998 207.4 43.0998C208.3 41.9998 208.7 40.8998 208.7 39.5998V7.7998C208.7 6.4998 208.3 5.2998 207.4 4.2998C206.6 3.2998 205.5 2.5998 204.2 2.2998H220.3C219 2.4998 217.9 3.19981 217.1 4.19981C216.3 5.19981 215.8 6.3998 215.8 7.7998V39.6998C215.8 40.9998 216.3 41.9998 217.2 42.8998C218.1 43.7998 219.2 44.1998 220.5 44.1998H224.2Z" fill="white"/>
<path d="M261.6 0.899902C265.8 0.899902 269.6 1.89991 273.2 3.99991C276.7 5.99991 279.5 8.7999 281.6 12.2999C283.7 15.7999 284.7 19.5999 284.7 23.7999C284.7 27.9999 283.7 31.7999 281.6 35.2999C279.5 38.7999 276.7 41.5999 273.2 43.6999C269.7 45.7999 265.8 46.7999 261.6 46.7999C257.4 46.7999 253.5 45.7999 250 43.6999C246.4 41.5999 243.6 38.7999 241.6 35.2999C239.5 31.7999 238.5 27.8999 238.5 23.7999C238.5 19.6999 239.5 15.8999 241.6 12.2999C243.7 8.7999 246.5 5.99991 250 3.99991C253.6 1.99991 257.4 0.899902 261.6 0.899902ZM261.6 45.7999C271.1 45.7999 275.8 38.4999 275.8 23.8999C275.8 9.2999 271.1 1.7999 261.6 1.7999C252.1 1.7999 247.2 9.0999 247.2 23.7999C247.2 38.4999 252 45.7999 261.6 45.7999Z" fill="white"/>
<path d="M304.9 21.2999C307 21.2999 308.9 21.2999 310.6 21.6999C312.4 21.9999 314 22.5999 315.5 23.4999C317 24.3999 318.2 25.5999 319 27.1999C319.9 28.7999 320.3 30.7999 320.3 33.0999C320.3 36.4999 319 39.3999 316.5 41.6999C314 43.9999 310.7 45.1999 306.7 45.1999H284.2C285.5 44.8999 286.6 44.2999 287.4 43.1999C288.2 42.1999 288.7 40.9999 288.7 39.6999V7.8999C288.7 6.5999 288.3 5.3999 287.4 4.3999C286.6 3.3999 285.5 2.6999 284.2 2.3999H305C308.3 2.3999 310.9 3.09991 313 4.59991C315.1 6.09991 316.1 8.2999 316.1 11.3999C316.1 14.4999 315.9 13.6999 315.5 14.6999C315.1 15.6999 314.6 16.4999 314.1 17.0999C313.6 17.6999 312.8 18.2999 311.9 18.7999C310.9 19.2999 310.1 19.6999 309.5 19.8999C308.9 20.0999 308 20.3999 307 20.6999C306 20.9999 305.3 21.1999 305 21.2999H304.9ZM301.2 3.2999C299.7 3.2999 298.5 3.69991 297.4 4.59991C296.4 5.49991 295.8 6.4999 295.8 7.7999V21.9999C296.4 21.9999 297 21.7999 297.6 21.6999C298.2 21.5999 299.1 21.3999 300.2 21.1999C301.3 20.8999 302.3 20.5999 303.2 20.0999C304.1 19.5999 305 18.9999 305.9 18.3999C306.8 17.6999 307.5 16.8999 308 15.7999C308.5 14.6999 308.8 13.5999 308.8 12.2999C308.8 9.6999 308.2 7.5999 307 5.8999C305.8 4.1999 304 3.3999 301.7 3.3999H301.1L301.2 3.2999ZM301.9 44.1999C305 44.1999 307.6 43.0999 309.8 40.8999C312 38.6999 313 36.0999 313 32.9999C313 29.8999 312.7 30.2999 312.1 29.0999C311.5 27.8999 310.8 26.9999 310 26.1999C309.2 25.3999 308.2 24.7999 307 24.1999C305.8 23.5999 304.7 23.1999 303.6 22.8999C302.5 22.5999 301.4 22.3999 300.2 22.1999C299 21.9999 298.1 21.8999 297.5 21.8999C296.9 21.8999 296.3 21.8999 295.8 21.8999V39.5999C295.8 40.8999 296.3 41.9999 297.3 42.7999C298.3 43.5999 299.6 44.0999 301.3 44.0999H301.9V44.1999Z" fill="white"/>
<path d="M360.3 45.1H344.2C345.4 44.8 346.2 44.2 346.7 43.1C347.2 42.1 347.2 40.9 346.7 39.6L344.6 33.5H327.7L325.6 39.6C325.2 40.9 325.2 42.1 325.6 43.1C326.1 44.1 326.9 44.8 328.1 45.1H318.4C319.8 44.8 321.1 44.2 322.3 43.1C323.5 42.1 324.3 40.9 324.7 39.6L335.7 7.89995C335.3 6.39995 334.4 5.29995 333.3 4.19995C332.1 3.19995 330.8 2.49995 329.4 2.19995H345.5C344.3 2.49995 343.4 3.09995 343 4.19995C342.5 5.19995 342.5 6.39995 343 7.69995L354 39.5C354.5 40.8 355.3 42 356.5 43C357.7 44 359 44.7 360.4 45L360.3 45.1ZM328 32.7H344.2L336.1 9.19995L328 32.7Z" fill="white"/>
<path d="M380.6 44.1998C383.6 44.1998 386.3 43.3998 388.8 41.7998C391.3 40.1998 393.2 38.0998 394.5 35.3998L391 45.0998H360.6C361.9 44.8998 362.9 44.1998 363.8 43.0998C364.7 41.9998 365.1 40.8998 365.1 39.5998V7.7998C365.1 6.4998 364.7 5.2998 363.8 4.2998C363 3.2998 361.9 2.5998 360.6 2.2998H376.7C375.4 2.4998 374.3 3.19981 373.5 4.19981C372.7 5.19981 372.2 6.3998 372.2 7.7998V39.6998C372.2 40.9998 372.7 41.9998 373.6 42.8998C374.5 43.7998 375.6 44.1998 376.9 44.1998H380.6Z" fill="white"/>
</svg>
