<svg width="80" height="89" viewBox="0 0 80 89" fill="none" xmlns="http://www.w3.org/2000/svg">
<path d="M46.9492 27.8223C46.9492 29.3223 45.7467 30.5223 44.2435 30.5223C42.7404 30.5223 41.5378 29.3223 41.5378 27.8223H47.0494H46.9492Z" fill="white"/>
<path d="M11.5749 25.0221C10.7733 24.4221 9.87138 23.7221 8.96949 22.7221C4.86089 18.6221 2.55606 13.4221 2.25543 10.9221C2.25543 10.9221 0.351447 17.7221 7.16572 24.6221C9.16991 26.6221 11.0739 27.9221 12.076 28.5221C11.8756 27.3221 11.6752 26.1221 11.6752 24.9221L11.5749 25.0221Z" fill="white"/>
<path d="M12.3766 17.7222C11.4747 16.9222 10.2722 15.7222 9.06969 14.1222C7.76696 12.4222 6.66465 10.5222 5.86298 8.52217C4.86088 6.02217 4.25962 3.42217 4.0592 0.722168C4.0592 0.722168 1.45374 8.92217 6.96528 15.8222C9.06969 18.5222 11.0739 20.1222 11.7754 20.6222C11.8756 19.6222 12.076 18.6222 12.3766 17.6222V17.7222Z" fill="white"/>
<path d="M12.7776 50.9221C12.7776 51.1221 16.4854 55.4221 23.0992 56.1221C20.8946 54.7221 18.7902 53.1221 16.9864 51.3221L12.7776 50.9221Z" fill="white"/>
<path d="M9.87139 40.9221C9.67097 40.4221 9.37034 39.9221 9.16992 39.4221C7.86719 38.6221 5.46216 37.1221 5.46216 37.1221C5.46216 37.1221 5.76279 41.8221 9.9716 45.7221C11.9758 47.6221 14.1804 48.3221 14.7817 48.6221C12.8777 46.3221 11.1741 43.7221 9.87139 41.0221V40.9221Z" fill="white"/>
<path d="M19.5918 45.9222C17.6878 43.7222 16.0845 41.3222 14.7817 38.7222C13.6794 36.4222 13.0782 34.3222 12.7775 33.0222C12.7775 33.0222 12.7775 32.9222 12.7775 32.8222L10.3725 31.3222C10.1721 31.2222 9.97167 31.1222 9.77125 30.9222C9.77125 31.1222 9.87146 31.9222 10.0719 33.0222C8.1679 31.7222 6.56454 30.3222 5.1616 28.7222C3.75866 27.0222 2.65635 25.2222 1.85468 23.2222C0.752367 20.5222 0.451738 18.1222 0.551948 17.2222C0.551948 17.2222 -1.75288 23.9222 3.05719 30.3222C4.86097 32.7222 7.46643 34.7222 10.3725 36.3222L11.1742 36.8222C11.4748 37.7222 11.8757 38.7222 12.3767 39.7222C13.6794 42.6222 15.4832 45.2222 17.5876 47.6222C19.7922 50.1222 22.4979 52.3222 25.5042 54.1222C26.2057 53.5222 26.9071 52.9222 27.7088 52.3222C24.6023 50.6222 21.8966 48.4222 19.5918 45.9222Z" fill="white"/>
<path d="M8.26808 49.1221C8.26808 49.1221 8.26808 48.9221 8.16787 48.8221C7.96745 48.6221 7.76703 48.4221 7.56661 48.2221C5.86304 46.6221 4.46011 44.7221 3.45801 42.6221C3.65843 44.0221 4.15948 46.9221 5.86304 50.2221C7.16577 52.7221 8.96955 54.9221 11.1742 56.6221C13.479 58.5221 16.2849 59.8221 19.4916 60.6221L19.692 60.3221C19.692 60.2221 20.2933 59.4221 21.2954 58.3221C17.9884 57.6221 15.1826 56.4221 12.8777 54.6221C10.9737 53.1221 9.4706 51.3221 8.26808 49.1221Z" fill="white"/>
<path d="M68.1937 25.0221C68.9954 24.4221 69.8972 23.7221 70.7991 22.7221C74.9077 18.6221 77.2126 13.4221 77.5132 10.9221C77.5132 10.9221 79.4172 17.7221 72.6029 24.6221C70.5987 26.6221 68.6947 27.9221 67.6926 28.5221C67.893 27.3221 68.0935 26.1221 68.0935 24.9221L68.1937 25.0221Z" fill="white"/>
<path d="M67.3918 17.7222C68.2937 16.9222 69.4963 15.7222 70.6988 14.1222C72.0015 12.4222 73.1038 10.5222 73.9055 8.52217C74.9076 6.02217 75.5088 3.42217 75.7093 0.722168C75.7093 0.722168 78.3147 8.92217 72.8032 15.8222C67.2916 22.7222 68.6946 20.1222 67.9931 20.6222C67.8929 19.6222 67.6925 18.6222 67.3918 17.6222V17.7222Z" fill="white"/>
<path d="M69.8971 40.9221C70.0975 40.4221 70.3981 39.9221 70.5986 39.4221C71.9013 38.6221 74.3063 37.1221 74.3063 37.1221C74.3063 37.1221 74.0057 41.8221 69.7969 45.7221C67.7927 47.6221 65.5881 48.3221 64.9868 48.6221C66.8908 46.3221 68.5944 43.7221 69.8971 41.0221V40.9221Z" fill="white"/>
<path d="M79.3168 17.2222C79.3168 18.1222 79.1164 20.5222 78.0141 23.2222C77.2124 25.2222 76.1101 27.0222 74.7072 28.7222C73.3042 30.3222 71.7009 31.8222 69.7969 33.0222C69.9973 31.9222 70.0975 31.2222 70.0975 30.9222C69.8971 31.1222 69.5965 31.2222 69.4963 31.3222L67.0912 32.8222C67.0912 32.8222 67.0912 32.9222 67.0912 33.0222C66.7906 34.3222 66.1893 36.2222 65.1872 38.5222C65.1872 39.3222 65.2874 40.0222 65.2874 40.7222C65.2874 41.9222 65.2874 43.1222 64.9868 44.2222C65.9889 42.8222 66.7906 41.3222 67.4921 39.8222C67.9931 38.8222 68.3939 37.8222 68.6946 36.9222L69.4963 36.4222C72.4023 34.7222 75.0078 32.8222 76.8116 30.4222C81.6216 24.0222 79.3168 17.3222 79.3168 17.3222V17.2222Z" fill="white"/>
<path d="M60.4774 26.9221C60.6778 27.1221 60.778 27.4221 60.9785 27.6221C61.4795 24.5221 60.9785 22.2221 60.778 21.4221L57.9722 24.2221C58.8741 25.0221 59.6757 25.9221 60.3772 26.9221H60.4774Z" fill="white"/>
<path d="M21.4957 43.022C22.7985 44.422 24.3016 45.622 25.905 46.622C27.9092 47.822 30.0136 48.722 32.4186 49.322C33.8215 48.622 35.1243 48.022 36.3268 47.422C32.8194 46.922 29.8131 45.922 27.3079 44.422C24.4018 42.622 21.9968 40.222 20.0928 36.922C18.3892 33.922 17.1867 31.022 16.5854 28.222C16.0844 26.022 15.9842 23.822 16.2848 21.722C16.385 20.822 16.5854 20.122 16.7859 19.422L14.6815 17.322C14.2806 18.322 13.98 19.722 13.6794 21.222C13.3787 23.622 13.4789 26.122 13.98 28.622C14.5812 31.722 15.884 35.022 17.788 38.222C18.8903 40.122 20.0928 41.722 21.4957 43.122V43.022Z" fill="white"/>
<path d="M66.0891 21.0221C65.8887 19.4221 65.4879 18.1221 65.087 17.1221L62.9826 19.2221C63.183 19.9221 63.2833 20.6221 63.4837 21.5221C63.6841 23.6221 63.5839 25.7221 63.183 28.0221C62.9826 28.7221 62.8824 29.5221 62.5818 30.2221C63.183 31.4221 63.6841 32.6221 64.0849 33.8221C64.8866 32.0221 65.3877 30.2221 65.7885 28.4221C66.2895 25.9221 66.3898 23.4221 66.0891 21.0221Z" fill="white"/>
<path d="M72.2021 48.3222C72.0017 48.5222 71.8012 48.7222 71.6008 48.9222C71.6008 48.9222 71.6008 49.1222 71.5006 49.2222C70.2981 51.4222 68.7949 53.2222 66.8909 54.7222C66.1895 55.3222 65.3878 55.8222 64.5861 56.2222C63.9849 57.2222 62.7823 58.7222 60.7781 60.3222C60.5777 60.4222 60.4775 60.6222 60.2771 60.7222C63.4838 59.9222 66.2897 58.6222 68.5945 56.7222C70.7991 55.0222 72.6029 52.8222 73.9056 50.3222C75.6092 47.1222 76.2105 44.1222 76.3107 42.7222C75.3086 44.8222 73.9056 46.7222 72.2021 48.3222Z" fill="white"/>
<path d="M62.5818 62.5223C60.9785 66.0223 57.872 71.9223 52.8615 76.7223C48.9533 80.5223 45.5462 82.7223 43.4418 83.9223C41.8384 84.8223 40.6359 85.3223 40.1348 85.5223C39.5336 85.3223 38.3311 84.8223 36.8279 83.9223C34.7235 82.7223 31.3164 80.5223 27.4082 76.7223C23.5 72.9223 20.6941 68.5223 19.0908 65.4223C18.5897 64.4223 18.0887 63.4223 17.6878 62.6223C16.2849 62.2223 14.9822 61.6223 13.6794 61.0223C13.9801 61.9223 14.882 64.1223 16.2849 66.7223C17.9885 70.0223 20.9948 74.8223 25.2036 78.8223C33.3206 86.6223 39.4334 88.4223 39.734 88.4223H40.1348C40.1348 88.5223 40.5357 88.4223 40.5357 88.4223C40.8363 88.4223 46.9491 86.6223 55.0661 78.8223C59.2749 74.7223 62.2812 69.9223 63.9848 66.7223C65.4879 63.8223 66.3898 61.6223 66.6904 60.8223C65.3877 61.5223 64.085 62.0223 62.6821 62.5223H62.5818Z" fill="#BC9B5F"/>
<path d="M63.9847 15.3221L62.7822 13.3221L62.5818 13.1221C62.5818 13.1221 60.3772 11.4221 56.469 9.82207C54.1642 8.92207 51.7591 8.12207 49.3541 7.62207C46.2476 6.92207 43.0409 6.62207 39.734 6.62207C36.427 6.62207 33.2203 6.92207 30.1138 7.62207C27.6086 8.12207 25.2035 8.92207 22.9989 9.82207C19.0907 11.4221 16.9863 13.1221 16.8861 13.1221L16.5855 13.3221L15.6836 15.1221L17.788 17.2221L18.7901 15.1221C19.3914 14.7221 21.2953 13.5221 24.1012 12.3221C26.2056 11.4221 28.4102 10.7221 30.7151 10.2221C33.6212 9.62207 36.6275 9.32207 39.6337 9.32207C42.64 9.32207 45.6463 9.62207 48.5524 10.2221C50.8572 10.7221 53.0619 11.4221 55.1663 12.3221C58.1726 13.5221 59.9763 14.8221 60.5776 15.2221L61.8803 17.3221L63.8845 15.3221H63.9847Z" fill="#BC9B5F"/>
<path d="M60.1768 52.5222C60.1768 52.5222 59.2749 54.1222 57.0703 56.0222C54.064 58.6222 50.9575 60.2222 47.7507 62.0222C45.1453 63.4222 42.4396 64.9222 39.8342 66.8222C35.7256 69.9222 32.9197 73.1222 31.2161 75.2222C31.0157 75.5222 30.7151 75.8222 30.5146 76.1222C31.2161 76.7222 31.9176 77.3222 32.5188 77.9222C32.7193 77.6222 33.0199 77.2222 33.3205 76.9222C34.9239 74.9222 37.5293 71.9222 41.3373 69.1222C43.8426 67.2222 46.2476 65.9222 48.9533 64.5222C52.16 62.8222 55.5671 61.0222 58.7738 58.2222C60.4774 56.7222 61.4795 55.5222 62.0807 54.7222C62.4816 54.7222 67.3919 53.3222 68.5944 50.2222C64.586 52.7222 60.1768 52.7222 60.1768 52.7222V52.5222Z" fill="white"/>
<path d="M50.4565 70.5223C51.8595 68.7223 55.1664 64.9223 58.0725 62.3223C55.467 64.2223 48.9534 66.5223 44.6444 74.5223C43.3416 77.0223 42.2393 80.1223 41.7383 81.8223C41.8385 81.8223 42.0389 81.7223 42.1391 81.6223C43.041 81.1223 44.0431 80.5223 45.3458 79.6223C45.7467 78.6223 46.3479 77.3223 47.1496 75.8223C48.1517 73.9223 49.254 72.2223 50.5567 70.6223L50.4565 70.5223Z" fill="white"/>
<path d="M35.2245 79.9222C36.1264 80.5222 36.928 81.0222 37.5293 81.4222C40.4354 75.0222 43.4417 70.2222 43.4417 70.2222C43.2413 70.4222 39.1327 73.9222 35.1243 79.9222H35.2245Z" fill="white"/>
<path d="M30.615 65.3221C33.4209 62.2221 37.5295 59.4221 42.8406 56.8221C52.4607 52.2221 56.3689 47.6221 56.3689 40.8221C56.3689 34.0221 54.0641 32.2221 52.9618 31.1221L51.4586 33.4221C51.659 33.7221 51.9597 34.1221 52.2603 34.6221C52.9618 35.8221 53.6632 37.8221 53.6632 40.8221C53.6632 43.8221 52.8616 45.8221 51.158 47.8221C49.254 50.0221 46.1475 52.2221 41.6381 54.3221C37.8301 56.1221 32.6192 59.1221 28.5106 63.5221C26.9072 65.2221 25.5043 67.0221 24.3018 69.1221C24.903 69.9221 25.5043 70.7221 26.1055 71.5221C27.3081 69.1221 28.9114 67.1221 30.5148 65.2221L30.615 65.3221Z" fill="white"/>
<path d="M35.1244 55.4222C36.828 54.4222 38.4313 53.6222 40.1349 52.8222C44.1433 50.8222 47.9512 49.0222 50.1559 44.9222C52.2603 40.9222 50.7571 36.3222 50.3563 35.2222L48.3521 38.2222C48.6527 39.7222 48.6527 41.8222 47.7508 43.6222C46.9491 45.1222 45.8468 46.4222 44.2435 47.5222C42.7403 48.6222 40.9366 49.5222 38.9324 50.4222C37.2288 51.2222 35.5252 52.0222 33.7214 53.1222C31.5168 54.4222 29.3122 56.1222 27.308 57.9222C25.7047 59.4222 24.2015 61.0222 22.7986 62.8222C22.2975 63.4222 21.8967 64.0222 21.4958 64.6222C21.8967 65.4222 22.3977 66.3222 22.999 67.2222C24.903 64.3222 28.9114 59.1222 35.1244 55.4222Z" fill="white"/>
<path d="M29.8133 42.6221C33.1203 44.3221 38.9324 45.0221 41.9387 42.1221C47.5505 36.3221 41.5379 27.4221 33.9219 30.3221C35.8259 26.3221 39.6339 25.0221 44.1433 24.9221C48.753 24.9221 52.6612 27.0221 55.4671 30.7221C57.6717 33.7221 58.9744 37.3221 59.0746 41.0221C58.8742 54.2221 43.5421 57.2221 34.8238 64.7221C32.8196 66.1221 29.6129 70.2221 27.5085 73.4221C28.0096 73.9221 28.5106 74.5221 29.1119 75.0221C29.2121 75.1221 29.4125 75.2221 29.5127 75.4221C31.4167 71.9221 35.9261 65.8221 44.8448 61.4221C55.7677 56.2221 64.8868 47.4221 60.7782 35.2221C59.7761 32.4221 58.3731 29.8221 56.3689 27.6221C51.7593 22.1221 43.4419 20.2221 36.4272 24.1221C29.4125 28.0221 30.3144 35.4221 31.1161 37.6221C31.4167 35.9221 35.3249 30.1221 40.0347 33.7221C40.7362 34.3221 41.5379 35.3221 41.5379 36.9221C41.5379 39.8221 39.5337 41.6221 36.6276 41.5221C27.8091 41.7221 21.6963 32.1221 21.4959 24.1221L18.9907 21.6221C17.688 28.9221 22.8989 39.4221 29.9135 42.8221L29.8133 42.6221Z" fill="white"/>
</svg>
