<svg width="80" height="89" viewBox="0 0 80 89" fill="none" xmlns="http://www.w3.org/2000/svg">
<path d="M46.9492 28.0779C46.9492 29.5779 45.7467 30.7779 44.2435 30.7779C42.7404 30.7779 41.5378 29.5779 41.5378 28.0779H47.0494H46.9492Z" fill="black"/>
<path d="M11.5749 25.2777C10.7733 24.6777 9.87138 23.9777 8.96949 22.9777C4.86089 18.8777 2.55606 13.6777 2.25543 11.1777C2.25543 11.1777 0.351447 17.9777 7.16572 24.8777C9.16991 26.8777 11.0739 28.1777 12.076 28.7777C11.8756 27.5777 11.6752 26.3777 11.6752 25.1777L11.5749 25.2777Z" fill="black"/>
<path d="M12.3766 17.9778C11.4747 17.1778 10.2722 15.9778 9.06969 14.3778C7.76696 12.6778 6.66465 10.7778 5.86298 8.77779C4.86088 6.27779 4.25962 3.67778 4.0592 0.977783C4.0592 0.977783 1.45374 9.17778 6.96528 16.0778C9.06969 18.7778 11.0739 20.3778 11.7754 20.8778C11.8756 19.8778 12.076 18.8778 12.3766 17.8778V17.9778Z" fill="black"/>
<path d="M12.7776 51.1777C12.7776 51.3777 16.4854 55.6777 23.0992 56.3777C20.8946 54.9777 18.7902 53.3777 16.9864 51.5777L12.7776 51.1777Z" fill="black"/>
<path d="M9.87139 41.1777C9.67097 40.6777 9.37034 40.1777 9.16992 39.6777C7.86719 38.8777 5.46216 37.3777 5.46216 37.3777C5.46216 37.3777 5.76279 42.0777 9.9716 45.9777C11.9758 47.8777 14.1804 48.5777 14.7817 48.8777C12.8777 46.5777 11.1741 43.9777 9.87139 41.2777V41.1777Z" fill="black"/>
<path d="M19.5918 46.1778C17.6878 43.9778 16.0845 41.5778 14.7817 38.9778C13.6794 36.6778 13.0782 34.5778 12.7775 33.2778C12.7775 33.2778 12.7775 33.1778 12.7775 33.0778L10.3725 31.5778C10.1721 31.4778 9.97167 31.3778 9.77125 31.1778C9.77125 31.3778 9.87146 32.1778 10.0719 33.2778C8.1679 31.9778 6.56454 30.5778 5.1616 28.9778C3.75866 27.2778 2.65635 25.4778 1.85468 23.4778C0.752367 20.7778 0.451738 18.3778 0.551948 17.4778C0.551948 17.4778 -1.75288 24.1778 3.05719 30.5778C4.86097 32.9778 7.46643 34.9778 10.3725 36.5778L11.1742 37.0778C11.4748 37.9778 11.8757 38.9778 12.3767 39.9778C13.6794 42.8778 15.4832 45.4778 17.5876 47.8778C19.7922 50.3778 22.4979 52.5778 25.5042 54.3778C26.2057 53.7778 26.9071 53.1778 27.7088 52.5778C24.6023 50.8778 21.8966 48.6778 19.5918 46.1778Z" fill="black"/>
<path d="M8.26808 49.3777C8.26808 49.3777 8.26808 49.1777 8.16787 49.0777C7.96745 48.8777 7.76703 48.6777 7.56661 48.4777C5.86304 46.8777 4.46011 44.9777 3.45801 42.8777C3.65843 44.2777 4.15948 47.1777 5.86304 50.4777C7.16577 52.9777 8.96955 55.1777 11.1742 56.8777C13.479 58.7777 16.2849 60.0777 19.4916 60.8777L19.692 60.5777C19.692 60.4777 20.2933 59.6777 21.2954 58.5777C17.9884 57.8777 15.1826 56.6777 12.8777 54.8777C10.9737 53.3777 9.4706 51.5777 8.26808 49.3777Z" fill="black"/>
<path d="M68.1937 25.2777C68.9954 24.6777 69.8972 23.9777 70.7991 22.9777C74.9077 18.8777 77.2126 13.6777 77.5132 11.1777C77.5132 11.1777 79.4172 17.9777 72.6029 24.8777C70.5987 26.8777 68.6947 28.1777 67.6926 28.7777C67.893 27.5777 68.0935 26.3777 68.0935 25.1777L68.1937 25.2777Z" fill="black"/>
<path d="M67.3918 17.9778C68.2937 17.1778 69.4963 15.9778 70.6988 14.3778C72.0015 12.6778 73.1038 10.7778 73.9055 8.77779C74.9076 6.27779 75.5088 3.67778 75.7093 0.977783C75.7093 0.977783 78.3147 9.17778 72.8032 16.0778C67.2916 22.9778 68.6946 20.3778 67.9931 20.8778C67.8929 19.8778 67.6925 18.8778 67.3918 17.8778V17.9778Z" fill="black"/>
<path d="M69.8971 41.1777C70.0975 40.6777 70.3981 40.1777 70.5986 39.6777C71.9013 38.8777 74.3063 37.3777 74.3063 37.3777C74.3063 37.3777 74.0057 42.0777 69.7969 45.9777C67.7927 47.8777 65.5881 48.5777 64.9868 48.8777C66.8908 46.5777 68.5944 43.9777 69.8971 41.2777V41.1777Z" fill="black"/>
<path d="M79.3168 17.4778C79.3168 18.3778 79.1164 20.7778 78.0141 23.4778C77.2124 25.4778 76.1101 27.2778 74.7072 28.9778C73.3042 30.5778 71.7009 32.0778 69.7969 33.2778C69.9973 32.1778 70.0975 31.4778 70.0975 31.1778C69.8971 31.3778 69.5965 31.4778 69.4963 31.5778L67.0912 33.0778C67.0912 33.0778 67.0912 33.1778 67.0912 33.2778C66.7906 34.5778 66.1893 36.4778 65.1872 38.7778C65.1872 39.5778 65.2874 40.2778 65.2874 40.9778C65.2874 42.1778 65.2874 43.3778 64.9868 44.4778C65.9889 43.0778 66.7906 41.5778 67.4921 40.0778C67.9931 39.0778 68.3939 38.0778 68.6946 37.1778L69.4963 36.6778C72.4023 34.9778 75.0078 33.0778 76.8116 30.6778C81.6216 24.2778 79.3168 17.5778 79.3168 17.5778V17.4778Z" fill="black"/>
<path d="M60.4774 27.1777C60.6778 27.3777 60.778 27.6777 60.9785 27.8777C61.4795 24.7777 60.9785 22.4777 60.778 21.6777L57.9722 24.4777C58.8741 25.2777 59.6757 26.1777 60.3772 27.1777H60.4774Z" fill="black"/>
<path d="M21.4957 43.2776C22.7985 44.6776 24.3016 45.8776 25.905 46.8776C27.9092 48.0776 30.0136 48.9776 32.4186 49.5776C33.8215 48.8776 35.1243 48.2776 36.3268 47.6776C32.8194 47.1776 29.8131 46.1776 27.3079 44.6776C24.4018 42.8776 21.9968 40.4776 20.0928 37.1776C18.3892 34.1776 17.1867 31.2776 16.5854 28.4776C16.0844 26.2776 15.9842 24.0776 16.2848 21.9776C16.385 21.0776 16.5854 20.3776 16.7859 19.6776L14.6815 17.5776C14.2806 18.5776 13.98 19.9776 13.6794 21.4776C13.3787 23.8776 13.4789 26.3776 13.98 28.8776C14.5812 31.9776 15.884 35.2776 17.788 38.4776C18.8903 40.3776 20.0928 41.9776 21.4957 43.3776V43.2776Z" fill="black"/>
<path d="M66.0891 21.2777C65.8887 19.6777 65.4879 18.3777 65.087 17.3777L62.9826 19.4777C63.183 20.1777 63.2833 20.8777 63.4837 21.7777C63.6841 23.8777 63.5839 25.9777 63.183 28.2777C62.9826 28.9777 62.8824 29.7777 62.5818 30.4777C63.183 31.6777 63.6841 32.8777 64.0849 34.0777C64.8866 32.2777 65.3877 30.4777 65.7885 28.6777C66.2895 26.1777 66.3898 23.6777 66.0891 21.2777Z" fill="black"/>
<path d="M72.2021 48.5778C72.0017 48.7778 71.8012 48.9778 71.6008 49.1778C71.6008 49.1778 71.6008 49.3778 71.5006 49.4778C70.2981 51.6778 68.7949 53.4778 66.8909 54.9778C66.1895 55.5778 65.3878 56.0778 64.5861 56.4778C63.9849 57.4778 62.7823 58.9778 60.7781 60.5778C60.5777 60.6778 60.4775 60.8778 60.2771 60.9778C63.4838 60.1778 66.2897 58.8778 68.5945 56.9778C70.7991 55.2778 72.6029 53.0778 73.9056 50.5778C75.6092 47.3778 76.2105 44.3778 76.3107 42.9778C75.3086 45.0778 73.9056 46.9778 72.2021 48.5778Z" fill="black"/>
<path d="M62.5818 62.7779C60.9785 66.2779 57.872 72.1779 52.8615 76.9779C48.9533 80.7779 45.5462 82.9779 43.4418 84.1779C41.8384 85.0779 40.6359 85.5779 40.1348 85.7779C39.5336 85.5779 38.3311 85.0779 36.8279 84.1779C34.7235 82.9779 31.3164 80.7779 27.4082 76.9779C23.5 73.1779 20.6941 68.7779 19.0908 65.6779C18.5897 64.6779 18.0887 63.6779 17.6878 62.8779C16.2849 62.4779 14.9822 61.8779 13.6794 61.2779C13.9801 62.1779 14.882 64.3779 16.2849 66.9779C17.9885 70.2779 20.9948 75.0779 25.2036 79.0779C33.3206 86.8779 39.4334 88.6779 39.734 88.6779H40.1348C40.1348 88.7779 40.5357 88.6779 40.5357 88.6779C40.8363 88.6779 46.9491 86.8779 55.0661 79.0779C59.2749 74.9779 62.2812 70.1779 63.9848 66.9779C65.4879 64.0779 66.3898 61.8779 66.6904 61.0779C65.3877 61.7779 64.085 62.2779 62.6821 62.7779H62.5818Z" fill="#BC9B5F"/>
<path d="M63.9847 15.5777L62.7822 13.5777L62.5818 13.3777C62.5818 13.3777 60.3772 11.6777 56.469 10.0777C54.1642 9.17768 51.7591 8.37769 49.3541 7.87769C46.2476 7.17769 43.0409 6.87769 39.734 6.87769C36.427 6.87769 33.2203 7.17769 30.1138 7.87769C27.6086 8.37769 25.2035 9.17768 22.9989 10.0777C19.0907 11.6777 16.9863 13.3777 16.8861 13.3777L16.5855 13.5777L15.6836 15.3777L17.788 17.4777L18.7901 15.3777C19.3914 14.9777 21.2953 13.7777 24.1012 12.5777C26.2056 11.6777 28.4102 10.9777 30.7151 10.4777C33.6212 9.87768 36.6275 9.57768 39.6337 9.57768C42.64 9.57768 45.6463 9.87768 48.5524 10.4777C50.8572 10.9777 53.0619 11.6777 55.1663 12.5777C58.1726 13.7777 59.9763 15.0777 60.5776 15.4777L61.8803 17.5777L63.8845 15.5777H63.9847Z" fill="#BC9B5F"/>
<path d="M60.1768 52.7778C60.1768 52.7778 59.2749 54.3778 57.0703 56.2778C54.064 58.8778 50.9575 60.4778 47.7507 62.2778C45.1453 63.6778 42.4396 65.1778 39.8342 67.0778C35.7256 70.1778 32.9197 73.3778 31.2161 75.4778C31.0157 75.7778 30.7151 76.0778 30.5146 76.3778C31.2161 76.9778 31.9176 77.5778 32.5188 78.1778C32.7193 77.8778 33.0199 77.4778 33.3205 77.1778C34.9239 75.1778 37.5293 72.1778 41.3373 69.3778C43.8426 67.4778 46.2476 66.1778 48.9533 64.7778C52.16 63.0778 55.5671 61.2778 58.7738 58.4778C60.4774 56.9778 61.4795 55.7778 62.0807 54.9778C62.4816 54.9778 67.3919 53.5778 68.5944 50.4778C64.586 52.9778 60.1768 52.9778 60.1768 52.9778V52.7778Z" fill="black"/>
<path d="M50.4565 70.7779C51.8595 68.9779 55.1664 65.1779 58.0725 62.5779C55.467 64.4779 48.9534 66.7779 44.6444 74.7779C43.3416 77.2779 42.2393 80.3779 41.7383 82.0779C41.8385 82.0779 42.0389 81.9779 42.1391 81.8779C43.041 81.3779 44.0431 80.7779 45.3458 79.8779C45.7467 78.8779 46.3479 77.5779 47.1496 76.0779C48.1517 74.1779 49.254 72.4779 50.5567 70.8779L50.4565 70.7779Z" fill="black"/>
<path d="M35.2245 80.1778C36.1264 80.7778 36.928 81.2778 37.5293 81.6778C40.4354 75.2778 43.4417 70.4778 43.4417 70.4778C43.2413 70.6778 39.1327 74.1778 35.1243 80.1778H35.2245Z" fill="black"/>
<path d="M30.615 65.5777C33.4209 62.4777 37.5295 59.6777 42.8406 57.0777C52.4607 52.4777 56.3689 47.8777 56.3689 41.0777C56.3689 34.2777 54.0641 32.4777 52.9618 31.3777L51.4586 33.6777C51.659 33.9777 51.9597 34.3777 52.2603 34.8777C52.9618 36.0777 53.6632 38.0777 53.6632 41.0777C53.6632 44.0777 52.8616 46.0777 51.158 48.0777C49.254 50.2777 46.1475 52.4777 41.6381 54.5777C37.8301 56.3777 32.6192 59.3777 28.5106 63.7777C26.9072 65.4777 25.5043 67.2777 24.3018 69.3777C24.903 70.1777 25.5043 70.9777 26.1055 71.7777C27.3081 69.3777 28.9114 67.3777 30.5148 65.4777L30.615 65.5777Z" fill="black"/>
<path d="M35.1244 55.6778C36.828 54.6778 38.4313 53.8778 40.1349 53.0778C44.1433 51.0778 47.9512 49.2778 50.1559 45.1778C52.2603 41.1778 50.7571 36.5778 50.3563 35.4778L48.3521 38.4778C48.6527 39.9778 48.6527 42.0778 47.7508 43.8778C46.9491 45.3778 45.8468 46.6778 44.2435 47.7778C42.7403 48.8778 40.9366 49.7778 38.9324 50.6778C37.2288 51.4778 35.5252 52.2778 33.7214 53.3778C31.5168 54.6778 29.3122 56.3778 27.308 58.1778C25.7047 59.6778 24.2015 61.2778 22.7986 63.0778C22.2975 63.6778 21.8967 64.2778 21.4958 64.8778C21.8967 65.6778 22.3977 66.5778 22.999 67.4778C24.903 64.5778 28.9114 59.3778 35.1244 55.6778Z" fill="black"/>
<path d="M29.8133 42.8777C33.1203 44.5777 38.9324 45.2777 41.9387 42.3777C47.5505 36.5777 41.5379 27.6777 33.9219 30.5777C35.8259 26.5777 39.6339 25.2777 44.1433 25.1777C48.753 25.1777 52.6612 27.2777 55.4671 30.9777C57.6717 33.9777 58.9744 37.5777 59.0746 41.2777C58.8742 54.4777 43.5421 57.4777 34.8238 64.9777C32.8196 66.3777 29.6129 70.4777 27.5085 73.6777C28.0096 74.1777 28.5106 74.7777 29.1119 75.2777C29.2121 75.3777 29.4125 75.4777 29.5127 75.6777C31.4167 72.1777 35.9261 66.0777 44.8448 61.6777C55.7677 56.4777 64.8868 47.6777 60.7782 35.4777C59.7761 32.6777 58.3731 30.0777 56.3689 27.8777C51.7593 22.3777 43.4419 20.4777 36.4272 24.3777C29.4125 28.2777 30.3144 35.6777 31.1161 37.8777C31.4167 36.1777 35.3249 30.3777 40.0347 33.9777C40.7362 34.5777 41.5379 35.5777 41.5379 37.1777C41.5379 40.0777 39.5337 41.8777 36.6276 41.7777C27.8091 41.9777 21.6963 32.3777 21.4959 24.3777L18.9907 21.8777C17.688 29.1777 22.8989 39.6777 29.9135 43.0777L29.8133 42.8777Z" fill="black"/>
</svg>
