<svg width="395" height="46" viewBox="0 0 395 46" fill="none" xmlns="http://www.w3.org/2000/svg">
<path d="M0.899902 1.40005H32.1999L35.6999 11.1001C34.3999 8.40005 32.5999 6.30005 29.9999 4.70005C27.4999 3.10005 24.7999 2.30005 21.7999 2.30005H17.1999C15.8999 2.30005 14.7999 2.70005 13.8999 3.60005C12.9999 4.50005 12.4999 5.50005 12.4999 6.80005V20.1001H21.6999C23.2999 20.1001 24.6999 19.6001 25.8999 18.6001C27.0999 17.6001 27.7999 16.3001 28.0999 14.7001V26.4C27.8999 24.9 27.0999 23.6 25.8999 22.5C24.6999 21.5 23.2999 21 21.6999 21H12.4999V38.6001C12.4999 40.0001 12.8999 41.2001 13.7999 42.1001C14.6999 43.2001 15.6999 43.8001 16.9999 44.1001H0.899902C2.1999 43.8001 3.29991 43.2001 4.09991 42.1001C4.89991 41.1001 5.29991 39.9001 5.29991 38.6001V6.80005C5.29991 5.50005 4.89991 4.30005 3.99991 3.30005C3.19991 2.20005 2.0999 1.60005 0.899902 1.30005V1.40005Z" fill="black"/>
<path d="M55 43.3C58 43.3 60.7 42.5 63.2 40.9C65.7 39.3 67.6 37.2 68.9 34.5L65.4 44.2H35C36.3 44 37.3 43.3 38.2 42.2C39.1 41.1 39.5 40 39.5 38.7V6.90002C39.5 5.60002 39.1 4.40002 38.2 3.40002C37.4 2.40002 36.3 1.70002 35 1.40002H51.1C49.8 1.60002 48.7 2.30003 47.9 3.30003C47.1 4.30003 46.6 5.50002 46.6 6.90002V38.8C46.6 40.1 47.1 41.1 48 42C48.9 42.9 50 43.3 51.3 43.3H55Z" fill="black"/>
<path d="M84.8997 2.40005C83.5997 2.40005 82.5997 2.80005 81.6997 3.70005C80.7997 4.60005 80.3997 5.60005 80.3997 6.90005V20.2001H89.5997C91.0997 20.2001 92.4997 19.7001 93.6997 18.7001C94.8997 17.7001 95.5997 16.4 95.8997 14.8V26.5C95.5997 25 94.8997 23.7001 93.6997 22.6001C92.4997 21.6001 91.0997 21.1001 89.5997 21.1001H80.3997V38.8C80.3997 40 80.7997 41.1 81.6997 41.9C82.5997 42.8 83.6997 43.2001 84.8997 43.2001H89.6997C92.5997 43.2001 95.3997 42.4 97.8997 40.8C100.4 39.2 102.3 37.1 103.6 34.4L100.1 44.1001H68.6997C69.9997 43.8001 71.0997 43.2001 71.8997 42.1001C72.6997 41.1001 73.1997 39.9001 73.1997 38.6001V6.80005C73.1997 5.50005 72.7997 4.30005 71.9997 3.30005C71.0997 2.20005 69.9997 1.60005 68.7997 1.30005H100.2L103.7 11C102.4 8.30005 100.5 6.20005 97.9997 4.60005C95.4997 3.00005 92.7997 2.20005 89.7997 2.20005H85.0997L84.8997 2.40005Z" fill="black"/>
<path d="M136.9 39.5C138.4 42.1 140.6 43.7 143.5 44.3H126.7C127.4 44.1 128 43.8001 128.5 43.2001C129 42.6001 129.2 42 129.2 41.3C129.2 40.6 129 40.2001 128.7 39.7001L120.4 25.1001L110.7 39.8C110.2 40.7 110.2 41.6 110.7 42.5C111.1 43.4 111.9 44.0001 112.8 44.2001H103.3C105.8 43.7001 108 42.1001 109.8 39.2001L118 27C119.3 25.1 119.3 23.1 118.1 21L109.7 6.30005C108.2 3.60005 105.9 1.90005 102.9 1.30005H119.7C119 1.50005 118.4 1.80005 118 2.40005C117.6 3.00005 117.4 3.60005 117.4 4.30005C117.4 5.00005 117.5 5.30005 117.8 5.80005L125.4 19.2001L133 5.90005C133.2 5.50005 133.4 5.00005 133.4 4.50005C133.4 3.70005 133.2 3.00005 132.7 2.50005C132.2 1.90005 131.6 1.50005 130.9 1.40005H140.3C137.6 2.00005 135.6 3.60005 134 6.30005L127.6 17.2001C127.1 18.1001 126.9 19.2 126.9 20.4C126.9 21.6 127.2 22.6 127.7 23.5L136.9 39.5Z" fill="black"/>
<path d="M181.8 22.7H204.6C204.6 24.5 204.6 26 204.5 27.5C204.5 28.9 204.2 30.5 203.9 32.1C203.6 33.7 203.2 35.2 202.6 36.4C202.1 37.6 201.4 38.9 200.5 40.1C199.6 41.3 198.5 42.3 197.3 43.1C196.1 43.9 194.6 44.5 192.7 45C190.9 45.5 188.9 45.7 186.7 45.7C184.5 45.7 180.8 45.2 178.2 44.2C175.6 43.2 173.5 41.8 171.8 40.1C170.1 38.4 168.7 36.4 167.5 34.2C166.3 32 165.6 29.7 165.4 27.2C165.1 24.8 165.1 22.3 165.4 19.9C165.6 17.5 166.3 15.1 167.4 12.9C168.5 10.7 169.9 8.70002 171.5 7.00002C173.1 5.30002 175.2 3.90002 177.7 2.90002C180.2 1.90002 183 1.40002 186 1.40002H198.7L202.2 11.4C200.9 8.70002 199.1 6.50002 196.5 4.90002C194 3.30002 191.3 2.50002 188.3 2.50002H187.2C184.3 2.50002 181.8 3.50003 179.6 5.60003C177.4 7.60003 175.9 10.2 174.9 13.2C173.9 16.3 173.4 19.6 173.3 23.2C173.3 26.8 173.7 30.1 174.6 33.3C175.5 36.4 177 39 179.1 41.2C181.2 43.3 183.7 44.5 186.7 44.7C192 44.7 195.6 42.9 197.7 39.3C199.3 36.5 199.6 33.5 198.4 30.3C197.3 27.3 195.4 25.3 192.6 24.4C191.6 24.1 190.5 23.9 189.4 23.9H181.8V22.9V22.7Z" fill="black"/>
<path d="M224.2 43.3C227.2 43.3 229.9 42.5 232.4 40.9C234.9 39.3 236.8 37.2 238.1 34.5L234.6 44.2H204.2C205.5 44 206.5 43.3 207.4 42.2C208.3 41.1 208.7 40 208.7 38.7V6.90002C208.7 5.60002 208.3 4.40002 207.4 3.40002C206.6 2.40002 205.5 1.70002 204.2 1.40002H220.3C219 1.60002 217.9 2.30003 217.1 3.30003C216.3 4.30003 215.8 5.50002 215.8 6.90002V38.8C215.8 40.1 216.3 41.1 217.2 42C218.1 42.9 219.2 43.3 220.5 43.3H224.2Z" fill="black"/>
<path d="M261.6 0C265.8 0 269.6 1.00001 273.2 3.10001C276.7 5.10001 279.5 7.9 281.6 11.4C283.7 14.9 284.7 18.7 284.7 22.9C284.7 27.1 283.7 30.9 281.6 34.4C279.5 37.9 276.7 40.7 273.2 42.8C269.7 44.9 265.8 45.9 261.6 45.9C257.4 45.9 253.5 44.9 250 42.8C246.4 40.7 243.6 37.9 241.6 34.4C239.5 30.9 238.5 27 238.5 22.9C238.5 18.8 239.5 15 241.6 11.4C243.7 7.9 246.5 5.10001 250 3.10001C253.6 1.10001 257.4 0 261.6 0ZM261.6 44.9C271.1 44.9 275.8 37.6 275.8 23C275.8 8.4 271.1 0.900002 261.6 0.900002C252.1 0.900002 247.2 8.2 247.2 22.9C247.2 37.6 252 44.9 261.6 44.9Z" fill="black"/>
<path d="M304.9 20.4C307 20.4 308.9 20.4 310.6 20.8C312.4 21.1 314 21.7 315.5 22.6C317 23.5 318.2 24.7 319 26.3C319.9 27.9 320.3 29.9 320.3 32.2C320.3 35.6 319 38.5 316.5 40.8C314 43.1 310.7 44.3 306.7 44.3H284.2C285.5 44 286.6 43.4 287.4 42.3C288.2 41.3 288.7 40.1 288.7 38.8V7C288.7 5.7 288.3 4.5 287.4 3.5C286.6 2.5 285.5 1.8 284.2 1.5H305C308.3 1.5 310.9 2.2 313 3.7C315.1 5.2 316.1 7.4 316.1 10.5C316.1 13.6 315.9 12.8 315.5 13.8C315.1 14.8 314.6 15.6 314.1 16.2C313.6 16.8 312.8 17.4 311.9 17.9C310.9 18.4 310.1 18.8 309.5 19C308.9 19.2 308 19.5 307 19.8C306 20.1 305.3 20.3 305 20.4H304.9ZM301.2 2.4C299.7 2.4 298.5 2.8 297.4 3.7C296.4 4.6 295.8 5.6 295.8 6.9V21.1C296.4 21.1 297 20.9 297.6 20.8C298.2 20.7 299.1 20.5 300.2 20.3C301.3 20 302.3 19.7 303.2 19.2C304.1 18.7 305 18.1 305.9 17.5C306.8 16.8 307.5 16 308 14.9C308.5 13.8 308.8 12.7 308.8 11.4C308.8 8.8 308.2 6.7 307 5C305.8 3.3 304 2.5 301.7 2.5H301.1L301.2 2.4ZM301.9 43.3C305 43.3 307.6 42.2 309.8 40C312 37.8 313 35.2 313 32.1C313 29 312.7 29.4 312.1 28.2C311.5 27 310.8 26.1 310 25.3C309.2 24.5 308.2 23.9 307 23.3C305.8 22.7 304.7 22.3 303.6 22C302.5 21.7 301.4 21.5 300.2 21.3C299 21.1 298.1 21 297.5 21C296.9 21 296.3 21 295.8 21V38.7C295.8 40 296.3 41.1 297.3 41.9C298.3 42.7 299.6 43.2 301.3 43.2H301.9V43.3Z" fill="black"/>
<path d="M360.3 44.2001H344.2C345.4 43.9001 346.2 43.3001 346.7 42.2001C347.2 41.2001 347.2 40.0001 346.7 38.7001L344.6 32.6001H327.7L325.6 38.7001C325.2 40.0001 325.2 41.2001 325.6 42.2001C326.1 43.2001 326.9 43.9001 328.1 44.2001H318.4C319.8 43.9001 321.1 43.3001 322.3 42.2001C323.5 41.2001 324.3 40.0001 324.7 38.7001L335.7 7.00005C335.3 5.50005 334.4 4.40005 333.3 3.30005C332.1 2.30005 330.8 1.60005 329.4 1.30005H345.5C344.3 1.60005 343.4 2.20005 343 3.30005C342.5 4.30005 342.5 5.50005 343 6.80005L354 38.6001C354.5 39.9001 355.3 41.1001 356.5 42.1001C357.7 43.1001 359 43.8001 360.4 44.1001L360.3 44.2001ZM328 31.8H344.2L336.1 8.30005L328 31.8Z" fill="black"/>
<path d="M380.6 43.3C383.6 43.3 386.3 42.5 388.8 40.9C391.3 39.3 393.2 37.2 394.5 34.5L391 44.2H360.6C361.9 44 362.9 43.3 363.8 42.2C364.7 41.1 365.1 40 365.1 38.7V6.90002C365.1 5.60002 364.7 4.40002 363.8 3.40002C363 2.40002 361.9 1.70002 360.6 1.40002H376.7C375.4 1.60002 374.3 2.30003 373.5 3.30003C372.7 4.30003 372.2 5.50002 372.2 6.90002V38.8C372.2 40.1 372.7 41.1 373.6 42C374.5 42.9 375.6 43.3 376.9 43.3H380.6Z" fill="black"/>
</svg>
