<svg width="419" height="120" viewBox="0 0 419 120" fill="none" xmlns="http://www.w3.org/2000/svg">
<g filter="url(#filter0_d_29_310)">
<path d="M62.9492 39.3335C62.9492 40.8335 61.7467 42.0335 60.2435 42.0335C58.7404 42.0335 57.5378 40.8335 57.5378 39.3335H63.0494H62.9492Z" fill="black"/>
<path d="M27.5749 36.5334C26.7733 35.9334 25.8714 35.2334 24.9695 34.2334C20.8609 30.1334 18.5561 24.9333 18.2554 22.4333C18.2554 22.4333 16.3514 29.2334 23.1657 36.1334C25.1699 38.1334 27.0739 39.4334 28.076 40.0334C27.8756 38.8334 27.6752 37.6333 27.6752 36.4333L27.5749 36.5334Z" fill="black"/>
<path d="M28.3766 29.2334C27.4747 28.4334 26.2722 27.2334 25.0697 25.6334C23.767 23.9334 22.6647 22.0334 21.863 20.0334C20.8609 17.5334 20.2596 14.9334 20.0592 12.2334C20.0592 12.2334 17.4537 20.4334 22.9653 27.3334C25.0697 30.0334 27.0739 31.6334 27.7754 32.1334C27.8756 31.1334 28.076 30.1334 28.3766 29.1334V29.2334Z" fill="black"/>
<path d="M28.7776 62.4333C28.7776 62.6333 32.4854 66.9334 39.0992 67.6334C36.8946 66.2334 34.7902 64.6334 32.9864 62.8334L28.7776 62.4333Z" fill="black"/>
<path d="M25.8714 52.4333C25.671 51.9333 25.3703 51.4333 25.1699 50.9333C23.8672 50.1333 21.4622 48.6333 21.4622 48.6333C21.4622 48.6333 21.7628 53.3333 25.9716 57.2333C27.9758 59.1333 30.1804 59.8333 30.7817 60.1333C28.8777 57.8333 27.1741 55.2333 25.8714 52.5333V52.4333Z" fill="black"/>
<path d="M35.5918 57.4334C33.6878 55.2334 32.0845 52.8334 30.7817 50.2334C29.6794 47.9334 29.0782 45.8334 28.7775 44.5334C28.7775 44.5334 28.7775 44.4334 28.7775 44.3334L26.3725 42.8334C26.1721 42.7334 25.9717 42.6334 25.7713 42.4334C25.7713 42.6334 25.8715 43.4334 26.0719 44.5334C24.1679 43.2334 22.5645 41.8334 21.1616 40.2334C19.7587 38.5334 18.6564 36.7334 17.8547 34.7334C16.7524 32.0334 16.4517 29.6334 16.5519 28.7334C16.5519 28.7334 14.2471 35.4334 19.0572 41.8334C20.861 44.2334 23.4664 46.2334 26.3725 47.8334L27.1742 48.3334C27.4748 49.2334 27.8757 50.2334 28.3767 51.2334C29.6794 54.1334 31.4832 56.7334 33.5876 59.1334C35.7922 61.6334 38.4979 63.8334 41.5042 65.6334C42.2057 65.0334 42.9071 64.4334 43.7088 63.8334C40.6023 62.1334 37.8966 59.9334 35.5918 57.4334Z" fill="black"/>
<path d="M24.2681 60.6333C24.2681 60.6333 24.2681 60.4333 24.1679 60.3333C23.9675 60.1333 23.767 59.9333 23.5666 59.7333C21.863 58.1333 20.4601 56.2333 19.458 54.1333C19.6584 55.5333 20.1595 58.4333 21.863 61.7333C23.1658 64.2333 24.9695 66.4333 27.1742 68.1333C29.479 70.0333 32.2849 71.3333 35.4916 72.1333L35.692 71.8333C35.692 71.7333 36.2933 70.9333 37.2954 69.8333C33.9884 69.1333 31.1826 67.9333 28.8777 66.1333C26.9737 64.6333 25.4706 62.8333 24.2681 60.6333Z" fill="black"/>
<path d="M84.1937 36.5334C84.9954 35.9334 85.8972 35.2334 86.7991 34.2334C90.9077 30.1334 93.2126 24.9333 93.5132 22.4333C93.5132 22.4333 95.4172 29.2334 88.6029 36.1334C86.5987 38.1334 84.6947 39.4334 83.6926 40.0334C83.893 38.8334 84.0935 37.6333 84.0935 36.4333L84.1937 36.5334Z" fill="black"/>
<path d="M83.3918 29.2334C84.2937 28.4334 85.4963 27.2334 86.6988 25.6334C88.0015 23.9334 89.1038 22.0334 89.9055 20.0334C90.9076 17.5334 91.5088 14.9334 91.7093 12.2334C91.7093 12.2334 94.3147 20.4334 88.8032 27.3334C83.2916 34.2334 84.6946 31.6334 83.9931 32.1334C83.8929 31.1334 83.6925 30.1334 83.3918 29.1334V29.2334Z" fill="black"/>
<path d="M85.8971 52.4333C86.0975 51.9333 86.3981 51.4333 86.5986 50.9333C87.9013 50.1333 90.3063 48.6333 90.3063 48.6333C90.3063 48.6333 90.0057 53.3333 85.7969 57.2333C83.7927 59.1333 81.5881 59.8333 80.9868 60.1333C82.8908 57.8333 84.5944 55.2333 85.8971 52.5333V52.4333Z" fill="black"/>
<path d="M95.3168 28.7334C95.3168 29.6334 95.1164 32.0334 94.0141 34.7334C93.2124 36.7334 92.1101 38.5334 90.7072 40.2334C89.3042 41.8334 87.7009 43.3334 85.7969 44.5334C85.9973 43.4334 86.0975 42.7334 86.0975 42.4334C85.8971 42.6334 85.5965 42.7334 85.4963 42.8334L83.0912 44.3334C83.0912 44.3334 83.0912 44.4334 83.0912 44.5334C82.7906 45.8334 82.1893 47.7334 81.1872 50.0334C81.1872 50.8334 81.2874 51.5334 81.2874 52.2334C81.2874 53.4334 81.2874 54.6334 80.9868 55.7334C81.9889 54.3334 82.7906 52.8334 83.4921 51.3334C83.9931 50.3334 84.3939 49.3334 84.6946 48.4334L85.4963 47.9334C88.4023 46.2334 91.0078 44.3334 92.8116 41.9334C97.6216 35.5334 95.3168 28.8334 95.3168 28.8334V28.7334Z" fill="black"/>
<path d="M76.4774 38.4333C76.6778 38.6333 76.778 38.9334 76.9785 39.1334C77.4795 36.0334 76.9785 33.7333 76.778 32.9333L73.9722 35.7334C74.8741 36.5334 75.6757 37.4333 76.3772 38.4333H76.4774Z" fill="black"/>
<path d="M37.4957 54.5333C38.7985 55.9333 40.3016 57.1333 41.905 58.1333C43.9092 59.3333 46.0136 60.2333 48.4186 60.8333C49.8215 60.1333 51.1243 59.5333 52.3268 58.9333C48.8194 58.4333 45.8131 57.4333 43.3079 55.9333C40.4018 54.1333 37.9968 51.7333 36.0928 48.4333C34.3892 45.4333 33.1867 42.5333 32.5854 39.7333C32.0844 37.5333 31.9842 35.3333 32.2848 33.2333C32.385 32.3333 32.5854 31.6333 32.7859 30.9333L30.6815 28.8333C30.2806 29.8333 29.98 31.2333 29.6794 32.7333C29.3787 35.1333 29.4789 37.6333 29.98 40.1333C30.5812 43.2333 31.884 46.5333 33.788 49.7333C34.8903 51.6333 36.0928 53.2333 37.4957 54.6333V54.5333Z" fill="black"/>
<path d="M82.0891 32.5333C81.8887 30.9333 81.4879 29.6333 81.087 28.6333L78.9826 30.7333C79.183 31.4333 79.2833 32.1333 79.4837 33.0333C79.6841 35.1333 79.5839 37.2333 79.183 39.5333C78.9826 40.2333 78.8824 41.0333 78.5818 41.7333C79.183 42.9333 79.6841 44.1333 80.0849 45.3333C80.8866 43.5333 81.3877 41.7333 81.7885 39.9333C82.2895 37.4333 82.3898 34.9333 82.0891 32.5333Z" fill="black"/>
<path d="M88.2021 59.8334C88.0017 60.0334 87.8012 60.2334 87.6008 60.4334C87.6008 60.4334 87.6008 60.6334 87.5006 60.7334C86.2981 62.9334 84.7949 64.7334 82.8909 66.2334C82.1895 66.8334 81.3878 67.3334 80.5861 67.7334C79.9849 68.7334 78.7823 70.2334 76.7781 71.8334C76.5777 71.9334 76.4775 72.1334 76.2771 72.2334C79.4838 71.4334 82.2897 70.1334 84.5945 68.2334C86.7991 66.5334 88.6029 64.3334 89.9056 61.8334C91.6092 58.6334 92.2105 55.6334 92.3107 54.2334C91.3086 56.3334 89.9056 58.2334 88.2021 59.8334Z" fill="black"/>
<path d="M78.5818 74.0335C76.9785 77.5335 73.872 83.4335 68.8615 88.2335C64.9533 92.0335 61.5462 94.2335 59.4418 95.4335C57.8384 96.3335 56.6359 96.8335 56.1348 97.0335C55.5336 96.8335 54.3311 96.3335 52.8279 95.4335C50.7235 94.2335 47.3164 92.0335 43.4082 88.2335C39.5 84.4335 36.6941 80.0335 35.0908 76.9335C34.5897 75.9335 34.0887 74.9335 33.6878 74.1335C32.2849 73.7335 30.9822 73.1335 29.6794 72.5335C29.9801 73.4335 30.882 75.6335 32.2849 78.2335C33.9885 81.5335 36.9948 86.3335 41.2036 90.3335C49.3206 98.1335 55.4334 99.9335 55.734 99.9335H56.1348C56.1348 100.033 56.5357 99.9335 56.5357 99.9335C56.8363 99.9335 62.9491 98.1335 71.0661 90.3335C75.2749 86.2335 78.2812 81.4335 79.9848 78.2335C81.4879 75.3335 82.3898 73.1335 82.6904 72.3335C81.3877 73.0335 80.085 73.5335 78.6821 74.0335H78.5818Z" fill="#BC9B5F"/>
<path d="M79.9847 26.8333L78.7822 24.8333L78.5818 24.6333C78.5818 24.6333 76.3772 22.9333 72.469 21.3333C70.1642 20.4333 67.7591 19.6333 65.3541 19.1333C62.2476 18.4333 59.0409 18.1333 55.734 18.1333C52.427 18.1333 49.2203 18.4333 46.1138 19.1333C43.6086 19.6333 41.2035 20.4333 38.9989 21.3333C35.0907 22.9333 32.9863 24.6333 32.8861 24.6333L32.5855 24.8333L31.6836 26.6333L33.788 28.7333L34.7901 26.6333C35.3914 26.2333 37.2953 25.0333 40.1012 23.8333C42.2056 22.9333 44.4102 22.2333 46.7151 21.7333C49.6212 21.1333 52.6275 20.8333 55.6337 20.8333C58.64 20.8333 61.6463 21.1333 64.5524 21.7333C66.8572 22.2333 69.0619 22.9333 71.1663 23.8333C74.1726 25.0333 75.9763 26.3333 76.5776 26.7333L77.8803 28.8333L79.8845 26.8333H79.9847Z" fill="#BC9B5F"/>
<path d="M76.1768 64.0334C76.1768 64.0334 75.2749 65.6334 73.0703 67.5334C70.064 70.1334 66.9575 71.7334 63.7507 73.5334C61.1453 74.9334 58.4396 76.4334 55.8342 78.3334C51.7256 81.4334 48.9197 84.6334 47.2161 86.7334C47.0157 87.0334 46.7151 87.3334 46.5146 87.6334C47.2161 88.2334 47.9176 88.8334 48.5188 89.4334C48.7193 89.1334 49.0199 88.7334 49.3205 88.4334C50.9239 86.4334 53.5293 83.4334 57.3373 80.6334C59.8426 78.7334 62.2476 77.4334 64.9533 76.0334C68.16 74.3334 71.5671 72.5334 74.7738 69.7334C76.4774 68.2334 77.4795 67.0334 78.0807 66.2334C78.4816 66.2334 83.3919 64.8334 84.5944 61.7334C80.586 64.2334 76.1768 64.2334 76.1768 64.2334V64.0334Z" fill="black"/>
<path d="M66.4565 82.0335C67.8595 80.2335 71.1664 76.4335 74.0725 73.8335C71.467 75.7335 64.9534 78.0335 60.6444 86.0335C59.3416 88.5335 58.2393 91.6335 57.7383 93.3335C57.8385 93.3335 58.0389 93.2335 58.1391 93.1335C59.041 92.6335 60.0431 92.0335 61.3458 91.1335C61.7467 90.1335 62.3479 88.8335 63.1496 87.3335C64.1517 85.4335 65.254 83.7335 66.5567 82.1335L66.4565 82.0335Z" fill="black"/>
<path d="M51.2245 91.4334C52.1264 92.0334 52.928 92.5334 53.5293 92.9334C56.4354 86.5334 59.4417 81.7334 59.4417 81.7334C59.2413 81.9334 55.1327 85.4334 51.1243 91.4334H51.2245Z" fill="black"/>
<path d="M46.615 76.8333C49.4209 73.7333 53.5295 70.9333 58.8406 68.3333C68.4607 63.7333 72.3689 59.1333 72.3689 52.3333C72.3689 45.5333 70.0641 43.7333 68.9618 42.6333L67.4586 44.9333C67.659 45.2333 67.9597 45.6333 68.2603 46.1333C68.9618 47.3333 69.6632 49.3333 69.6632 52.3333C69.6632 55.3333 68.8616 57.3333 67.158 59.3333C65.254 61.5333 62.1475 63.7333 57.6381 65.8333C53.8301 67.6333 48.6192 70.6333 44.5106 75.0333C42.9072 76.7333 41.5043 78.5333 40.3018 80.6333C40.903 81.4333 41.5043 82.2333 42.1055 83.0333C43.3081 80.6333 44.9114 78.6333 46.5148 76.7333L46.615 76.8333Z" fill="black"/>
<path d="M51.1244 66.9334C52.828 65.9334 54.4313 65.1334 56.1349 64.3334C60.1433 62.3334 63.9512 60.5334 66.1559 56.4334C68.2603 52.4334 66.7571 47.8334 66.3563 46.7334L64.3521 49.7334C64.6527 51.2334 64.6527 53.3334 63.7508 55.1334C62.9491 56.6334 61.8468 57.9334 60.2435 59.0334C58.7403 60.1334 56.9366 61.0334 54.9324 61.9334C53.2288 62.7334 51.5252 63.5334 49.7214 64.6334C47.5168 65.9334 45.3122 67.6334 43.308 69.4334C41.7047 70.9334 40.2015 72.5334 38.7986 74.3334C38.2975 74.9334 37.8967 75.5334 37.4958 76.1334C37.8967 76.9334 38.3977 77.8334 38.999 78.7334C40.903 75.8334 44.9114 70.6334 51.1244 66.9334Z" fill="black"/>
<path d="M45.8133 54.1333C49.1203 55.8333 54.9324 56.5333 57.9387 53.6333C63.5505 47.8333 57.5379 38.9333 49.9219 41.8333C51.8259 37.8333 55.6339 36.5333 60.1433 36.4333C64.753 36.4333 68.6612 38.5333 71.4671 42.2333C73.6717 45.2333 74.9744 48.8333 75.0746 52.5333C74.8742 65.7333 59.5421 68.7333 50.8238 76.2333C48.8196 77.6333 45.6129 81.7333 43.5085 84.9333C44.0096 85.4333 44.5106 86.0333 45.1119 86.5333C45.2121 86.6333 45.4125 86.7333 45.5127 86.9333C47.4167 83.4333 51.9261 77.3333 60.8448 72.9333C71.7677 67.7333 80.8868 58.9333 76.7782 46.7333C75.7761 43.9333 74.3731 41.3333 72.3689 39.1333C67.7593 33.6333 59.4419 31.7333 52.4272 35.6333C45.4125 39.5333 46.3144 46.9333 47.1161 49.1333C47.4167 47.4333 51.3249 41.6333 56.0347 45.2333C56.7362 45.8333 57.5379 46.8333 57.5379 48.4333C57.5379 51.3333 55.5337 53.1333 52.6276 53.0333C43.8091 53.2333 37.6963 43.6333 37.4959 35.6333L34.9907 33.1333C33.688 40.4333 38.8989 50.9333 45.9135 54.3333L45.8133 54.1333Z" fill="black"/>
<path d="M127.869 41.0817H149.736L152.181 47.8442C151.273 45.9619 150.015 44.4978 148.199 43.3823C146.452 42.2669 144.566 41.7091 142.47 41.7091H139.257C138.348 41.7091 137.58 41.988 136.951 42.6155C136.322 43.2429 135.973 43.9401 135.973 44.8464V54.1187H142.4C143.518 54.1187 144.496 53.7701 145.335 53.073C146.173 52.3758 146.662 51.4695 146.872 50.354V58.5109C146.732 57.4651 146.173 56.5588 145.335 55.7919C144.496 55.0947 143.518 54.7462 142.4 54.7462H135.973V67.0163C135.973 67.9924 136.252 68.829 136.881 69.4564C137.51 70.2233 138.209 70.6416 139.117 70.8507H127.869C128.777 70.6416 129.546 70.2233 130.105 69.4564C130.663 68.7592 130.943 67.9226 130.943 67.0163V44.8464C130.943 43.9401 130.663 43.1035 130.035 42.4063C129.476 41.6394 128.707 41.2211 127.869 41.012V41.0817Z" fill="black"/>
<path d="M165.665 70.2931C167.761 70.2931 169.647 69.7354 171.394 68.6199C173.14 67.5044 174.467 66.0404 175.376 64.158L172.931 70.9206H151.692C152.6 70.7811 153.299 70.2931 153.928 69.5262C154.557 68.7593 154.836 67.9925 154.836 67.0861V44.9162C154.836 44.0099 154.557 43.1733 153.928 42.4761C153.369 41.779 152.6 41.2909 151.692 41.0818H162.94C162.032 41.2212 161.263 41.7092 160.704 42.4064C160.146 43.1036 159.796 43.9402 159.796 44.9162V67.1559C159.796 68.0622 160.146 68.7593 160.774 69.3868C161.403 70.0142 162.172 70.2931 163.08 70.2931H165.665Z" fill="black"/>
<path d="M186.554 41.7788C185.646 41.7788 184.947 42.0577 184.318 42.6852C183.69 43.3126 183.41 44.0098 183.41 44.9161V54.1884H189.837C190.885 54.1884 191.863 53.8399 192.702 53.1427C193.54 52.4455 194.029 51.5392 194.239 50.4237V58.5806C194.029 57.5348 193.54 56.6285 192.702 55.8616C191.863 55.1645 190.885 54.8159 189.837 54.8159H183.41V67.1558C183.41 67.9924 183.69 68.7592 184.318 69.317C184.947 69.9444 185.716 70.2233 186.554 70.2233H189.907C191.933 70.2233 193.89 69.6656 195.636 68.5501C197.383 67.4346 198.71 65.9706 199.618 64.0882L197.173 70.8507H175.236C176.144 70.6416 176.913 70.2233 177.472 69.4564C178.031 68.7592 178.38 67.9226 178.38 67.0163V44.8464C178.38 43.9401 178.1 43.1035 177.542 42.4063C176.913 41.6394 176.144 41.2211 175.306 41.012H197.243L199.688 47.7745C198.78 45.8921 197.453 44.4281 195.706 43.3126C193.959 42.1972 192.073 41.6394 189.977 41.6394H186.694L186.554 41.7788Z" fill="black"/>
<path d="M222.883 67.6438C223.931 69.4564 225.468 70.5719 227.494 70.9902H215.757C216.246 70.8507 216.665 70.6416 217.014 70.2233C217.364 69.805 217.503 69.3867 217.503 68.8987C217.503 68.4107 217.364 68.1318 217.154 67.7832L211.355 57.6046L204.579 67.8529C204.229 68.4804 204.229 69.1078 204.579 69.7353C204.858 70.3627 205.417 70.781 206.046 70.9205H199.409C201.155 70.5719 202.692 69.4564 203.95 67.4346L209.679 58.9292C210.587 57.6046 210.587 56.2102 209.749 54.7462L203.88 44.4978C202.832 42.6154 201.225 41.4303 199.129 41.012H210.866C210.377 41.1514 209.958 41.3605 209.679 41.7788C209.399 42.1971 209.26 42.6154 209.26 43.1035C209.26 43.5915 209.329 43.8006 209.539 44.1492L214.849 53.4913L220.158 44.2189C220.298 43.9401 220.438 43.5915 220.438 43.2429C220.438 42.6852 220.298 42.1971 219.949 41.8486C219.599 41.4303 219.18 41.1514 218.691 41.0817H225.258C223.372 41.5 221.975 42.6154 220.857 44.4978L216.386 52.0969C216.036 52.7244 215.897 53.4913 215.897 54.3279C215.897 55.1645 216.106 55.8616 216.455 56.4891L222.883 67.6438Z" fill="black"/>
<path d="M254.251 55.9315H270.18C270.18 57.1864 270.18 58.2321 270.11 59.2779C270.11 60.2539 269.901 61.3694 269.691 62.4848C269.481 63.6003 269.202 64.6461 268.783 65.4827C268.433 66.3193 267.944 67.2256 267.316 68.0622C266.687 68.8988 265.918 69.596 265.08 70.1537C264.242 70.7114 263.194 71.1297 261.866 71.4783C260.609 71.8269 259.212 71.9663 257.675 71.9663C256.138 71.9663 253.553 71.6177 251.736 70.9206C249.92 70.2234 248.453 69.2474 247.265 68.0622C246.077 66.877 245.099 65.4827 244.261 63.9489C243.422 62.4151 242.933 60.8116 242.794 59.0687C242.584 57.3955 242.584 55.6526 242.794 53.9794C242.933 52.3062 243.422 50.633 244.191 49.0992C244.959 47.5654 245.938 46.1711 247.055 44.9859C248.173 43.8007 249.64 42.8247 251.387 42.1275C253.133 41.4304 255.09 41.0818 257.185 41.0818H266.058L268.503 48.0535C267.595 46.1711 266.338 44.6373 264.521 43.5219C262.775 42.4064 260.888 41.8487 258.792 41.8487H258.024C255.998 41.8487 254.251 42.5458 252.714 44.0099C251.177 45.4042 250.129 47.2169 249.431 49.3084C248.732 51.4696 248.383 53.7702 248.313 56.28C248.313 58.7899 248.592 61.0905 249.221 63.3214C249.85 65.4827 250.898 67.2953 252.365 68.8291C253.832 70.2931 255.579 71.1297 257.675 71.2692C261.377 71.2692 263.892 70.0142 265.359 67.5044C266.477 65.5524 266.687 63.4609 265.848 61.2299C265.08 59.1384 263.753 57.7441 261.796 57.1166C261.098 56.9075 260.329 56.7681 259.561 56.7681H254.251V56.0709V55.9315Z" fill="black"/>
<path d="M283.873 70.2931C285.969 70.2931 287.855 69.7354 289.602 68.6199C291.348 67.5044 292.676 66.0404 293.584 64.158L291.139 70.9206H269.9C270.809 70.7811 271.507 70.2931 272.136 69.5262C272.765 68.7593 273.044 67.9925 273.044 67.0861V44.9162C273.044 44.0099 272.765 43.1733 272.136 42.4761C271.577 41.779 270.809 41.2909 269.9 41.0818H281.148C280.24 41.2212 279.472 41.7092 278.913 42.4064C278.354 43.1036 278.004 43.9402 278.004 44.9162V67.1559C278.004 68.0622 278.354 68.7593 278.983 69.3868C279.611 70.0142 280.38 70.2931 281.288 70.2931H283.873Z" fill="black"/>
<path d="M310.002 40.1057C312.936 40.1057 315.591 40.8029 318.106 42.2669C320.551 43.6613 322.507 45.6133 323.975 48.0534C325.442 50.4935 326.14 53.1428 326.14 56.0709C326.14 58.999 325.442 61.6482 323.975 64.0883C322.507 66.5284 320.551 68.4804 318.106 69.9445C315.661 71.4085 312.936 72.1057 310.002 72.1057C307.068 72.1057 304.343 71.4085 301.898 69.9445C299.383 68.4804 297.427 66.5284 296.029 64.0883C294.562 61.6482 293.864 58.9292 293.864 56.0709C293.864 53.2125 294.562 50.5632 296.029 48.0534C297.496 45.6133 299.453 43.6613 301.898 42.2669C304.413 40.8726 307.068 40.1057 310.002 40.1057ZM310.002 71.4085C316.639 71.4085 319.922 66.3192 319.922 56.1406C319.922 45.9619 316.639 40.7332 310.002 40.7332C303.365 40.7332 299.942 45.8225 299.942 56.0709C299.942 66.3192 303.295 71.4085 310.002 71.4085Z" fill="black"/>
<path d="M340.253 54.3278C341.72 54.3278 343.047 54.3278 344.235 54.6067C345.492 54.8159 346.61 55.2342 347.658 55.8616C348.706 56.4891 349.544 57.3257 350.103 58.4411C350.732 59.5566 351.012 60.9509 351.012 62.5544C351.012 64.9248 350.103 66.9466 348.357 68.5501C346.61 70.1535 344.305 70.9901 341.51 70.9901H325.791C326.699 70.781 327.468 70.3627 328.027 69.5958C328.586 68.8986 328.935 68.062 328.935 67.1557V44.9858C328.935 44.0795 328.655 43.2429 328.027 42.5457C327.468 41.8485 326.699 41.3605 325.791 41.1514H340.323C342.628 41.1514 344.444 41.6394 345.912 42.6851C347.379 43.7309 348.077 45.2647 348.077 47.4259C348.077 49.5871 347.938 49.0294 347.658 49.7265C347.379 50.4237 347.029 50.9814 346.68 51.3997C346.331 51.818 345.772 52.2363 345.143 52.5849C344.444 52.9335 343.886 53.2124 343.466 53.3518C343.047 53.4912 342.418 53.7004 341.72 53.9095C341.021 54.1187 340.532 54.2581 340.323 54.3278H340.253ZM337.668 41.7788C336.62 41.7788 335.781 42.0577 335.013 42.6851C334.314 43.3126 333.895 44.0098 333.895 44.9161V54.8159C334.314 54.8159 334.733 54.6764 335.153 54.6067C335.572 54.537 336.201 54.3976 336.969 54.2581C337.738 54.049 338.436 53.8398 339.065 53.4912C339.694 53.1427 340.323 52.7244 340.951 52.3061C341.58 51.818 342.069 51.2603 342.418 50.4934C342.768 49.7265 342.977 48.9596 342.977 48.0533C342.977 46.2407 342.558 44.7766 341.72 43.5915C340.881 42.4063 339.624 41.8485 338.017 41.8485H337.598L337.668 41.7788ZM338.157 70.293C340.323 70.293 342.139 69.5261 343.676 67.9923C345.213 66.4586 345.912 64.6459 345.912 62.4847C345.912 60.3235 345.702 60.6024 345.283 59.7657C344.864 58.9291 344.375 58.3017 343.816 57.744C343.257 57.1862 342.558 56.7679 341.72 56.3496C340.881 55.9313 340.113 55.6525 339.344 55.4433C338.576 55.2342 337.807 55.0947 336.969 54.9553C336.131 54.8159 335.502 54.7461 335.083 54.7461C334.664 54.7461 334.244 54.7461 333.895 54.7461V67.086C333.895 67.9923 334.244 68.7592 334.943 69.3169C335.642 69.8747 336.55 70.2233 337.738 70.2233H338.157V70.293Z" fill="black"/>
<path d="M378.957 70.9205H367.709C368.547 70.7113 369.106 70.293 369.455 69.5261C369.805 68.829 369.805 67.9924 369.455 67.086L367.988 62.8333H356.181L354.714 67.086C354.435 67.9924 354.435 68.829 354.714 69.5261C355.064 70.2233 355.622 70.7113 356.461 70.9205H349.684C350.662 70.7113 351.57 70.293 352.409 69.5261C353.247 68.829 353.806 67.9924 354.085 67.086L361.77 44.9858C361.491 43.9401 360.862 43.1732 360.094 42.4063C359.255 41.7091 358.347 41.2211 357.369 41.012H368.617C367.779 41.2211 367.15 41.6394 366.87 42.4063C366.521 43.1035 366.521 43.9401 366.87 44.8464L374.555 67.0163C374.905 67.9226 375.464 68.7592 376.302 69.4564C377.14 70.1536 378.048 70.6416 379.027 70.8507L378.957 70.9205ZM356.391 62.2756H367.709L362.05 45.8921L356.391 62.2756Z" fill="black"/>
<path d="M393.139 70.2931C395.235 70.2931 397.121 69.7354 398.868 68.6199C400.614 67.5044 401.942 66.0404 402.85 64.158L400.405 70.9206H379.167C380.075 70.7811 380.773 70.2931 381.402 69.5262C382.031 68.7593 382.31 67.9925 382.31 67.0861V44.9162C382.31 44.0099 382.031 43.1733 381.402 42.4761C380.843 41.779 380.075 41.2909 379.167 41.0818H390.414C389.506 41.2212 388.738 41.7092 388.179 42.4064C387.62 43.1036 387.271 43.9402 387.271 44.9162V67.1559C387.271 68.0622 387.62 68.7593 388.249 69.3868C388.877 70.0142 389.646 70.2931 390.554 70.2931H393.139Z" fill="black"/>
</g>
<defs>
<filter id="filter0_d_29_310" x="0" y="0.233398" width="418.85" height="119.745" filterUnits="userSpaceOnUse" color-interpolation-filters="sRGB">
<feFlood flood-opacity="0" result="BackgroundImageFix"/>
<feColorMatrix in="SourceAlpha" type="matrix" values="0 0 0 0 0 0 0 0 0 0 0 0 0 0 0 0 0 0 127 0" result="hardAlpha"/>
<feOffset dy="4"/>
<feGaussianBlur stdDeviation="8"/>
<feComposite in2="hardAlpha" operator="out"/>
<feColorMatrix type="matrix" values="0 0 0 0 0 0 0 0 0 0 0 0 0 0 0 0 0 0 0.01 0"/>
<feBlend mode="normal" in2="BackgroundImageFix" result="effect1_dropShadow_29_310"/>
<feBlend mode="normal" in="SourceGraphic" in2="effect1_dropShadow_29_310" result="shape"/>
</filter>
</defs>
</svg>
