<svg width="419" height="121" viewBox="0 0 419 121" fill="none" xmlns="http://www.w3.org/2000/svg">
<g filter="url(#filter0_d_28_262)">
<path d="M62.9492 39.5889C62.9492 41.0889 61.7467 42.2889 60.2435 42.2889C58.7404 42.2889 57.5378 41.0889 57.5378 39.5889H63.0494H62.9492Z" fill="white"/>
<path d="M27.5749 36.7887C26.7733 36.1887 25.8714 35.4887 24.9695 34.4887C20.8609 30.3887 18.5561 25.1887 18.2554 22.6887C18.2554 22.6887 16.3514 29.4887 23.1657 36.3887C25.1699 38.3887 27.0739 39.6887 28.076 40.2887C27.8756 39.0887 27.6752 37.8887 27.6752 36.6887L27.5749 36.7887Z" fill="white"/>
<path d="M28.3766 29.4888C27.4747 28.6888 26.2722 27.4888 25.0697 25.8888C23.767 24.1888 22.6647 22.2888 21.863 20.2888C20.8609 17.7888 20.2596 15.1888 20.0592 12.4888C20.0592 12.4888 17.4537 20.6888 22.9653 27.5888C25.0697 30.2888 27.0739 31.8888 27.7754 32.3888C27.8756 31.3888 28.076 30.3888 28.3766 29.3888V29.4888Z" fill="white"/>
<path d="M28.7776 62.6887C28.7776 62.8887 32.4854 67.1887 39.0992 67.8887C36.8946 66.4887 34.7902 64.8887 32.9864 63.0887L28.7776 62.6887Z" fill="white"/>
<path d="M25.8714 52.6887C25.671 52.1887 25.3703 51.6887 25.1699 51.1887C23.8672 50.3887 21.4622 48.8887 21.4622 48.8887C21.4622 48.8887 21.7628 53.5887 25.9716 57.4887C27.9758 59.3887 30.1804 60.0887 30.7817 60.3887C28.8777 58.0887 27.1741 55.4887 25.8714 52.7887V52.6887Z" fill="white"/>
<path d="M35.5918 57.6888C33.6878 55.4888 32.0845 53.0888 30.7817 50.4888C29.6794 48.1888 29.0782 46.0888 28.7775 44.7888C28.7775 44.7888 28.7775 44.6888 28.7775 44.5888L26.3725 43.0888C26.1721 42.9888 25.9717 42.8888 25.7713 42.6888C25.7713 42.8888 25.8715 43.6888 26.0719 44.7888C24.1679 43.4888 22.5645 42.0888 21.1616 40.4888C19.7587 38.7888 18.6564 36.9888 17.8547 34.9888C16.7524 32.2888 16.4517 29.8888 16.5519 28.9888C16.5519 28.9888 14.2471 35.6888 19.0572 42.0888C20.861 44.4888 23.4664 46.4888 26.3725 48.0888L27.1742 48.5888C27.4748 49.4888 27.8757 50.4888 28.3767 51.4888C29.6794 54.3888 31.4832 56.9888 33.5876 59.3888C35.7922 61.8888 38.4979 64.0888 41.5042 65.8888C42.2057 65.2888 42.9071 64.6888 43.7088 64.0888C40.6023 62.3888 37.8966 60.1888 35.5918 57.6888Z" fill="white"/>
<path d="M24.2681 60.8887C24.2681 60.8887 24.2681 60.6887 24.1679 60.5887C23.9675 60.3887 23.767 60.1887 23.5666 59.9887C21.863 58.3887 20.4601 56.4887 19.458 54.3887C19.6584 55.7887 20.1595 58.6887 21.863 61.9887C23.1658 64.4887 24.9695 66.6887 27.1742 68.3887C29.479 70.2887 32.2849 71.5887 35.4916 72.3887L35.692 72.0887C35.692 71.9887 36.2933 71.1887 37.2954 70.0887C33.9884 69.3887 31.1826 68.1887 28.8777 66.3887C26.9737 64.8887 25.4706 63.0887 24.2681 60.8887Z" fill="white"/>
<path d="M84.1937 36.7887C84.9954 36.1887 85.8972 35.4887 86.7991 34.4887C90.9077 30.3887 93.2126 25.1887 93.5132 22.6887C93.5132 22.6887 95.4172 29.4887 88.6029 36.3887C86.5987 38.3887 84.6947 39.6887 83.6926 40.2887C83.893 39.0887 84.0935 37.8887 84.0935 36.6887L84.1937 36.7887Z" fill="white"/>
<path d="M83.3918 29.4888C84.2937 28.6888 85.4963 27.4888 86.6988 25.8888C88.0015 24.1888 89.1038 22.2888 89.9055 20.2888C90.9076 17.7888 91.5088 15.1888 91.7093 12.4888C91.7093 12.4888 94.3147 20.6888 88.8032 27.5888C83.2916 34.4888 84.6946 31.8888 83.9931 32.3888C83.8929 31.3888 83.6925 30.3888 83.3918 29.3888V29.4888Z" fill="white"/>
<path d="M85.8971 52.6887C86.0975 52.1887 86.3981 51.6887 86.5986 51.1887C87.9013 50.3887 90.3063 48.8887 90.3063 48.8887C90.3063 48.8887 90.0057 53.5887 85.7969 57.4887C83.7927 59.3887 81.5881 60.0887 80.9868 60.3887C82.8908 58.0887 84.5944 55.4887 85.8971 52.7887V52.6887Z" fill="white"/>
<path d="M95.3168 28.9888C95.3168 29.8888 95.1164 32.2888 94.0141 34.9888C93.2124 36.9888 92.1101 38.7888 90.7072 40.4888C89.3042 42.0888 87.7009 43.5888 85.7969 44.7888C85.9973 43.6888 86.0975 42.9888 86.0975 42.6888C85.8971 42.8888 85.5965 42.9888 85.4963 43.0888L83.0912 44.5888C83.0912 44.5888 83.0912 44.6888 83.0912 44.7888C82.7906 46.0888 82.1893 47.9888 81.1872 50.2888C81.1872 51.0888 81.2874 51.7888 81.2874 52.4888C81.2874 53.6888 81.2874 54.8888 80.9868 55.9888C81.9889 54.5888 82.7906 53.0888 83.4921 51.5888C83.9931 50.5888 84.3939 49.5888 84.6946 48.6888L85.4963 48.1888C88.4023 46.4888 91.0078 44.5888 92.8116 42.1888C97.6216 35.7888 95.3168 29.0888 95.3168 29.0888V28.9888Z" fill="white"/>
<path d="M76.4774 38.6887C76.6778 38.8887 76.778 39.1887 76.9785 39.3887C77.4795 36.2887 76.9785 33.9887 76.778 33.1887L73.9722 35.9887C74.8741 36.7887 75.6757 37.6887 76.3772 38.6887H76.4774Z" fill="white"/>
<path d="M37.4957 54.7886C38.7985 56.1886 40.3016 57.3886 41.905 58.3886C43.9092 59.5886 46.0136 60.4886 48.4186 61.0886C49.8215 60.3886 51.1243 59.7886 52.3268 59.1886C48.8194 58.6886 45.8131 57.6886 43.3079 56.1886C40.4018 54.3886 37.9968 51.9886 36.0928 48.6886C34.3892 45.6886 33.1867 42.7886 32.5854 39.9886C32.0844 37.7886 31.9842 35.5886 32.2848 33.4886C32.385 32.5886 32.5854 31.8886 32.7859 31.1886L30.6815 29.0886C30.2806 30.0886 29.98 31.4886 29.6794 32.9886C29.3787 35.3886 29.4789 37.8886 29.98 40.3886C30.5812 43.4886 31.884 46.7886 33.788 49.9886C34.8903 51.8886 36.0928 53.4886 37.4957 54.8886V54.7886Z" fill="white"/>
<path d="M82.0891 32.7887C81.8887 31.1887 81.4879 29.8887 81.087 28.8887L78.9826 30.9887C79.183 31.6887 79.2833 32.3887 79.4837 33.2887C79.6841 35.3887 79.5839 37.4887 79.183 39.7887C78.9826 40.4887 78.8824 41.2887 78.5818 41.9887C79.183 43.1887 79.6841 44.3887 80.0849 45.5887C80.8866 43.7887 81.3877 41.9887 81.7885 40.1887C82.2895 37.6887 82.3898 35.1887 82.0891 32.7887Z" fill="white"/>
<path d="M88.2021 60.0888C88.0017 60.2888 87.8012 60.4888 87.6008 60.6888C87.6008 60.6888 87.6008 60.8888 87.5006 60.9888C86.2981 63.1888 84.7949 64.9888 82.8909 66.4888C82.1895 67.0888 81.3878 67.5888 80.5861 67.9888C79.9849 68.9888 78.7823 70.4888 76.7781 72.0888C76.5777 72.1888 76.4775 72.3888 76.2771 72.4888C79.4838 71.6888 82.2897 70.3888 84.5945 68.4888C86.7991 66.7888 88.6029 64.5888 89.9056 62.0888C91.6092 58.8888 92.2105 55.8888 92.3107 54.4888C91.3086 56.5888 89.9056 58.4888 88.2021 60.0888Z" fill="white"/>
<path d="M78.5818 74.2889C76.9785 77.7889 73.872 83.6889 68.8615 88.4889C64.9533 92.2889 61.5462 94.4889 59.4418 95.6889C57.8384 96.5889 56.6359 97.0889 56.1348 97.2889C55.5336 97.0889 54.3311 96.5889 52.8279 95.6889C50.7235 94.4889 47.3164 92.2889 43.4082 88.4889C39.5 84.6889 36.6941 80.2889 35.0908 77.1889C34.5897 76.1889 34.0887 75.1889 33.6878 74.3889C32.2849 73.9889 30.9822 73.3889 29.6794 72.7889C29.9801 73.6889 30.882 75.8889 32.2849 78.4889C33.9885 81.7889 36.9948 86.5889 41.2036 90.5889C49.3206 98.3889 55.4334 100.189 55.734 100.189H56.1348C56.1348 100.289 56.5357 100.189 56.5357 100.189C56.8363 100.189 62.9491 98.3889 71.0661 90.5889C75.2749 86.4889 78.2812 81.6889 79.9848 78.4889C81.4879 75.5889 82.3898 73.3889 82.6904 72.5889C81.3877 73.2889 80.085 73.7889 78.6821 74.2889H78.5818Z" fill="#BC9B5F"/>
<path d="M79.9847 27.0887L78.7822 25.0887L78.5818 24.8887C78.5818 24.8887 76.3772 23.1887 72.469 21.5887C70.1642 20.6887 67.7591 19.8887 65.3541 19.3887C62.2476 18.6887 59.0409 18.3887 55.734 18.3887C52.427 18.3887 49.2203 18.6887 46.1138 19.3887C43.6086 19.8887 41.2035 20.6887 38.9989 21.5887C35.0907 23.1887 32.9863 24.8887 32.8861 24.8887L32.5855 25.0887L31.6836 26.8887L33.788 28.9887L34.7901 26.8887C35.3914 26.4887 37.2953 25.2887 40.1012 24.0887C42.2056 23.1887 44.4102 22.4887 46.7151 21.9887C49.6212 21.3887 52.6275 21.0887 55.6337 21.0887C58.64 21.0887 61.6463 21.3887 64.5524 21.9887C66.8572 22.4887 69.0619 23.1887 71.1663 24.0887C74.1726 25.2887 75.9763 26.5887 76.5776 26.9887L77.8803 29.0887L79.8845 27.0887H79.9847Z" fill="#BC9B5F"/>
<path d="M76.1768 64.2888C76.1768 64.2888 75.2749 65.8888 73.0703 67.7888C70.064 70.3888 66.9575 71.9888 63.7507 73.7888C61.1453 75.1888 58.4396 76.6888 55.8342 78.5888C51.7256 81.6888 48.9197 84.8888 47.2161 86.9888C47.0157 87.2888 46.7151 87.5888 46.5146 87.8888C47.2161 88.4888 47.9176 89.0888 48.5188 89.6888C48.7193 89.3888 49.0199 88.9888 49.3205 88.6888C50.9239 86.6888 53.5293 83.6888 57.3373 80.8888C59.8426 78.9888 62.2476 77.6888 64.9533 76.2888C68.16 74.5888 71.5671 72.7888 74.7738 69.9888C76.4774 68.4888 77.4795 67.2888 78.0807 66.4888C78.4816 66.4888 83.3919 65.0888 84.5944 61.9888C80.586 64.4888 76.1768 64.4888 76.1768 64.4888V64.2888Z" fill="white"/>
<path d="M66.4565 82.2889C67.8595 80.4889 71.1664 76.6889 74.0725 74.0889C71.467 75.9889 64.9534 78.2889 60.6444 86.2889C59.3416 88.7889 58.2393 91.8889 57.7383 93.5889C57.8385 93.5889 58.0389 93.4889 58.1391 93.3889C59.041 92.8889 60.0431 92.2889 61.3458 91.3889C61.7467 90.3889 62.3479 89.0889 63.1496 87.5889C64.1517 85.6889 65.254 83.9889 66.5567 82.3889L66.4565 82.2889Z" fill="white"/>
<path d="M51.2245 91.6888C52.1264 92.2888 52.928 92.7888 53.5293 93.1888C56.4354 86.7888 59.4417 81.9888 59.4417 81.9888C59.2413 82.1888 55.1327 85.6888 51.1243 91.6888H51.2245Z" fill="white"/>
<path d="M46.615 77.0887C49.4209 73.9887 53.5295 71.1887 58.8406 68.5887C68.4607 63.9887 72.3689 59.3887 72.3689 52.5887C72.3689 45.7887 70.0641 43.9887 68.9618 42.8887L67.4586 45.1887C67.659 45.4887 67.9597 45.8887 68.2603 46.3887C68.9618 47.5887 69.6632 49.5887 69.6632 52.5887C69.6632 55.5887 68.8616 57.5887 67.158 59.5887C65.254 61.7887 62.1475 63.9887 57.6381 66.0887C53.8301 67.8887 48.6192 70.8887 44.5106 75.2887C42.9072 76.9887 41.5043 78.7887 40.3018 80.8887C40.903 81.6887 41.5043 82.4887 42.1055 83.2887C43.3081 80.8887 44.9114 78.8887 46.5148 76.9887L46.615 77.0887Z" fill="white"/>
<path d="M51.1244 67.1888C52.828 66.1888 54.4313 65.3888 56.1349 64.5888C60.1433 62.5888 63.9512 60.7888 66.1559 56.6888C68.2603 52.6888 66.7571 48.0888 66.3563 46.9888L64.3521 49.9888C64.6527 51.4888 64.6527 53.5888 63.7508 55.3888C62.9491 56.8888 61.8468 58.1888 60.2435 59.2888C58.7403 60.3888 56.9366 61.2888 54.9324 62.1888C53.2288 62.9888 51.5252 63.7888 49.7214 64.8888C47.5168 66.1888 45.3122 67.8888 43.308 69.6888C41.7047 71.1888 40.2015 72.7888 38.7986 74.5888C38.2975 75.1888 37.8967 75.7888 37.4958 76.3888C37.8967 77.1888 38.3977 78.0888 38.999 78.9888C40.903 76.0888 44.9114 70.8888 51.1244 67.1888Z" fill="white"/>
<path d="M45.8133 54.3887C49.1203 56.0887 54.9324 56.7887 57.9387 53.8887C63.5505 48.0887 57.5379 39.1887 49.9219 42.0887C51.8259 38.0887 55.6339 36.7887 60.1433 36.6887C64.753 36.6887 68.6612 38.7887 71.4671 42.4887C73.6717 45.4887 74.9744 49.0887 75.0746 52.7887C74.8742 65.9887 59.5421 68.9887 50.8238 76.4887C48.8196 77.8887 45.6129 81.9887 43.5085 85.1887C44.0096 85.6887 44.5106 86.2887 45.1119 86.7887C45.2121 86.8887 45.4125 86.9887 45.5127 87.1887C47.4167 83.6887 51.9261 77.5887 60.8448 73.1887C71.7677 67.9887 80.8868 59.1887 76.7782 46.9887C75.7761 44.1887 74.3731 41.5887 72.3689 39.3887C67.7593 33.8887 59.4419 31.9887 52.4272 35.8887C45.4125 39.7887 46.3144 47.1887 47.1161 49.3887C47.4167 47.6887 51.3249 41.8887 56.0347 45.4887C56.7362 46.0887 57.5379 47.0887 57.5379 48.6887C57.5379 51.5887 55.5337 53.3887 52.6276 53.2887C43.8091 53.4887 37.6963 43.8887 37.4959 35.8887L34.9907 33.3887C33.688 40.6887 38.8989 51.1887 45.9135 54.5887L45.8133 54.3887Z" fill="white"/>
</g>
<g filter="url(#filter1_d_28_262)">
<path d="M127.869 41.337H149.736L152.181 48.0996C151.273 46.2172 150.015 44.7532 148.199 43.6377C146.452 42.5222 144.566 41.9645 142.47 41.9645H139.257C138.348 41.9645 137.58 42.2434 136.951 42.8708C136.322 43.4983 135.973 44.1954 135.973 45.1018V54.3741H142.4C143.518 54.3741 144.496 54.0255 145.335 53.3283C146.173 52.6312 146.662 51.7249 146.872 50.6094V58.7662C146.732 57.7205 146.173 56.8142 145.335 56.0473C144.496 55.3501 143.518 55.0015 142.4 55.0015H135.973V67.2717C135.973 68.2477 136.252 69.0843 136.881 69.7118C137.51 70.4787 138.209 70.897 139.117 71.1061H127.869C128.777 70.897 129.546 70.4787 130.105 69.7118C130.663 69.0146 130.943 68.178 130.943 67.2717V45.1018C130.943 44.1954 130.663 43.3588 130.035 42.6617C129.476 41.8948 128.707 41.4765 127.869 41.2673V41.337Z" fill="white"/>
<path d="M165.665 70.5485C167.761 70.5485 169.647 69.9908 171.394 68.8753C173.14 67.7598 174.467 66.2958 175.376 64.4134L172.931 71.1759H151.692C152.6 71.0365 153.299 70.5485 153.928 69.7816C154.557 69.0147 154.836 68.2478 154.836 67.3415V45.1716C154.836 44.2653 154.557 43.4287 153.928 42.7315C153.369 42.0343 152.6 41.5463 151.692 41.3372H162.94C162.032 41.4766 161.263 41.9646 160.704 42.6618C160.146 43.3589 159.796 44.1955 159.796 45.1716V67.4112C159.796 68.3176 160.146 69.0147 160.774 69.6422C161.403 70.2696 162.172 70.5485 163.08 70.5485H165.665Z" fill="white"/>
<path d="M186.554 42.0342C185.646 42.0342 184.947 42.3131 184.318 42.9405C183.69 43.568 183.41 44.2652 183.41 45.1715V54.4438H189.837C190.885 54.4438 191.863 54.0952 192.702 53.3981C193.54 52.7009 194.029 51.7946 194.239 50.6791V58.836C194.029 57.7902 193.54 56.8839 192.702 56.117C191.863 55.4198 190.885 55.0713 189.837 55.0713H183.41V67.4111C183.41 68.2477 183.69 69.0146 184.318 69.5723C184.947 70.1998 185.716 70.4787 186.554 70.4787H189.907C191.933 70.4787 193.89 69.9209 195.636 68.8055C197.383 67.69 198.71 66.2259 199.618 64.3436L197.173 71.1061H175.236C176.144 70.897 176.913 70.4787 177.472 69.7118C178.031 69.0146 178.38 68.178 178.38 67.2717V45.1018C178.38 44.1954 178.1 43.3588 177.542 42.6617C176.913 41.8948 176.144 41.4765 175.306 41.2673H197.243L199.688 48.0299C198.78 46.1475 197.453 44.6835 195.706 43.568C193.959 42.4525 192.073 41.8948 189.977 41.8948H186.694L186.554 42.0342Z" fill="white"/>
<path d="M222.883 67.8991C223.931 69.7118 225.468 70.8272 227.494 71.2455H215.757C216.246 71.1061 216.665 70.897 217.014 70.4787C217.364 70.0604 217.503 69.6421 217.503 69.154C217.503 68.666 217.364 68.3872 217.154 68.0386L211.355 57.8599L204.579 68.1083C204.229 68.7357 204.229 69.3632 204.579 69.9906C204.858 70.6181 205.417 71.0364 206.046 71.1758H199.409C201.155 70.8272 202.692 69.7118 203.95 67.69L209.679 59.1845C210.587 57.8599 210.587 56.4656 209.749 55.0015L203.88 44.7532C202.832 42.8708 201.225 41.6856 199.129 41.2673H210.866C210.377 41.4068 209.958 41.6159 209.679 42.0342C209.399 42.4525 209.26 42.8708 209.26 43.3588C209.26 43.8469 209.329 44.056 209.539 44.4046L214.849 53.7466L220.158 44.4743C220.298 44.1954 220.438 43.8469 220.438 43.4983C220.438 42.9405 220.298 42.4525 219.949 42.1039C219.599 41.6856 219.18 41.4068 218.691 41.337H225.258C223.372 41.7554 221.975 42.8708 220.857 44.7532L216.386 52.3523C216.036 52.9798 215.897 53.7466 215.897 54.5832C215.897 55.4198 216.106 56.117 216.455 56.7445L222.883 67.8991Z" fill="white"/>
<path d="M254.251 56.1868H270.18C270.18 57.4417 270.18 58.4875 270.11 59.5332C270.11 60.5093 269.901 61.6247 269.691 62.7402C269.481 63.8557 269.202 64.9014 268.783 65.738C268.433 66.5746 267.944 67.481 267.316 68.3176C266.687 69.1542 265.918 69.8513 265.08 70.4091C264.242 70.9668 263.194 71.3851 261.866 71.7337C260.609 72.0823 259.212 72.2217 257.675 72.2217C256.138 72.2217 253.553 71.8731 251.736 71.1759C249.92 70.4788 248.453 69.5027 247.265 68.3176C246.077 67.1324 245.099 65.738 244.261 64.2043C243.422 62.6705 242.933 61.067 242.794 59.3241C242.584 57.6509 242.584 55.908 242.794 54.2348C242.933 52.5616 243.422 50.8884 244.191 49.3546C244.959 47.8208 245.938 46.4265 247.055 45.2413C248.173 44.0561 249.64 43.0801 251.387 42.3829C253.133 41.6857 255.09 41.3372 257.185 41.3372H266.058L268.503 48.3088C267.595 46.4265 266.338 44.8927 264.521 43.7772C262.775 42.6618 260.888 42.104 258.792 42.104H258.024C255.998 42.104 254.251 42.8012 252.714 44.2653C251.177 45.6596 250.129 47.4722 249.431 49.5637C248.732 51.725 248.383 54.0256 248.313 56.5354C248.313 59.0452 248.592 61.3459 249.221 63.5768C249.85 65.738 250.898 67.5507 252.365 69.0844C253.832 70.5485 255.579 71.3851 257.675 71.5245C261.377 71.5245 263.892 70.2696 265.359 67.7598C266.477 65.8077 266.687 63.7162 265.848 61.4853C265.08 59.3938 263.753 57.9995 261.796 57.372C261.098 57.1629 260.329 57.0234 259.561 57.0234H254.251V56.3263V56.1868Z" fill="white"/>
<path d="M283.873 70.5485C285.969 70.5485 287.855 69.9908 289.602 68.8753C291.348 67.7598 292.676 66.2958 293.584 64.4134L291.139 71.1759H269.9C270.809 71.0365 271.507 70.5485 272.136 69.7816C272.765 69.0147 273.044 68.2478 273.044 67.3415V45.1716C273.044 44.2653 272.765 43.4287 272.136 42.7315C271.577 42.0343 270.809 41.5463 269.9 41.3372H281.148C280.24 41.4766 279.472 41.9646 278.913 42.6618C278.354 43.3589 278.004 44.1955 278.004 45.1716V67.4112C278.004 68.3176 278.354 69.0147 278.983 69.6422C279.611 70.2696 280.38 70.5485 281.288 70.5485H283.873Z" fill="white"/>
<path d="M310.002 40.3611C312.936 40.3611 315.591 41.0583 318.106 42.5223C320.551 43.9166 322.507 45.8687 323.975 48.3088C325.442 50.7489 326.14 53.3981 326.14 56.3262C326.14 59.2543 325.442 61.9036 323.975 64.3437C322.507 66.7837 320.551 68.7358 318.106 70.1999C315.661 71.6639 312.936 72.3611 310.002 72.3611C307.068 72.3611 304.343 71.6639 301.898 70.1999C299.383 68.7358 297.427 66.7837 296.029 64.3437C294.562 61.9036 293.864 59.1846 293.864 56.3262C293.864 53.4678 294.562 50.8186 296.029 48.3088C297.496 45.8687 299.453 43.9166 301.898 42.5223C304.413 41.128 307.068 40.3611 310.002 40.3611ZM310.002 71.6639C316.639 71.6639 319.922 66.5746 319.922 56.3959C319.922 46.2173 316.639 40.9885 310.002 40.9885C303.365 40.9885 299.942 46.0779 299.942 56.3262C299.942 66.5746 303.295 71.6639 310.002 71.6639Z" fill="white"/>
<path d="M340.253 54.5832C341.72 54.5832 343.047 54.5832 344.235 54.8621C345.492 55.0712 346.61 55.4895 347.658 56.117C348.706 56.7444 349.544 57.581 350.103 58.6965C350.732 59.812 351.012 61.2063 351.012 62.8098C351.012 65.1802 350.103 67.2019 348.357 68.8054C346.61 70.4089 344.305 71.2455 341.51 71.2455H325.791C326.699 71.0364 327.468 70.6181 328.027 69.8512C328.586 69.154 328.935 68.3174 328.935 67.4111V45.2412C328.935 44.3348 328.655 43.4982 328.027 42.8011C327.468 42.1039 326.699 41.6159 325.791 41.4067H340.323C342.628 41.4067 344.444 41.8948 345.912 42.9405C347.379 43.9863 348.077 45.52 348.077 47.6812C348.077 49.8425 347.938 49.2847 347.658 49.9819C347.379 50.6791 347.029 51.2368 346.68 51.6551C346.331 52.0734 345.772 52.4917 345.143 52.8403C344.444 53.1889 343.886 53.4677 343.466 53.6072C343.047 53.7466 342.418 53.9558 341.72 54.1649C341.021 54.3741 340.532 54.5135 340.323 54.5832H340.253ZM337.668 42.0342C336.62 42.0342 335.781 42.3131 335.013 42.9405C334.314 43.568 333.895 44.2651 333.895 45.1714V55.0712C334.314 55.0712 334.733 54.9318 335.153 54.8621C335.572 54.7924 336.201 54.6529 336.969 54.5135C337.738 54.3043 338.436 54.0952 339.065 53.7466C339.694 53.398 340.323 52.9797 340.951 52.5614C341.58 52.0734 342.069 51.5157 342.418 50.7488C342.768 49.9819 342.977 49.215 342.977 48.3087C342.977 46.4961 342.558 45.032 341.72 43.8468C340.881 42.6616 339.624 42.1039 338.017 42.1039H337.598L337.668 42.0342ZM338.157 70.5484C340.323 70.5484 342.139 69.7815 343.676 68.2477C345.213 66.7139 345.912 64.9013 345.912 62.7401C345.912 60.5789 345.702 60.8577 345.283 60.0211C344.864 59.1845 344.375 58.5571 343.816 57.9993C343.257 57.4416 342.558 57.0233 341.72 56.605C340.881 56.1867 340.113 55.9078 339.344 55.6987C338.576 55.4895 337.807 55.3501 336.969 55.2107C336.131 55.0712 335.502 55.0015 335.083 55.0015C334.664 55.0015 334.244 55.0015 333.895 55.0015V67.3414C333.895 68.2477 334.244 69.0146 334.943 69.5723C335.642 70.1301 336.55 70.4786 337.738 70.4786H338.157V70.5484Z" fill="white"/>
<path d="M378.957 71.1758H367.709C368.547 70.9667 369.106 70.5484 369.455 69.7815C369.805 69.0843 369.805 68.2477 369.455 67.3414L367.988 63.0887H356.181L354.714 67.3414C354.435 68.2477 354.435 69.0843 354.714 69.7815C355.064 70.4787 355.622 70.9667 356.461 71.1758H349.684C350.662 70.9667 351.57 70.5484 352.409 69.7815C353.247 69.0843 353.806 68.2477 354.085 67.3414L361.77 45.2412C361.491 44.1954 360.862 43.4286 360.094 42.6617C359.255 41.9645 358.347 41.4765 357.369 41.2673H368.617C367.779 41.4765 367.15 41.8948 366.87 42.6617C366.521 43.3588 366.521 44.1954 366.87 45.1018L374.555 67.2717C374.905 68.178 375.464 69.0146 376.302 69.7118C377.14 70.4089 378.048 70.897 379.027 71.1061L378.957 71.1758ZM356.391 62.531H367.709L362.05 46.1475L356.391 62.531Z" fill="white"/>
<path d="M393.139 70.5485C395.235 70.5485 397.121 69.9908 398.868 68.8753C400.614 67.7598 401.942 66.2958 402.85 64.4134L400.405 71.1759H379.167C380.075 71.0365 380.773 70.5485 381.402 69.7816C382.031 69.0147 382.31 68.2478 382.31 67.3415V45.1716C382.31 44.2653 382.031 43.4287 381.402 42.7315C380.843 42.0343 380.075 41.5463 379.167 41.3372H390.414C389.506 41.4766 388.738 41.9646 388.179 42.6618C387.62 43.3589 387.271 44.1955 387.271 45.1716V67.4112C387.271 68.3176 387.62 69.0147 388.249 69.6422C388.877 70.2696 389.646 70.5485 390.554 70.5485H393.139Z" fill="white"/>
</g>
<defs>
<filter id="filter0_d_28_262" x="0" y="0.48877" width="111.869" height="119.745" filterUnits="userSpaceOnUse" color-interpolation-filters="sRGB">
<feFlood flood-opacity="0" result="BackgroundImageFix"/>
<feColorMatrix in="SourceAlpha" type="matrix" values="0 0 0 0 0 0 0 0 0 0 0 0 0 0 0 0 0 0 127 0" result="hardAlpha"/>
<feOffset dy="4"/>
<feGaussianBlur stdDeviation="8"/>
<feComposite in2="hardAlpha" operator="out"/>
<feColorMatrix type="matrix" values="0 0 0 0 0 0 0 0 0 0 0 0 0 0 0 0 0 0 0.16 0"/>
<feBlend mode="normal" in2="BackgroundImageFix" result="effect1_dropShadow_28_262"/>
<feBlend mode="normal" in="SourceGraphic" in2="effect1_dropShadow_28_262" result="shape"/>
</filter>
<filter id="filter1_d_28_262" x="111.869" y="28.3611" width="306.981" height="64" filterUnits="userSpaceOnUse" color-interpolation-filters="sRGB">
<feFlood flood-opacity="0" result="BackgroundImageFix"/>
<feColorMatrix in="SourceAlpha" type="matrix" values="0 0 0 0 0 0 0 0 0 0 0 0 0 0 0 0 0 0 127 0" result="hardAlpha"/>
<feOffset dy="4"/>
<feGaussianBlur stdDeviation="8"/>
<feComposite in2="hardAlpha" operator="out"/>
<feColorMatrix type="matrix" values="0 0 0 0 0 0 0 0 0 0 0 0 0 0 0 0 0 0 0.25 0"/>
<feBlend mode="normal" in2="BackgroundImageFix" result="effect1_dropShadow_28_262"/>
<feBlend mode="normal" in="SourceGraphic" in2="effect1_dropShadow_28_262" result="shape"/>
</filter>
</defs>
</svg>
