<svg width="389" height="91" viewBox="0 0 389 91" fill="none" xmlns="http://www.w3.org/2000/svg">
<path d="M48.9492 29.5889C48.9492 31.0889 47.7467 32.2889 46.2435 32.2889C44.7404 32.2889 43.5378 31.0889 43.5378 29.5889H49.0494H48.9492Z" fill="black" fill-opacity="0.16"/>
<path d="M13.5749 26.7887C12.7733 26.1887 11.8714 25.4887 10.9695 24.4887C6.86089 20.3887 4.55606 15.1887 4.25543 12.6887C4.25543 12.6887 2.35145 19.4887 9.16572 26.3887C11.1699 28.3887 13.0739 29.6887 14.076 30.2887C13.8756 29.0887 13.6752 27.8887 13.6752 26.6887L13.5749 26.7887Z" fill="black" fill-opacity="0.16"/>
<path d="M14.3766 19.4888C13.4747 18.6888 12.2722 17.4888 11.0697 15.8888C9.76696 14.1888 8.66465 12.2888 7.86298 10.2888C6.86088 7.78877 6.25962 5.18877 6.0592 2.48877C6.0592 2.48877 3.45374 10.6888 8.96528 17.5888C11.0697 20.2888 13.0739 21.8888 13.7754 22.3888C13.8756 21.3888 14.076 20.3888 14.3766 19.3888V19.4888Z" fill="black" fill-opacity="0.16"/>
<path d="M14.7776 52.6887C14.7776 52.8887 18.4854 57.1887 25.0992 57.8887C22.8946 56.4887 20.7902 54.8887 18.9864 53.0887L14.7776 52.6887Z" fill="black" fill-opacity="0.16"/>
<path d="M11.8714 42.6887C11.671 42.1887 11.3703 41.6887 11.1699 41.1887C9.86719 40.3887 7.46216 38.8887 7.46216 38.8887C7.46216 38.8887 7.76279 43.5887 11.9716 47.4887C13.9758 49.3887 16.1804 50.0887 16.7817 50.3887C14.8777 48.0887 13.1741 45.4887 11.8714 42.7887V42.6887Z" fill="black" fill-opacity="0.16"/>
<path d="M21.5918 47.6888C19.6878 45.4888 18.0845 43.0888 16.7817 40.4888C15.6794 38.1888 15.0782 36.0888 14.7775 34.7888C14.7775 34.7888 14.7775 34.6888 14.7775 34.5888L12.3725 33.0888C12.1721 32.9888 11.9717 32.8888 11.7713 32.6888C11.7713 32.8888 11.8715 33.6888 12.0719 34.7888C10.1679 33.4888 8.56454 32.0888 7.1616 30.4888C5.75866 28.7888 4.65635 26.9888 3.85468 24.9888C2.75237 22.2888 2.45174 19.8888 2.55195 18.9888C2.55195 18.9888 0.247122 25.6888 5.05719 32.0888C6.86097 34.4888 9.46643 36.4888 12.3725 38.0888L13.1742 38.5888C13.4748 39.4888 13.8757 40.4888 14.3767 41.4888C15.6794 44.3888 17.4832 46.9888 19.5876 49.3888C21.7922 51.8888 24.4979 54.0888 27.5042 55.8888C28.2057 55.2888 28.9071 54.6888 29.7088 54.0888C26.6023 52.3888 23.8966 50.1888 21.5918 47.6888Z" fill="black" fill-opacity="0.16"/>
<path d="M10.2681 50.8887C10.2681 50.8887 10.2681 50.6887 10.1679 50.5887C9.96745 50.3887 9.76703 50.1887 9.56661 49.9887C7.86304 48.3887 6.46011 46.4887 5.45801 44.3887C5.65843 45.7887 6.15948 48.6887 7.86304 51.9887C9.16577 54.4887 10.9695 56.6887 13.1742 58.3887C15.479 60.2887 18.2849 61.5887 21.4916 62.3887L21.692 62.0887C21.692 61.9887 22.2933 61.1887 23.2954 60.0887C19.9884 59.3887 17.1826 58.1887 14.8777 56.3887C12.9737 54.8887 11.4706 53.0887 10.2681 50.8887Z" fill="black" fill-opacity="0.16"/>
<path d="M70.1937 26.7887C70.9954 26.1887 71.8972 25.4887 72.7991 24.4887C76.9077 20.3887 79.2126 15.1887 79.5132 12.6887C79.5132 12.6887 81.4172 19.4887 74.6029 26.3887C72.5987 28.3887 70.6947 29.6887 69.6926 30.2887C69.893 29.0887 70.0935 27.8887 70.0935 26.6887L70.1937 26.7887Z" fill="black" fill-opacity="0.16"/>
<path d="M69.3918 19.4888C70.2937 18.6888 71.4963 17.4888 72.6988 15.8888C74.0015 14.1888 75.1038 12.2888 75.9055 10.2888C76.9076 7.78877 77.5088 5.18877 77.7093 2.48877C77.7093 2.48877 80.3147 10.6888 74.8032 17.5888C69.2916 24.4888 70.6946 21.8888 69.9931 22.3888C69.8929 21.3888 69.6925 20.3888 69.3918 19.3888V19.4888Z" fill="black" fill-opacity="0.16"/>
<path d="M71.8971 42.6887C72.0975 42.1887 72.3981 41.6887 72.5986 41.1887C73.9013 40.3887 76.3063 38.8887 76.3063 38.8887C76.3063 38.8887 76.0057 43.5887 71.7969 47.4887C69.7927 49.3887 67.5881 50.0887 66.9868 50.3887C68.8908 48.0887 70.5944 45.4887 71.8971 42.7887V42.6887Z" fill="black" fill-opacity="0.16"/>
<path d="M81.3168 18.9888C81.3168 19.8888 81.1164 22.2888 80.0141 24.9888C79.2124 26.9888 78.1101 28.7888 76.7072 30.4888C75.3042 32.0888 73.7009 33.5888 71.7969 34.7888C71.9973 33.6888 72.0975 32.9888 72.0975 32.6888C71.8971 32.8888 71.5965 32.9888 71.4963 33.0888L69.0912 34.5888C69.0912 34.5888 69.0912 34.6888 69.0912 34.7888C68.7906 36.0888 68.1893 37.9888 67.1872 40.2888C67.1872 41.0888 67.2874 41.7888 67.2874 42.4888C67.2874 43.6888 67.2874 44.8888 66.9868 45.9888C67.9889 44.5888 68.7906 43.0888 69.4921 41.5888C69.9931 40.5888 70.3939 39.5888 70.6946 38.6888L71.4963 38.1888C74.4023 36.4888 77.0078 34.5888 78.8116 32.1888C83.6216 25.7888 81.3168 19.0888 81.3168 19.0888V18.9888Z" fill="black" fill-opacity="0.16"/>
<path d="M62.4774 28.6887C62.6778 28.8887 62.778 29.1887 62.9785 29.3887C63.4795 26.2887 62.9785 23.9887 62.778 23.1887L59.9722 25.9887C60.8741 26.7887 61.6757 27.6887 62.3772 28.6887H62.4774Z" fill="black" fill-opacity="0.16"/>
<path d="M23.4957 44.7886C24.7985 46.1886 26.3016 47.3886 27.905 48.3886C29.9092 49.5886 32.0136 50.4886 34.4186 51.0886C35.8215 50.3886 37.1243 49.7886 38.3268 49.1886C34.8194 48.6886 31.8131 47.6886 29.3079 46.1886C26.4018 44.3886 23.9968 41.9886 22.0928 38.6886C20.3892 35.6886 19.1867 32.7886 18.5854 29.9886C18.0844 27.7886 17.9842 25.5886 18.2848 23.4886C18.385 22.5886 18.5854 21.8886 18.7859 21.1886L16.6815 19.0886C16.2806 20.0886 15.98 21.4886 15.6794 22.9886C15.3787 25.3886 15.4789 27.8886 15.98 30.3886C16.5812 33.4886 17.884 36.7886 19.788 39.9886C20.8903 41.8886 22.0928 43.4886 23.4957 44.8886V44.7886Z" fill="black" fill-opacity="0.16"/>
<path d="M68.0891 22.7887C67.8887 21.1887 67.4879 19.8887 67.087 18.8887L64.9826 20.9887C65.183 21.6887 65.2833 22.3887 65.4837 23.2887C65.6841 25.3887 65.5839 27.4887 65.183 29.7887C64.9826 30.4887 64.8824 31.2887 64.5818 31.9887C65.183 33.1887 65.6841 34.3887 66.0849 35.5887C66.8866 33.7887 67.3877 31.9887 67.7885 30.1887C68.2895 27.6887 68.3898 25.1887 68.0891 22.7887Z" fill="black" fill-opacity="0.16"/>
<path d="M74.2021 50.0888C74.0017 50.2888 73.8012 50.4888 73.6008 50.6888C73.6008 50.6888 73.6008 50.8888 73.5006 50.9888C72.2981 53.1888 70.7949 54.9888 68.8909 56.4888C68.1895 57.0888 67.3878 57.5888 66.5861 57.9888C65.9849 58.9888 64.7823 60.4888 62.7781 62.0888C62.5777 62.1888 62.4775 62.3888 62.2771 62.4888C65.4838 61.6888 68.2897 60.3888 70.5945 58.4888C72.7991 56.7888 74.6029 54.5888 75.9056 52.0888C77.6092 48.8888 78.2105 45.8888 78.3107 44.4888C77.3086 46.5888 75.9056 48.4888 74.2021 50.0888Z" fill="black" fill-opacity="0.16"/>
<path d="M64.5818 64.2889C62.9785 67.7889 59.872 73.6889 54.8615 78.4889C50.9533 82.2889 47.5462 84.4889 45.4418 85.6889C43.8384 86.5889 42.6359 87.0889 42.1348 87.2889C41.5336 87.0889 40.3311 86.5889 38.8279 85.6889C36.7235 84.4889 33.3164 82.2889 29.4082 78.4889C25.5 74.6889 22.6941 70.2889 21.0908 67.1889C20.5897 66.1889 20.0887 65.1889 19.6878 64.3889C18.2849 63.9889 16.9822 63.3889 15.6794 62.7889C15.9801 63.6889 16.882 65.8889 18.2849 68.4889C19.9885 71.7889 22.9948 76.5889 27.2036 80.5889C35.3206 88.3889 41.4334 90.1889 41.734 90.1889H42.1348C42.1348 90.2889 42.5357 90.1889 42.5357 90.1889C42.8363 90.1889 48.9491 88.3889 57.0661 80.5889C61.2749 76.4889 64.2812 71.6889 65.9848 68.4889C67.4879 65.5889 68.3898 63.3889 68.6904 62.5889C67.3877 63.2889 66.085 63.7889 64.6821 64.2889H64.5818Z" fill="black" fill-opacity="0.16"/>
<path d="M65.9847 17.0887L64.7822 15.0887L64.5818 14.8887C64.5818 14.8887 62.3772 13.1887 58.469 11.5887C56.1642 10.6887 53.7591 9.88867 51.3541 9.38867C48.2476 8.68867 45.0409 8.38867 41.734 8.38867C38.427 8.38867 35.2203 8.68867 32.1138 9.38867C29.6086 9.88867 27.2035 10.6887 24.9989 11.5887C21.0907 13.1887 18.9863 14.8887 18.8861 14.8887L18.5855 15.0887L17.6836 16.8887L19.788 18.9887L20.7901 16.8887C21.3914 16.4887 23.2953 15.2887 26.1012 14.0887C28.2056 13.1887 30.4102 12.4887 32.7151 11.9887C35.6212 11.3887 38.6275 11.0887 41.6337 11.0887C44.64 11.0887 47.6463 11.3887 50.5524 11.9887C52.8572 12.4887 55.0619 13.1887 57.1663 14.0887C60.1726 15.2887 61.9763 16.5887 62.5776 16.9887L63.8803 19.0887L65.8845 17.0887H65.9847Z" fill="black" fill-opacity="0.16"/>
<path d="M62.1768 54.2888C62.1768 54.2888 61.2749 55.8888 59.0703 57.7888C56.064 60.3888 52.9575 61.9888 49.7507 63.7888C47.1453 65.1888 44.4396 66.6888 41.8342 68.5888C37.7256 71.6888 34.9197 74.8888 33.2161 76.9888C33.0157 77.2888 32.7151 77.5888 32.5146 77.8888C33.2161 78.4888 33.9176 79.0888 34.5188 79.6888C34.7193 79.3888 35.0199 78.9888 35.3205 78.6888C36.9239 76.6888 39.5293 73.6888 43.3373 70.8888C45.8426 68.9888 48.2476 67.6888 50.9533 66.2888C54.16 64.5888 57.5671 62.7888 60.7738 59.9888C62.4774 58.4888 63.4795 57.2888 64.0807 56.4888C64.4816 56.4888 69.3919 55.0888 70.5944 51.9888C66.586 54.4888 62.1768 54.4888 62.1768 54.4888V54.2888Z" fill="black" fill-opacity="0.16"/>
<path d="M52.4565 72.2889C53.8595 70.4889 57.1664 66.6889 60.0725 64.0889C57.467 65.9889 50.9534 68.2889 46.6444 76.2889C45.3416 78.7889 44.2393 81.8889 43.7383 83.5889C43.8385 83.5889 44.0389 83.4889 44.1391 83.3889C45.041 82.8889 46.0431 82.2889 47.3458 81.3889C47.7467 80.3889 48.3479 79.0889 49.1496 77.5889C50.1517 75.6889 51.254 73.9889 52.5567 72.3889L52.4565 72.2889Z" fill="black" fill-opacity="0.16"/>
<path d="M37.2245 81.6888C38.1264 82.2888 38.928 82.7888 39.5293 83.1888C42.4354 76.7888 45.4417 71.9888 45.4417 71.9888C45.2413 72.1888 41.1327 75.6888 37.1243 81.6888H37.2245Z" fill="black" fill-opacity="0.16"/>
<path d="M32.615 67.0887C35.4209 63.9887 39.5295 61.1887 44.8406 58.5887C54.4607 53.9887 58.3689 49.3887 58.3689 42.5887C58.3689 35.7887 56.0641 33.9887 54.9618 32.8887L53.4586 35.1887C53.659 35.4887 53.9597 35.8887 54.2603 36.3887C54.9618 37.5887 55.6632 39.5887 55.6632 42.5887C55.6632 45.5887 54.8616 47.5887 53.158 49.5887C51.254 51.7887 48.1475 53.9887 43.6381 56.0887C39.8301 57.8887 34.6192 60.8887 30.5106 65.2887C28.9072 66.9887 27.5043 68.7887 26.3018 70.8887C26.903 71.6887 27.5043 72.4887 28.1055 73.2887C29.3081 70.8887 30.9114 68.8887 32.5148 66.9887L32.615 67.0887Z" fill="black" fill-opacity="0.16"/>
<path d="M37.1244 57.1888C38.828 56.1888 40.4313 55.3888 42.1349 54.5888C46.1433 52.5888 49.9512 50.7888 52.1559 46.6888C54.2603 42.6888 52.7571 38.0888 52.3563 36.9888L50.3521 39.9888C50.6527 41.4888 50.6527 43.5888 49.7508 45.3888C48.9491 46.8888 47.8468 48.1888 46.2435 49.2888C44.7403 50.3888 42.9366 51.2888 40.9324 52.1888C39.2288 52.9888 37.5252 53.7888 35.7214 54.8888C33.5168 56.1888 31.3122 57.8888 29.308 59.6888C27.7047 61.1888 26.2015 62.7888 24.7986 64.5888C24.2975 65.1888 23.8967 65.7888 23.4958 66.3888C23.8967 67.1888 24.3977 68.0888 24.999 68.9888C26.903 66.0888 30.9114 60.8888 37.1244 57.1888Z" fill="black" fill-opacity="0.16"/>
<path d="M31.8133 44.3887C35.1203 46.0887 40.9324 46.7887 43.9387 43.8887C49.5505 38.0887 43.5379 29.1887 35.9219 32.0887C37.8259 28.0887 41.6339 26.7887 46.1433 26.6887C50.753 26.6887 54.6612 28.7887 57.4671 32.4887C59.6717 35.4887 60.9744 39.0887 61.0746 42.7887C60.8742 55.9887 45.5421 58.9887 36.8238 66.4887C34.8196 67.8887 31.6129 71.9887 29.5085 75.1887C30.0096 75.6887 30.5106 76.2887 31.1119 76.7887C31.2121 76.8887 31.4125 76.9887 31.5127 77.1887C33.4167 73.6887 37.9261 67.5887 46.8448 63.1887C57.7677 57.9887 66.8868 49.1887 62.7782 36.9887C61.7761 34.1887 60.3731 31.5887 58.3689 29.3887C53.7593 23.8887 45.4419 21.9887 38.4272 25.8887C31.4125 29.7887 32.3144 37.1887 33.1161 39.3887C33.4167 37.6887 37.3249 31.8887 42.0347 35.4887C42.7362 36.0887 43.5379 37.0887 43.5379 38.6887C43.5379 41.5887 41.5337 43.3887 38.6276 43.2887C29.8091 43.4887 23.6963 33.8887 23.4959 25.8887L20.9907 23.3887C19.688 30.6887 24.8989 41.1887 31.9135 44.5887L31.8133 44.3887Z" fill="black" fill-opacity="0.16"/>
<path d="M113.869 31.337H135.736L138.181 38.0996C137.273 36.2172 136.015 34.7532 134.199 33.6377C132.452 32.5222 130.566 31.9645 128.47 31.9645H125.257C124.348 31.9645 123.58 32.2434 122.951 32.8708C122.322 33.4983 121.973 34.1954 121.973 35.1018V44.3741H128.4C129.518 44.3741 130.496 44.0255 131.335 43.3283C132.173 42.6312 132.662 41.7249 132.872 40.6094V48.7662C132.732 47.7205 132.173 46.8142 131.335 46.0473C130.496 45.3501 129.518 45.0015 128.4 45.0015H121.973V57.2717C121.973 58.2477 122.252 59.0843 122.881 59.7118C123.51 60.4787 124.209 60.897 125.117 61.1061H113.869C114.777 60.897 115.546 60.4787 116.105 59.7118C116.663 59.0146 116.943 58.178 116.943 57.2717V35.1018C116.943 34.1954 116.663 33.3588 116.035 32.6617C115.476 31.8948 114.707 31.4765 113.869 31.2673V31.337Z" fill="black" fill-opacity="0.16"/>
<path d="M151.665 60.5485C153.761 60.5485 155.647 59.9908 157.394 58.8753C159.14 57.7598 160.467 56.2958 161.376 54.4134L158.931 61.1759H137.692C138.6 61.0365 139.299 60.5485 139.928 59.7816C140.557 59.0147 140.836 58.2478 140.836 57.3415V35.1716C140.836 34.2653 140.557 33.4287 139.928 32.7315C139.369 32.0343 138.6 31.5463 137.692 31.3372H148.94C148.032 31.4766 147.263 31.9646 146.704 32.6618C146.146 33.3589 145.796 34.1955 145.796 35.1716V57.4112C145.796 58.3176 146.146 59.0147 146.774 59.6422C147.403 60.2696 148.172 60.5485 149.08 60.5485H151.665Z" fill="black" fill-opacity="0.16"/>
<path d="M172.554 32.0342C171.646 32.0342 170.947 32.3131 170.318 32.9405C169.69 33.568 169.41 34.2652 169.41 35.1715V44.4438H175.837C176.885 44.4438 177.863 44.0952 178.702 43.3981C179.54 42.7009 180.029 41.7946 180.239 40.6791V48.836C180.029 47.7902 179.54 46.8839 178.702 46.117C177.863 45.4198 176.885 45.0713 175.837 45.0713H169.41V57.4111C169.41 58.2477 169.69 59.0146 170.318 59.5723C170.947 60.1998 171.716 60.4787 172.554 60.4787H175.907C177.933 60.4787 179.89 59.9209 181.636 58.8055C183.383 57.69 184.71 56.2259 185.618 54.3436L183.173 61.1061H161.236C162.144 60.897 162.913 60.4787 163.472 59.7118C164.031 59.0146 164.38 58.178 164.38 57.2717V35.1018C164.38 34.1954 164.1 33.3588 163.542 32.6617C162.913 31.8948 162.144 31.4765 161.306 31.2673H183.243L185.688 38.0299C184.78 36.1475 183.453 34.6835 181.706 33.568C179.959 32.4525 178.073 31.8948 175.977 31.8948H172.694L172.554 32.0342Z" fill="black" fill-opacity="0.16"/>
<path d="M208.883 57.8991C209.931 59.7118 211.468 60.8272 213.494 61.2455H201.757C202.246 61.1061 202.665 60.897 203.014 60.4787C203.364 60.0604 203.503 59.6421 203.503 59.154C203.503 58.666 203.364 58.3872 203.154 58.0386L197.355 47.8599L190.579 58.1083C190.229 58.7357 190.229 59.3632 190.579 59.9906C190.858 60.6181 191.417 61.0364 192.046 61.1758H185.409C187.155 60.8272 188.692 59.7118 189.95 57.69L195.679 49.1845C196.587 47.8599 196.587 46.4656 195.749 45.0015L189.88 34.7532C188.832 32.8708 187.225 31.6856 185.129 31.2673H196.866C196.377 31.4068 195.958 31.6159 195.679 32.0342C195.399 32.4525 195.26 32.8708 195.26 33.3588C195.26 33.8469 195.329 34.056 195.539 34.4046L200.849 43.7466L206.158 34.4743C206.298 34.1954 206.438 33.8469 206.438 33.4983C206.438 32.9405 206.298 32.4525 205.949 32.1039C205.599 31.6856 205.18 31.4068 204.691 31.337H211.258C209.372 31.7554 207.975 32.8708 206.857 34.7532L202.386 42.3523C202.036 42.9798 201.897 43.7466 201.897 44.5832C201.897 45.4198 202.106 46.117 202.455 46.7445L208.883 57.8991Z" fill="black" fill-opacity="0.16"/>
<path d="M240.251 46.1868H256.18C256.18 47.4417 256.18 48.4875 256.11 49.5332C256.11 50.5093 255.901 51.6247 255.691 52.7402C255.481 53.8557 255.202 54.9014 254.783 55.738C254.433 56.5746 253.944 57.481 253.316 58.3176C252.687 59.1542 251.918 59.8513 251.08 60.4091C250.242 60.9668 249.194 61.3851 247.866 61.7337C246.609 62.0823 245.212 62.2217 243.675 62.2217C242.138 62.2217 239.553 61.8731 237.736 61.1759C235.92 60.4788 234.453 59.5027 233.265 58.3176C232.077 57.1324 231.099 55.738 230.261 54.2043C229.422 52.6705 228.933 51.067 228.794 49.3241C228.584 47.6509 228.584 45.908 228.794 44.2348C228.933 42.5616 229.422 40.8884 230.191 39.3546C230.959 37.8208 231.938 36.4265 233.055 35.2413C234.173 34.0561 235.64 33.0801 237.387 32.3829C239.133 31.6857 241.09 31.3372 243.185 31.3372H252.058L254.503 38.3088C253.595 36.4265 252.338 34.8927 250.521 33.7772C248.775 32.6618 246.888 32.104 244.792 32.104H244.024C241.998 32.104 240.251 32.8012 238.714 34.2653C237.177 35.6596 236.129 37.4722 235.431 39.5637C234.732 41.725 234.383 44.0256 234.313 46.5354C234.313 49.0452 234.592 51.3459 235.221 53.5768C235.85 55.738 236.898 57.5507 238.365 59.0844C239.832 60.5485 241.579 61.3851 243.675 61.5245C247.377 61.5245 249.892 60.2696 251.359 57.7598C252.477 55.8077 252.687 53.7162 251.848 51.4853C251.08 49.3938 249.753 47.9995 247.796 47.372C247.098 47.1629 246.329 47.0234 245.561 47.0234H240.251V46.3263V46.1868Z" fill="black" fill-opacity="0.16"/>
<path d="M269.873 60.5485C271.969 60.5485 273.855 59.9908 275.602 58.8753C277.348 57.7598 278.676 56.2958 279.584 54.4134L277.139 61.1759H255.9C256.809 61.0365 257.507 60.5485 258.136 59.7816C258.765 59.0147 259.044 58.2478 259.044 57.3415V35.1716C259.044 34.2653 258.765 33.4287 258.136 32.7315C257.577 32.0343 256.809 31.5463 255.9 31.3372H267.148C266.24 31.4766 265.472 31.9646 264.913 32.6618C264.354 33.3589 264.004 34.1955 264.004 35.1716V57.4112C264.004 58.3176 264.354 59.0147 264.983 59.6422C265.611 60.2696 266.38 60.5485 267.288 60.5485H269.873Z" fill="black" fill-opacity="0.16"/>
<path d="M296.002 30.3611C298.936 30.3611 301.591 31.0583 304.106 32.5223C306.551 33.9166 308.507 35.8687 309.975 38.3088C311.442 40.7489 312.14 43.3981 312.14 46.3262C312.14 49.2543 311.442 51.9036 309.975 54.3437C308.507 56.7837 306.551 58.7358 304.106 60.1999C301.661 61.6639 298.936 62.3611 296.002 62.3611C293.068 62.3611 290.343 61.6639 287.898 60.1999C285.383 58.7358 283.427 56.7837 282.029 54.3437C280.562 51.9036 279.864 49.1846 279.864 46.3262C279.864 43.4678 280.562 40.8186 282.029 38.3088C283.496 35.8687 285.453 33.9166 287.898 32.5223C290.413 31.128 293.068 30.3611 296.002 30.3611ZM296.002 61.6639C302.639 61.6639 305.922 56.5746 305.922 46.3959C305.922 36.2173 302.639 30.9885 296.002 30.9885C289.365 30.9885 285.942 36.0779 285.942 46.3262C285.942 56.5746 289.295 61.6639 296.002 61.6639Z" fill="black" fill-opacity="0.16"/>
<path d="M326.253 44.5832C327.72 44.5832 329.047 44.5832 330.235 44.8621C331.492 45.0712 332.61 45.4895 333.658 46.117C334.706 46.7444 335.544 47.581 336.103 48.6965C336.732 49.812 337.012 51.2063 337.012 52.8098C337.012 55.1802 336.103 57.2019 334.357 58.8054C332.61 60.4089 330.305 61.2455 327.51 61.2455H311.791C312.699 61.0364 313.468 60.6181 314.027 59.8512C314.586 59.154 314.935 58.3174 314.935 57.4111V35.2412C314.935 34.3348 314.655 33.4982 314.027 32.8011C313.468 32.1039 312.699 31.6159 311.791 31.4067H326.323C328.628 31.4067 330.444 31.8948 331.912 32.9405C333.379 33.9863 334.077 35.52 334.077 37.6812C334.077 39.8425 333.938 39.2847 333.658 39.9819C333.379 40.6791 333.029 41.2368 332.68 41.6551C332.331 42.0734 331.772 42.4917 331.143 42.8403C330.444 43.1889 329.886 43.4677 329.466 43.6072C329.047 43.7466 328.418 43.9558 327.72 44.1649C327.021 44.3741 326.532 44.5135 326.323 44.5832H326.253ZM323.668 32.0342C322.62 32.0342 321.781 32.3131 321.013 32.9405C320.314 33.568 319.895 34.2651 319.895 35.1714V45.0712C320.314 45.0712 320.733 44.9318 321.153 44.8621C321.572 44.7924 322.201 44.6529 322.969 44.5135C323.738 44.3043 324.436 44.0952 325.065 43.7466C325.694 43.398 326.323 42.9797 326.951 42.5614C327.58 42.0734 328.069 41.5157 328.418 40.7488C328.768 39.9819 328.977 39.215 328.977 38.3087C328.977 36.4961 328.558 35.032 327.72 33.8468C326.881 32.6616 325.624 32.1039 324.017 32.1039H323.598L323.668 32.0342ZM324.157 60.5484C326.323 60.5484 328.139 59.7815 329.676 58.2477C331.213 56.7139 331.912 54.9013 331.912 52.7401C331.912 50.5789 331.702 50.8577 331.283 50.0211C330.864 49.1845 330.375 48.5571 329.816 47.9993C329.257 47.4416 328.558 47.0233 327.72 46.605C326.881 46.1867 326.113 45.9078 325.344 45.6987C324.576 45.4895 323.807 45.3501 322.969 45.2107C322.131 45.0712 321.502 45.0015 321.083 45.0015C320.664 45.0015 320.244 45.0015 319.895 45.0015V57.3414C319.895 58.2477 320.244 59.0146 320.943 59.5723C321.642 60.1301 322.55 60.4786 323.738 60.4786H324.157V60.5484Z" fill="black" fill-opacity="0.16"/>
<path d="M364.957 61.1758H353.709C354.547 60.9667 355.106 60.5484 355.455 59.7815C355.805 59.0843 355.805 58.2477 355.455 57.3414L353.988 53.0887H342.181L340.714 57.3414C340.435 58.2477 340.435 59.0843 340.714 59.7815C341.064 60.4787 341.622 60.9667 342.461 61.1758H335.684C336.662 60.9667 337.57 60.5484 338.409 59.7815C339.247 59.0843 339.806 58.2477 340.085 57.3414L347.77 35.2412C347.491 34.1954 346.862 33.4286 346.094 32.6617C345.255 31.9645 344.347 31.4765 343.369 31.2673H354.617C353.779 31.4765 353.15 31.8948 352.87 32.6617C352.521 33.3588 352.521 34.1954 352.87 35.1018L360.555 57.2717C360.905 58.178 361.464 59.0146 362.302 59.7118C363.14 60.4089 364.048 60.897 365.027 61.1061L364.957 61.1758ZM342.391 52.531H353.709L348.05 36.1475L342.391 52.531Z" fill="black" fill-opacity="0.16"/>
<path d="M379.139 60.5485C381.235 60.5485 383.121 59.9908 384.868 58.8753C386.614 57.7598 387.942 56.2958 388.85 54.4134L386.405 61.1759H365.167C366.075 61.0365 366.773 60.5485 367.402 59.7816C368.031 59.0147 368.31 58.2478 368.31 57.3415V35.1716C368.31 34.2653 368.031 33.4287 367.402 32.7315C366.843 32.0343 366.075 31.5463 365.167 31.3372H376.414C375.506 31.4766 374.738 31.9646 374.179 32.6618C373.62 33.3589 373.271 34.1955 373.271 35.1716V57.4112C373.271 58.3176 373.62 59.0147 374.249 59.6422C374.877 60.2696 375.646 60.5485 376.554 60.5485H379.139Z" fill="black" fill-opacity="0.16"/>
<path d="M46.9492 27.5889C46.9492 29.0889 45.7467 30.2889 44.2435 30.2889C42.7404 30.2889 41.5378 29.0889 41.5378 27.5889H47.0494H46.9492Z" fill="white"/>
<path d="M11.5749 24.7887C10.7733 24.1887 9.87138 23.4887 8.96949 22.4887C4.86089 18.3887 2.55606 13.1887 2.25543 10.6887C2.25543 10.6887 0.351447 17.4887 7.16572 24.3887C9.16991 26.3887 11.0739 27.6887 12.076 28.2887C11.8756 27.0887 11.6752 25.8887 11.6752 24.6887L11.5749 24.7887Z" fill="white"/>
<path d="M12.3766 17.4888C11.4747 16.6888 10.2722 15.4888 9.06969 13.8888C7.76696 12.1888 6.66465 10.2888 5.86298 8.28877C4.86088 5.78877 4.25962 3.18877 4.0592 0.48877C4.0592 0.48877 1.45374 8.68877 6.96528 15.5888C9.06969 18.2888 11.0739 19.8888 11.7754 20.3888C11.8756 19.3888 12.076 18.3888 12.3766 17.3888V17.4888Z" fill="white"/>
<path d="M12.7776 50.6887C12.7776 50.8887 16.4854 55.1887 23.0992 55.8887C20.8946 54.4887 18.7902 52.8887 16.9864 51.0887L12.7776 50.6887Z" fill="white"/>
<path d="M9.87139 40.6887C9.67097 40.1887 9.37034 39.6887 9.16992 39.1887C7.86719 38.3887 5.46216 36.8887 5.46216 36.8887C5.46216 36.8887 5.76279 41.5887 9.9716 45.4887C11.9758 47.3887 14.1804 48.0887 14.7817 48.3887C12.8777 46.0887 11.1741 43.4887 9.87139 40.7887V40.6887Z" fill="white"/>
<path d="M19.5918 45.6888C17.6878 43.4888 16.0845 41.0888 14.7817 38.4888C13.6794 36.1888 13.0782 34.0888 12.7775 32.7888C12.7775 32.7888 12.7775 32.6888 12.7775 32.5888L10.3725 31.0888C10.1721 30.9888 9.97167 30.8888 9.77125 30.6888C9.77125 30.8888 9.87146 31.6888 10.0719 32.7888C8.1679 31.4888 6.56454 30.0888 5.1616 28.4888C3.75866 26.7888 2.65635 24.9888 1.85468 22.9888C0.752367 20.2888 0.451738 17.8888 0.551948 16.9888C0.551948 16.9888 -1.75288 23.6888 3.05719 30.0888C4.86097 32.4888 7.46643 34.4888 10.3725 36.0888L11.1742 36.5888C11.4748 37.4888 11.8757 38.4888 12.3767 39.4888C13.6794 42.3888 15.4832 44.9888 17.5876 47.3888C19.7922 49.8888 22.4979 52.0888 25.5042 53.8888C26.2057 53.2888 26.9071 52.6888 27.7088 52.0888C24.6023 50.3888 21.8966 48.1888 19.5918 45.6888Z" fill="white"/>
<path d="M8.26808 48.8887C8.26808 48.8887 8.26808 48.6887 8.16787 48.5887C7.96745 48.3887 7.76703 48.1887 7.56661 47.9887C5.86304 46.3887 4.46011 44.4887 3.45801 42.3887C3.65843 43.7887 4.15948 46.6887 5.86304 49.9887C7.16577 52.4887 8.96955 54.6887 11.1742 56.3887C13.479 58.2887 16.2849 59.5887 19.4916 60.3887L19.692 60.0887C19.692 59.9887 20.2933 59.1887 21.2954 58.0887C17.9884 57.3887 15.1826 56.1887 12.8777 54.3887C10.9737 52.8887 9.4706 51.0887 8.26808 48.8887Z" fill="white"/>
<path d="M68.1937 24.7887C68.9954 24.1887 69.8972 23.4887 70.7991 22.4887C74.9077 18.3887 77.2126 13.1887 77.5132 10.6887C77.5132 10.6887 79.4172 17.4887 72.6029 24.3887C70.5987 26.3887 68.6947 27.6887 67.6926 28.2887C67.893 27.0887 68.0935 25.8887 68.0935 24.6887L68.1937 24.7887Z" fill="white"/>
<path d="M67.3918 17.4888C68.2937 16.6888 69.4963 15.4888 70.6988 13.8888C72.0015 12.1888 73.1038 10.2888 73.9055 8.28877C74.9076 5.78877 75.5088 3.18877 75.7093 0.48877C75.7093 0.48877 78.3147 8.68877 72.8032 15.5888C67.2916 22.4888 68.6946 19.8888 67.9931 20.3888C67.8929 19.3888 67.6925 18.3888 67.3918 17.3888V17.4888Z" fill="white"/>
<path d="M69.8971 40.6887C70.0975 40.1887 70.3981 39.6887 70.5986 39.1887C71.9013 38.3887 74.3063 36.8887 74.3063 36.8887C74.3063 36.8887 74.0057 41.5887 69.7969 45.4887C67.7927 47.3887 65.5881 48.0887 64.9868 48.3887C66.8908 46.0887 68.5944 43.4887 69.8971 40.7887V40.6887Z" fill="white"/>
<path d="M79.3168 16.9888C79.3168 17.8888 79.1164 20.2888 78.0141 22.9888C77.2124 24.9888 76.1101 26.7888 74.7072 28.4888C73.3042 30.0888 71.7009 31.5888 69.7969 32.7888C69.9973 31.6888 70.0975 30.9888 70.0975 30.6888C69.8971 30.8888 69.5965 30.9888 69.4963 31.0888L67.0912 32.5888C67.0912 32.5888 67.0912 32.6888 67.0912 32.7888C66.7906 34.0888 66.1893 35.9888 65.1872 38.2888C65.1872 39.0888 65.2874 39.7888 65.2874 40.4888C65.2874 41.6888 65.2874 42.8888 64.9868 43.9888C65.9889 42.5888 66.7906 41.0888 67.4921 39.5888C67.9931 38.5888 68.3939 37.5888 68.6946 36.6888L69.4963 36.1888C72.4023 34.4888 75.0078 32.5888 76.8116 30.1888C81.6216 23.7888 79.3168 17.0888 79.3168 17.0888V16.9888Z" fill="white"/>
<path d="M60.4774 26.6887C60.6778 26.8887 60.778 27.1887 60.9785 27.3887C61.4795 24.2887 60.9785 21.9887 60.778 21.1887L57.9722 23.9887C58.8741 24.7887 59.6757 25.6887 60.3772 26.6887H60.4774Z" fill="white"/>
<path d="M21.4957 42.7886C22.7985 44.1886 24.3016 45.3886 25.905 46.3886C27.9092 47.5886 30.0136 48.4886 32.4186 49.0886C33.8215 48.3886 35.1243 47.7886 36.3268 47.1886C32.8194 46.6886 29.8131 45.6886 27.3079 44.1886C24.4018 42.3886 21.9968 39.9886 20.0928 36.6886C18.3892 33.6886 17.1867 30.7886 16.5854 27.9886C16.0844 25.7886 15.9842 23.5886 16.2848 21.4886C16.385 20.5886 16.5854 19.8886 16.7859 19.1886L14.6815 17.0886C14.2806 18.0886 13.98 19.4886 13.6794 20.9886C13.3787 23.3886 13.4789 25.8886 13.98 28.3886C14.5812 31.4886 15.884 34.7886 17.788 37.9886C18.8903 39.8886 20.0928 41.4886 21.4957 42.8886V42.7886Z" fill="white"/>
<path d="M66.0891 20.7887C65.8887 19.1887 65.4879 17.8887 65.087 16.8887L62.9826 18.9887C63.183 19.6887 63.2833 20.3887 63.4837 21.2887C63.6841 23.3887 63.5839 25.4887 63.183 27.7887C62.9826 28.4887 62.8824 29.2887 62.5818 29.9887C63.183 31.1887 63.6841 32.3887 64.0849 33.5887C64.8866 31.7887 65.3877 29.9887 65.7885 28.1887C66.2895 25.6887 66.3898 23.1887 66.0891 20.7887Z" fill="white"/>
<path d="M72.2021 48.0888C72.0017 48.2888 71.8012 48.4888 71.6008 48.6888C71.6008 48.6888 71.6008 48.8888 71.5006 48.9888C70.2981 51.1888 68.7949 52.9888 66.8909 54.4888C66.1895 55.0888 65.3878 55.5888 64.5861 55.9888C63.9849 56.9888 62.7823 58.4888 60.7781 60.0888C60.5777 60.1888 60.4775 60.3888 60.2771 60.4888C63.4838 59.6888 66.2897 58.3888 68.5945 56.4888C70.7991 54.7888 72.6029 52.5888 73.9056 50.0888C75.6092 46.8888 76.2105 43.8888 76.3107 42.4888C75.3086 44.5888 73.9056 46.4888 72.2021 48.0888Z" fill="white"/>
<path d="M62.5818 62.2889C60.9785 65.7889 57.872 71.6889 52.8615 76.4889C48.9533 80.2889 45.5462 82.4889 43.4418 83.6889C41.8384 84.5889 40.6359 85.0889 40.1348 85.2889C39.5336 85.0889 38.3311 84.5889 36.8279 83.6889C34.7235 82.4889 31.3164 80.2889 27.4082 76.4889C23.5 72.6889 20.6941 68.2889 19.0908 65.1889C18.5897 64.1889 18.0887 63.1889 17.6878 62.3889C16.2849 61.9889 14.9822 61.3889 13.6794 60.7889C13.9801 61.6889 14.882 63.8889 16.2849 66.4889C17.9885 69.7889 20.9948 74.5889 25.2036 78.5889C33.3206 86.3889 39.4334 88.1889 39.734 88.1889H40.1348C40.1348 88.2889 40.5357 88.1889 40.5357 88.1889C40.8363 88.1889 46.9491 86.3889 55.0661 78.5889C59.2749 74.4889 62.2812 69.6889 63.9848 66.4889C65.4879 63.5889 66.3898 61.3889 66.6904 60.5889C65.3877 61.2889 64.085 61.7889 62.6821 62.2889H62.5818Z" fill="#BC9B5F"/>
<path d="M63.9847 15.0887L62.7822 13.0887L62.5818 12.8887C62.5818 12.8887 60.3772 11.1887 56.469 9.58867C54.1642 8.68867 51.7591 7.88867 49.3541 7.38867C46.2476 6.68867 43.0409 6.38867 39.734 6.38867C36.427 6.38867 33.2203 6.68867 30.1138 7.38867C27.6086 7.88867 25.2035 8.68867 22.9989 9.58867C19.0907 11.1887 16.9863 12.8887 16.8861 12.8887L16.5855 13.0887L15.6836 14.8887L17.788 16.9887L18.7901 14.8887C19.3914 14.4887 21.2953 13.2887 24.1012 12.0887C26.2056 11.1887 28.4102 10.4887 30.7151 9.98867C33.6212 9.38867 36.6275 9.08867 39.6337 9.08867C42.64 9.08867 45.6463 9.38867 48.5524 9.98867C50.8572 10.4887 53.0619 11.1887 55.1663 12.0887C58.1726 13.2887 59.9763 14.5887 60.5776 14.9887L61.8803 17.0887L63.8845 15.0887H63.9847Z" fill="#BC9B5F"/>
<path d="M60.1768 52.2888C60.1768 52.2888 59.2749 53.8888 57.0703 55.7888C54.064 58.3888 50.9575 59.9888 47.7507 61.7888C45.1453 63.1888 42.4396 64.6888 39.8342 66.5888C35.7256 69.6888 32.9197 72.8888 31.2161 74.9888C31.0157 75.2888 30.7151 75.5888 30.5146 75.8888C31.2161 76.4888 31.9176 77.0888 32.5188 77.6888C32.7193 77.3888 33.0199 76.9888 33.3205 76.6888C34.9239 74.6888 37.5293 71.6888 41.3373 68.8888C43.8426 66.9888 46.2476 65.6888 48.9533 64.2888C52.16 62.5888 55.5671 60.7888 58.7738 57.9888C60.4774 56.4888 61.4795 55.2888 62.0807 54.4888C62.4816 54.4888 67.3919 53.0888 68.5944 49.9888C64.586 52.4888 60.1768 52.4888 60.1768 52.4888V52.2888Z" fill="white"/>
<path d="M50.4565 70.2889C51.8595 68.4889 55.1664 64.6889 58.0725 62.0889C55.467 63.9889 48.9534 66.2889 44.6444 74.2889C43.3416 76.7889 42.2393 79.8889 41.7383 81.5889C41.8385 81.5889 42.0389 81.4889 42.1391 81.3889C43.041 80.8889 44.0431 80.2889 45.3458 79.3889C45.7467 78.3889 46.3479 77.0889 47.1496 75.5889C48.1517 73.6889 49.254 71.9889 50.5567 70.3889L50.4565 70.2889Z" fill="white"/>
<path d="M35.2245 79.6888C36.1264 80.2888 36.928 80.7888 37.5293 81.1888C40.4354 74.7888 43.4417 69.9888 43.4417 69.9888C43.2413 70.1888 39.1327 73.6888 35.1243 79.6888H35.2245Z" fill="white"/>
<path d="M30.615 65.0887C33.4209 61.9887 37.5295 59.1887 42.8406 56.5887C52.4607 51.9887 56.3689 47.3887 56.3689 40.5887C56.3689 33.7887 54.0641 31.9887 52.9618 30.8887L51.4586 33.1887C51.659 33.4887 51.9597 33.8887 52.2603 34.3887C52.9618 35.5887 53.6632 37.5887 53.6632 40.5887C53.6632 43.5887 52.8616 45.5887 51.158 47.5887C49.254 49.7887 46.1475 51.9887 41.6381 54.0887C37.8301 55.8887 32.6192 58.8887 28.5106 63.2887C26.9072 64.9887 25.5043 66.7887 24.3018 68.8887C24.903 69.6887 25.5043 70.4887 26.1055 71.2887C27.3081 68.8887 28.9114 66.8887 30.5148 64.9887L30.615 65.0887Z" fill="white"/>
<path d="M35.1244 55.1888C36.828 54.1888 38.4313 53.3888 40.1349 52.5888C44.1433 50.5888 47.9512 48.7888 50.1559 44.6888C52.2603 40.6888 50.7571 36.0888 50.3563 34.9888L48.3521 37.9888C48.6527 39.4888 48.6527 41.5888 47.7508 43.3888C46.9491 44.8888 45.8468 46.1888 44.2435 47.2888C42.7403 48.3888 40.9366 49.2888 38.9324 50.1888C37.2288 50.9888 35.5252 51.7888 33.7214 52.8888C31.5168 54.1888 29.3122 55.8888 27.308 57.6888C25.7047 59.1888 24.2015 60.7888 22.7986 62.5888C22.2975 63.1888 21.8967 63.7888 21.4958 64.3888C21.8967 65.1888 22.3977 66.0888 22.999 66.9888C24.903 64.0888 28.9114 58.8888 35.1244 55.1888Z" fill="white"/>
<path d="M29.8133 42.3887C33.1203 44.0887 38.9324 44.7887 41.9387 41.8887C47.5505 36.0887 41.5379 27.1887 33.9219 30.0887C35.8259 26.0887 39.6339 24.7887 44.1433 24.6887C48.753 24.6887 52.6612 26.7887 55.4671 30.4887C57.6717 33.4887 58.9744 37.0887 59.0746 40.7887C58.8742 53.9887 43.5421 56.9887 34.8238 64.4887C32.8196 65.8887 29.6129 69.9887 27.5085 73.1887C28.0096 73.6887 28.5106 74.2887 29.1119 74.7887C29.2121 74.8887 29.4125 74.9887 29.5127 75.1887C31.4167 71.6887 35.9261 65.5887 44.8448 61.1887C55.7677 55.9887 64.8868 47.1887 60.7782 34.9887C59.7761 32.1887 58.3731 29.5887 56.3689 27.3887C51.7593 21.8887 43.4419 19.9887 36.4272 23.8887C29.4125 27.7887 30.3144 35.1887 31.1161 37.3887C31.4167 35.6887 35.3249 29.8887 40.0347 33.4887C40.7362 34.0887 41.5379 35.0887 41.5379 36.6887C41.5379 39.5887 39.5337 41.3887 36.6276 41.2887C27.8091 41.4887 21.6963 31.8887 21.4959 23.8887L18.9907 21.3887C17.688 28.6887 22.8989 39.1887 29.9135 42.5887L29.8133 42.3887Z" fill="white"/>
<path d="M111.869 29.337H133.736L136.181 36.0996C135.273 34.2172 134.015 32.7532 132.199 31.6377C130.452 30.5222 128.566 29.9645 126.47 29.9645H123.257C122.348 29.9645 121.58 30.2434 120.951 30.8708C120.322 31.4983 119.973 32.1954 119.973 33.1018V42.3741H126.4C127.518 42.3741 128.496 42.0255 129.335 41.3283C130.173 40.6312 130.662 39.7249 130.872 38.6094V46.7662C130.732 45.7205 130.173 44.8142 129.335 44.0473C128.496 43.3501 127.518 43.0015 126.4 43.0015H119.973V55.2717C119.973 56.2477 120.252 57.0843 120.881 57.7118C121.51 58.4787 122.209 58.897 123.117 59.1061H111.869C112.777 58.897 113.546 58.4787 114.105 57.7118C114.663 57.0146 114.943 56.178 114.943 55.2717V33.1018C114.943 32.1954 114.663 31.3588 114.035 30.6617C113.476 29.8948 112.707 29.4765 111.869 29.2673V29.337Z" fill="white"/>
<path d="M149.665 58.5485C151.761 58.5485 153.647 57.9908 155.394 56.8753C157.14 55.7598 158.467 54.2958 159.376 52.4134L156.931 59.1759H135.692C136.6 59.0365 137.299 58.5485 137.928 57.7816C138.557 57.0147 138.836 56.2478 138.836 55.3415V33.1716C138.836 32.2653 138.557 31.4287 137.928 30.7315C137.369 30.0343 136.6 29.5463 135.692 29.3372H146.94C146.032 29.4766 145.263 29.9646 144.704 30.6618C144.146 31.3589 143.796 32.1955 143.796 33.1716V55.4112C143.796 56.3176 144.146 57.0147 144.774 57.6422C145.403 58.2696 146.172 58.5485 147.08 58.5485H149.665Z" fill="white"/>
<path d="M170.554 30.0342C169.646 30.0342 168.947 30.3131 168.318 30.9405C167.69 31.568 167.41 32.2652 167.41 33.1715V42.4438H173.837C174.885 42.4438 175.863 42.0952 176.702 41.3981C177.54 40.7009 178.029 39.7946 178.239 38.6791V46.836C178.029 45.7902 177.54 44.8839 176.702 44.117C175.863 43.4198 174.885 43.0713 173.837 43.0713H167.41V55.4111C167.41 56.2477 167.69 57.0146 168.318 57.5723C168.947 58.1998 169.716 58.4787 170.554 58.4787H173.907C175.933 58.4787 177.89 57.9209 179.636 56.8055C181.383 55.69 182.71 54.2259 183.618 52.3436L181.173 59.1061H159.236C160.144 58.897 160.913 58.4787 161.472 57.7118C162.031 57.0146 162.38 56.178 162.38 55.2717V33.1018C162.38 32.1954 162.1 31.3588 161.542 30.6617C160.913 29.8948 160.144 29.4765 159.306 29.2673H181.243L183.688 36.0299C182.78 34.1475 181.453 32.6835 179.706 31.568C177.959 30.4525 176.073 29.8948 173.977 29.8948H170.694L170.554 30.0342Z" fill="white"/>
<path d="M206.883 55.8991C207.931 57.7118 209.468 58.8272 211.494 59.2455H199.757C200.246 59.1061 200.665 58.897 201.014 58.4787C201.364 58.0604 201.503 57.6421 201.503 57.154C201.503 56.666 201.364 56.3872 201.154 56.0386L195.355 45.8599L188.579 56.1083C188.229 56.7357 188.229 57.3632 188.579 57.9906C188.858 58.6181 189.417 59.0364 190.046 59.1758H183.409C185.155 58.8272 186.692 57.7118 187.95 55.69L193.679 47.1845C194.587 45.8599 194.587 44.4656 193.749 43.0015L187.88 32.7532C186.832 30.8708 185.225 29.6856 183.129 29.2673H194.866C194.377 29.4068 193.958 29.6159 193.679 30.0342C193.399 30.4525 193.26 30.8708 193.26 31.3588C193.26 31.8469 193.329 32.056 193.539 32.4046L198.849 41.7466L204.158 32.4743C204.298 32.1954 204.438 31.8469 204.438 31.4983C204.438 30.9405 204.298 30.4525 203.949 30.1039C203.599 29.6856 203.18 29.4068 202.691 29.337H209.258C207.372 29.7554 205.975 30.8708 204.857 32.7532L200.386 40.3523C200.036 40.9798 199.897 41.7466 199.897 42.5832C199.897 43.4198 200.106 44.117 200.455 44.7445L206.883 55.8991Z" fill="white"/>
<path d="M238.251 44.1868H254.18C254.18 45.4417 254.18 46.4875 254.11 47.5332C254.11 48.5093 253.901 49.6247 253.691 50.7402C253.481 51.8557 253.202 52.9014 252.783 53.738C252.433 54.5746 251.944 55.481 251.316 56.3176C250.687 57.1542 249.918 57.8513 249.08 58.4091C248.242 58.9668 247.194 59.3851 245.866 59.7337C244.609 60.0823 243.212 60.2217 241.675 60.2217C240.138 60.2217 237.553 59.8731 235.736 59.1759C233.92 58.4788 232.453 57.5027 231.265 56.3176C230.077 55.1324 229.099 53.738 228.261 52.2043C227.422 50.6705 226.933 49.067 226.794 47.3241C226.584 45.6509 226.584 43.908 226.794 42.2348C226.933 40.5616 227.422 38.8884 228.191 37.3546C228.959 35.8208 229.938 34.4265 231.055 33.2413C232.173 32.0561 233.64 31.0801 235.387 30.3829C237.133 29.6857 239.09 29.3372 241.185 29.3372H250.058L252.503 36.3088C251.595 34.4265 250.338 32.8927 248.521 31.7772C246.775 30.6618 244.888 30.104 242.792 30.104H242.024C239.998 30.104 238.251 30.8012 236.714 32.2653C235.177 33.6596 234.129 35.4722 233.431 37.5637C232.732 39.725 232.383 42.0256 232.313 44.5354C232.313 47.0452 232.592 49.3459 233.221 51.5768C233.85 53.738 234.898 55.5507 236.365 57.0844C237.832 58.5485 239.579 59.3851 241.675 59.5245C245.377 59.5245 247.892 58.2696 249.359 55.7598C250.477 53.8077 250.687 51.7162 249.848 49.4853C249.08 47.3938 247.753 45.9995 245.796 45.372C245.098 45.1629 244.329 45.0234 243.561 45.0234H238.251V44.3263V44.1868Z" fill="white"/>
<path d="M267.873 58.5485C269.969 58.5485 271.855 57.9908 273.602 56.8753C275.348 55.7598 276.676 54.2958 277.584 52.4134L275.139 59.1759H253.9C254.809 59.0365 255.507 58.5485 256.136 57.7816C256.765 57.0147 257.044 56.2478 257.044 55.3415V33.1716C257.044 32.2653 256.765 31.4287 256.136 30.7315C255.577 30.0343 254.809 29.5463 253.9 29.3372H265.148C264.24 29.4766 263.472 29.9646 262.913 30.6618C262.354 31.3589 262.004 32.1955 262.004 33.1716V55.4112C262.004 56.3176 262.354 57.0147 262.983 57.6422C263.611 58.2696 264.38 58.5485 265.288 58.5485H267.873Z" fill="white"/>
<path d="M294.002 28.3611C296.936 28.3611 299.591 29.0583 302.106 30.5223C304.551 31.9166 306.507 33.8687 307.975 36.3088C309.442 38.7489 310.14 41.3981 310.14 44.3262C310.14 47.2543 309.442 49.9036 307.975 52.3437C306.507 54.7837 304.551 56.7358 302.106 58.1999C299.661 59.6639 296.936 60.3611 294.002 60.3611C291.068 60.3611 288.343 59.6639 285.898 58.1999C283.383 56.7358 281.427 54.7837 280.029 52.3437C278.562 49.9036 277.864 47.1846 277.864 44.3262C277.864 41.4678 278.562 38.8186 280.029 36.3088C281.496 33.8687 283.453 31.9166 285.898 30.5223C288.413 29.128 291.068 28.3611 294.002 28.3611ZM294.002 59.6639C300.639 59.6639 303.922 54.5746 303.922 44.3959C303.922 34.2173 300.639 28.9885 294.002 28.9885C287.365 28.9885 283.942 34.0779 283.942 44.3262C283.942 54.5746 287.295 59.6639 294.002 59.6639Z" fill="white"/>
<path d="M324.253 42.5832C325.72 42.5832 327.047 42.5832 328.235 42.8621C329.492 43.0712 330.61 43.4895 331.658 44.117C332.706 44.7444 333.544 45.581 334.103 46.6965C334.732 47.812 335.012 49.2063 335.012 50.8098C335.012 53.1802 334.103 55.2019 332.357 56.8054C330.61 58.4089 328.305 59.2455 325.51 59.2455H309.791C310.699 59.0364 311.468 58.6181 312.027 57.8512C312.586 57.154 312.935 56.3174 312.935 55.4111V33.2412C312.935 32.3348 312.655 31.4982 312.027 30.8011C311.468 30.1039 310.699 29.6159 309.791 29.4067H324.323C326.628 29.4067 328.444 29.8948 329.912 30.9405C331.379 31.9863 332.077 33.52 332.077 35.6812C332.077 37.8425 331.938 37.2847 331.658 37.9819C331.379 38.6791 331.029 39.2368 330.68 39.6551C330.331 40.0734 329.772 40.4917 329.143 40.8403C328.444 41.1889 327.886 41.4677 327.466 41.6072C327.047 41.7466 326.418 41.9558 325.72 42.1649C325.021 42.3741 324.532 42.5135 324.323 42.5832H324.253ZM321.668 30.0342C320.62 30.0342 319.781 30.3131 319.013 30.9405C318.314 31.568 317.895 32.2651 317.895 33.1714V43.0712C318.314 43.0712 318.733 42.9318 319.153 42.8621C319.572 42.7924 320.201 42.6529 320.969 42.5135C321.738 42.3043 322.436 42.0952 323.065 41.7466C323.694 41.398 324.323 40.9797 324.951 40.5614C325.58 40.0734 326.069 39.5157 326.418 38.7488C326.768 37.9819 326.977 37.215 326.977 36.3087C326.977 34.4961 326.558 33.032 325.72 31.8468C324.881 30.6616 323.624 30.1039 322.017 30.1039H321.598L321.668 30.0342ZM322.157 58.5484C324.323 58.5484 326.139 57.7815 327.676 56.2477C329.213 54.7139 329.912 52.9013 329.912 50.7401C329.912 48.5789 329.702 48.8577 329.283 48.0211C328.864 47.1845 328.375 46.5571 327.816 45.9993C327.257 45.4416 326.558 45.0233 325.72 44.605C324.881 44.1867 324.113 43.9078 323.344 43.6987C322.576 43.4895 321.807 43.3501 320.969 43.2107C320.131 43.0712 319.502 43.0015 319.083 43.0015C318.664 43.0015 318.244 43.0015 317.895 43.0015V55.3414C317.895 56.2477 318.244 57.0146 318.943 57.5723C319.642 58.1301 320.55 58.4786 321.738 58.4786H322.157V58.5484Z" fill="white"/>
<path d="M362.957 59.1758H351.709C352.547 58.9667 353.106 58.5484 353.455 57.7815C353.805 57.0843 353.805 56.2477 353.455 55.3414L351.988 51.0887H340.181L338.714 55.3414C338.435 56.2477 338.435 57.0843 338.714 57.7815C339.064 58.4787 339.622 58.9667 340.461 59.1758H333.684C334.662 58.9667 335.57 58.5484 336.409 57.7815C337.247 57.0843 337.806 56.2477 338.085 55.3414L345.77 33.2412C345.491 32.1954 344.862 31.4286 344.094 30.6617C343.255 29.9645 342.347 29.4765 341.369 29.2673H352.617C351.779 29.4765 351.15 29.8948 350.87 30.6617C350.521 31.3588 350.521 32.1954 350.87 33.1018L358.555 55.2717C358.905 56.178 359.464 57.0146 360.302 57.7118C361.14 58.4089 362.048 58.897 363.027 59.1061L362.957 59.1758ZM340.391 50.531H351.709L346.05 34.1475L340.391 50.531Z" fill="white"/>
<path d="M377.139 58.5485C379.235 58.5485 381.121 57.9908 382.868 56.8753C384.614 55.7598 385.942 54.2958 386.85 52.4134L384.405 59.1759H363.167C364.075 59.0365 364.773 58.5485 365.402 57.7816C366.031 57.0147 366.31 56.2478 366.31 55.3415V33.1716C366.31 32.2653 366.031 31.4287 365.402 30.7315C364.843 30.0343 364.075 29.5463 363.167 29.3372H374.414C373.506 29.4766 372.738 29.9646 372.179 30.6618C371.62 31.3589 371.271 32.1955 371.271 33.1716V55.4112C371.271 56.3176 371.62 57.0147 372.249 57.6422C372.877 58.2696 373.646 58.5485 374.554 58.5485H377.139Z" fill="white"/>
</svg>
