<svg width="387" height="88" viewBox="0 0 387 88" fill="none" xmlns="http://www.w3.org/2000/svg">
<path d="M46.9492 27.3335C46.9492 28.8335 45.7467 30.0335 44.2435 30.0335C42.7404 30.0335 41.5378 28.8335 41.5378 27.3335H47.0494H46.9492Z" fill="black"/>
<path d="M11.5749 24.5334C10.7733 23.9334 9.87138 23.2334 8.96949 22.2334C4.86089 18.1334 2.55606 12.9333 2.25543 10.4333C2.25543 10.4333 0.351447 17.2334 7.16572 24.1334C9.16991 26.1334 11.0739 27.4334 12.076 28.0334C11.8756 26.8334 11.6752 25.6333 11.6752 24.4333L11.5749 24.5334Z" fill="black"/>
<path d="M12.3766 17.2334C11.4747 16.4334 10.2722 15.2334 9.06969 13.6334C7.76696 11.9334 6.66465 10.0334 5.86298 8.0334C4.86088 5.5334 4.25962 2.9334 4.0592 0.233398C4.0592 0.233398 1.45374 8.4334 6.96528 15.3334C9.06969 18.0334 11.0739 19.6334 11.7754 20.1334C11.8756 19.1334 12.076 18.1334 12.3766 17.1334V17.2334Z" fill="black"/>
<path d="M12.7776 50.4333C12.7776 50.6333 16.4854 54.9334 23.0992 55.6334C20.8946 54.2334 18.7902 52.6334 16.9864 50.8334L12.7776 50.4333Z" fill="black"/>
<path d="M9.87139 40.4333C9.67097 39.9333 9.37034 39.4333 9.16992 38.9333C7.86719 38.1333 5.46216 36.6333 5.46216 36.6333C5.46216 36.6333 5.76279 41.3333 9.9716 45.2333C11.9758 47.1333 14.1804 47.8333 14.7817 48.1333C12.8777 45.8333 11.1741 43.2333 9.87139 40.5333V40.4333Z" fill="black"/>
<path d="M19.5918 45.4334C17.6878 43.2334 16.0845 40.8334 14.7817 38.2334C13.6794 35.9334 13.0782 33.8334 12.7775 32.5334C12.7775 32.5334 12.7775 32.4334 12.7775 32.3334L10.3725 30.8334C10.1721 30.7334 9.97167 30.6334 9.77125 30.4334C9.77125 30.6334 9.87146 31.4334 10.0719 32.5334C8.1679 31.2334 6.56454 29.8334 5.1616 28.2334C3.75866 26.5334 2.65635 24.7334 1.85468 22.7334C0.752367 20.0334 0.451738 17.6334 0.551948 16.7334C0.551948 16.7334 -1.75288 23.4334 3.05719 29.8334C4.86097 32.2334 7.46643 34.2334 10.3725 35.8334L11.1742 36.3334C11.4748 37.2334 11.8757 38.2334 12.3767 39.2334C13.6794 42.1334 15.4832 44.7334 17.5876 47.1334C19.7922 49.6334 22.4979 51.8334 25.5042 53.6334C26.2057 53.0334 26.9071 52.4334 27.7088 51.8334C24.6023 50.1334 21.8966 47.9334 19.5918 45.4334Z" fill="black"/>
<path d="M8.26808 48.6333C8.26808 48.6333 8.26808 48.4333 8.16787 48.3333C7.96745 48.1333 7.76703 47.9333 7.56661 47.7333C5.86304 46.1333 4.46011 44.2333 3.45801 42.1333C3.65843 43.5333 4.15948 46.4333 5.86304 49.7333C7.16577 52.2333 8.96955 54.4333 11.1742 56.1333C13.479 58.0333 16.2849 59.3333 19.4916 60.1333L19.692 59.8333C19.692 59.7333 20.2933 58.9333 21.2954 57.8333C17.9884 57.1333 15.1826 55.9333 12.8777 54.1333C10.9737 52.6333 9.4706 50.8333 8.26808 48.6333Z" fill="black"/>
<path d="M68.1937 24.5334C68.9954 23.9334 69.8972 23.2334 70.7991 22.2334C74.9077 18.1334 77.2126 12.9333 77.5132 10.4333C77.5132 10.4333 79.4172 17.2334 72.6029 24.1334C70.5987 26.1334 68.6947 27.4334 67.6926 28.0334C67.893 26.8334 68.0935 25.6333 68.0935 24.4333L68.1937 24.5334Z" fill="black"/>
<path d="M67.3918 17.2334C68.2937 16.4334 69.4963 15.2334 70.6988 13.6334C72.0015 11.9334 73.1038 10.0334 73.9055 8.0334C74.9076 5.5334 75.5088 2.9334 75.7093 0.233398C75.7093 0.233398 78.3147 8.4334 72.8032 15.3334C67.2916 22.2334 68.6946 19.6334 67.9931 20.1334C67.8929 19.1334 67.6925 18.1334 67.3918 17.1334V17.2334Z" fill="black"/>
<path d="M69.8971 40.4333C70.0975 39.9333 70.3981 39.4333 70.5986 38.9333C71.9013 38.1333 74.3063 36.6333 74.3063 36.6333C74.3063 36.6333 74.0057 41.3333 69.7969 45.2333C67.7927 47.1333 65.5881 47.8333 64.9868 48.1333C66.8908 45.8333 68.5944 43.2333 69.8971 40.5333V40.4333Z" fill="black"/>
<path d="M79.3168 16.7334C79.3168 17.6334 79.1164 20.0334 78.0141 22.7334C77.2124 24.7334 76.1101 26.5334 74.7072 28.2334C73.3042 29.8334 71.7009 31.3334 69.7969 32.5334C69.9973 31.4334 70.0975 30.7334 70.0975 30.4334C69.8971 30.6334 69.5965 30.7334 69.4963 30.8334L67.0912 32.3334C67.0912 32.3334 67.0912 32.4334 67.0912 32.5334C66.7906 33.8334 66.1893 35.7334 65.1872 38.0334C65.1872 38.8334 65.2874 39.5334 65.2874 40.2334C65.2874 41.4334 65.2874 42.6334 64.9868 43.7334C65.9889 42.3334 66.7906 40.8334 67.4921 39.3334C67.9931 38.3334 68.3939 37.3334 68.6946 36.4334L69.4963 35.9334C72.4023 34.2334 75.0078 32.3334 76.8116 29.9334C81.6216 23.5334 79.3168 16.8334 79.3168 16.8334V16.7334Z" fill="black"/>
<path d="M60.4774 26.4333C60.6778 26.6333 60.778 26.9334 60.9785 27.1334C61.4795 24.0334 60.9785 21.7333 60.778 20.9333L57.9722 23.7334C58.8741 24.5334 59.6757 25.4333 60.3772 26.4333H60.4774Z" fill="black"/>
<path d="M21.4957 42.5333C22.7985 43.9333 24.3016 45.1333 25.905 46.1333C27.9092 47.3333 30.0136 48.2333 32.4186 48.8333C33.8215 48.1333 35.1243 47.5333 36.3268 46.9333C32.8194 46.4333 29.8131 45.4333 27.3079 43.9333C24.4018 42.1333 21.9968 39.7333 20.0928 36.4333C18.3892 33.4333 17.1867 30.5333 16.5854 27.7333C16.0844 25.5333 15.9842 23.3333 16.2848 21.2333C16.385 20.3333 16.5854 19.6333 16.7859 18.9333L14.6815 16.8333C14.2806 17.8333 13.98 19.2333 13.6794 20.7333C13.3787 23.1333 13.4789 25.6333 13.98 28.1333C14.5812 31.2333 15.884 34.5333 17.788 37.7333C18.8903 39.6333 20.0928 41.2333 21.4957 42.6333V42.5333Z" fill="black"/>
<path d="M66.0891 20.5333C65.8887 18.9333 65.4879 17.6333 65.087 16.6333L62.9826 18.7333C63.183 19.4333 63.2833 20.1333 63.4837 21.0333C63.6841 23.1333 63.5839 25.2333 63.183 27.5333C62.9826 28.2333 62.8824 29.0333 62.5818 29.7333C63.183 30.9333 63.6841 32.1333 64.0849 33.3333C64.8866 31.5333 65.3877 29.7333 65.7885 27.9333C66.2895 25.4333 66.3898 22.9333 66.0891 20.5333Z" fill="black"/>
<path d="M72.2021 47.8334C72.0017 48.0334 71.8012 48.2334 71.6008 48.4334C71.6008 48.4334 71.6008 48.6334 71.5006 48.7334C70.2981 50.9334 68.7949 52.7334 66.8909 54.2334C66.1895 54.8334 65.3878 55.3334 64.5861 55.7334C63.9849 56.7334 62.7823 58.2334 60.7781 59.8334C60.5777 59.9334 60.4775 60.1334 60.2771 60.2334C63.4838 59.4334 66.2897 58.1334 68.5945 56.2334C70.7991 54.5334 72.6029 52.3334 73.9056 49.8334C75.6092 46.6334 76.2105 43.6334 76.3107 42.2334C75.3086 44.3334 73.9056 46.2334 72.2021 47.8334Z" fill="black"/>
<path d="M62.5818 62.0335C60.9785 65.5335 57.872 71.4335 52.8615 76.2335C48.9533 80.0335 45.5462 82.2335 43.4418 83.4335C41.8384 84.3335 40.6359 84.8335 40.1348 85.0335C39.5336 84.8335 38.3311 84.3335 36.8279 83.4335C34.7235 82.2335 31.3164 80.0335 27.4082 76.2335C23.5 72.4335 20.6941 68.0335 19.0908 64.9335C18.5897 63.9335 18.0887 62.9335 17.6878 62.1335C16.2849 61.7335 14.9822 61.1335 13.6794 60.5335C13.9801 61.4335 14.882 63.6335 16.2849 66.2335C17.9885 69.5335 20.9948 74.3335 25.2036 78.3335C33.3206 86.1335 39.4334 87.9335 39.734 87.9335H40.1348C40.1348 88.0335 40.5357 87.9335 40.5357 87.9335C40.8363 87.9335 46.9491 86.1335 55.0661 78.3335C59.2749 74.2335 62.2812 69.4335 63.9848 66.2335C65.4879 63.3335 66.3898 61.1335 66.6904 60.3335C65.3877 61.0335 64.085 61.5335 62.6821 62.0335H62.5818Z" fill="#BC9B5F"/>
<path d="M63.9847 14.8333L62.7822 12.8333L62.5818 12.6333C62.5818 12.6333 60.3772 10.9333 56.469 9.3333C54.1642 8.4333 51.7591 7.6333 49.3541 7.1333C46.2476 6.4333 43.0409 6.1333 39.734 6.1333C36.427 6.1333 33.2203 6.4333 30.1138 7.1333C27.6086 7.6333 25.2035 8.4333 22.9989 9.3333C19.0907 10.9333 16.9863 12.6333 16.8861 12.6333L16.5855 12.8333L15.6836 14.6333L17.788 16.7333L18.7901 14.6333C19.3914 14.2333 21.2953 13.0333 24.1012 11.8333C26.2056 10.9333 28.4102 10.2333 30.7151 9.7333C33.6212 9.1333 36.6275 8.8333 39.6337 8.8333C42.64 8.8333 45.6463 9.1333 48.5524 9.7333C50.8572 10.2333 53.0619 10.9333 55.1663 11.8333C58.1726 13.0333 59.9763 14.3333 60.5776 14.7333L61.8803 16.8333L63.8845 14.8333H63.9847Z" fill="#BC9B5F"/>
<path d="M60.1768 52.0334C60.1768 52.0334 59.2749 53.6334 57.0703 55.5334C54.064 58.1334 50.9575 59.7334 47.7507 61.5334C45.1453 62.9334 42.4396 64.4334 39.8342 66.3334C35.7256 69.4334 32.9197 72.6334 31.2161 74.7334C31.0157 75.0334 30.7151 75.3334 30.5146 75.6334C31.2161 76.2334 31.9176 76.8334 32.5188 77.4334C32.7193 77.1334 33.0199 76.7334 33.3205 76.4334C34.9239 74.4334 37.5293 71.4334 41.3373 68.6334C43.8426 66.7334 46.2476 65.4334 48.9533 64.0334C52.16 62.3334 55.5671 60.5334 58.7738 57.7334C60.4774 56.2334 61.4795 55.0334 62.0807 54.2334C62.4816 54.2334 67.3919 52.8334 68.5944 49.7334C64.586 52.2334 60.1768 52.2334 60.1768 52.2334V52.0334Z" fill="black"/>
<path d="M50.4565 70.0335C51.8595 68.2335 55.1664 64.4335 58.0725 61.8335C55.467 63.7335 48.9534 66.0335 44.6444 74.0335C43.3416 76.5335 42.2393 79.6335 41.7383 81.3335C41.8385 81.3335 42.0389 81.2335 42.1391 81.1335C43.041 80.6335 44.0431 80.0335 45.3458 79.1335C45.7467 78.1335 46.3479 76.8335 47.1496 75.3335C48.1517 73.4335 49.254 71.7335 50.5567 70.1335L50.4565 70.0335Z" fill="black"/>
<path d="M35.2245 79.4334C36.1264 80.0334 36.928 80.5334 37.5293 80.9334C40.4354 74.5334 43.4417 69.7334 43.4417 69.7334C43.2413 69.9334 39.1327 73.4334 35.1243 79.4334H35.2245Z" fill="black"/>
<path d="M30.615 64.8333C33.4209 61.7333 37.5295 58.9333 42.8406 56.3333C52.4607 51.7333 56.3689 47.1333 56.3689 40.3333C56.3689 33.5333 54.0641 31.7333 52.9618 30.6333L51.4586 32.9333C51.659 33.2333 51.9597 33.6333 52.2603 34.1333C52.9618 35.3333 53.6632 37.3333 53.6632 40.3333C53.6632 43.3333 52.8616 45.3333 51.158 47.3333C49.254 49.5333 46.1475 51.7333 41.6381 53.8333C37.8301 55.6333 32.6192 58.6333 28.5106 63.0333C26.9072 64.7333 25.5043 66.5333 24.3018 68.6333C24.903 69.4333 25.5043 70.2333 26.1055 71.0333C27.3081 68.6333 28.9114 66.6333 30.5148 64.7333L30.615 64.8333Z" fill="black"/>
<path d="M35.1244 54.9334C36.828 53.9334 38.4313 53.1334 40.1349 52.3334C44.1433 50.3334 47.9512 48.5334 50.1559 44.4334C52.2603 40.4334 50.7571 35.8334 50.3563 34.7334L48.3521 37.7334C48.6527 39.2334 48.6527 41.3334 47.7508 43.1334C46.9491 44.6334 45.8468 45.9334 44.2435 47.0334C42.7403 48.1334 40.9366 49.0334 38.9324 49.9334C37.2288 50.7334 35.5252 51.5334 33.7214 52.6334C31.5168 53.9334 29.3122 55.6334 27.308 57.4334C25.7047 58.9334 24.2015 60.5334 22.7986 62.3334C22.2975 62.9334 21.8967 63.5334 21.4958 64.1334C21.8967 64.9334 22.3977 65.8334 22.999 66.7334C24.903 63.8334 28.9114 58.6334 35.1244 54.9334Z" fill="black"/>
<path d="M29.8133 42.1333C33.1203 43.8333 38.9324 44.5333 41.9387 41.6333C47.5505 35.8333 41.5379 26.9333 33.9219 29.8333C35.8259 25.8333 39.6339 24.5333 44.1433 24.4333C48.753 24.4333 52.6612 26.5333 55.4671 30.2333C57.6717 33.2333 58.9744 36.8333 59.0746 40.5333C58.8742 53.7333 43.5421 56.7333 34.8238 64.2333C32.8196 65.6333 29.6129 69.7333 27.5085 72.9333C28.0096 73.4333 28.5106 74.0333 29.1119 74.5333C29.2121 74.6333 29.4125 74.7333 29.5127 74.9333C31.4167 71.4333 35.9261 65.3333 44.8448 60.9333C55.7677 55.7333 64.8868 46.9333 60.7782 34.7333C59.7761 31.9333 58.3731 29.3333 56.3689 27.1333C51.7593 21.6333 43.4419 19.7333 36.4272 23.6333C29.4125 27.5333 30.3144 34.9333 31.1161 37.1333C31.4167 35.4333 35.3249 29.6333 40.0347 33.2333C40.7362 33.8333 41.5379 34.8333 41.5379 36.4333C41.5379 39.3333 39.5337 41.1333 36.6276 41.0333C27.8091 41.2333 21.6963 31.6333 21.4959 23.6333L18.9907 21.1333C17.688 28.4333 22.8989 38.9333 29.9135 42.3333L29.8133 42.1333Z" fill="black"/>
<path d="M111.869 29.0817H133.736L136.181 35.8442C135.273 33.9619 134.015 32.4978 132.199 31.3823C130.452 30.2669 128.566 29.7091 126.47 29.7091H123.257C122.348 29.7091 121.58 29.988 120.951 30.6155C120.322 31.2429 119.973 31.9401 119.973 32.8464V42.1187H126.4C127.518 42.1187 128.496 41.7701 129.335 41.073C130.173 40.3758 130.662 39.4695 130.872 38.354V46.5109C130.732 45.4651 130.173 44.5588 129.335 43.7919C128.496 43.0947 127.518 42.7462 126.4 42.7462H119.973V55.0163C119.973 55.9924 120.252 56.829 120.881 57.4564C121.51 58.2233 122.209 58.6416 123.117 58.8507H111.869C112.777 58.6416 113.546 58.2233 114.105 57.4564C114.663 56.7592 114.943 55.9226 114.943 55.0163V32.8464C114.943 31.9401 114.663 31.1035 114.035 30.4063C113.476 29.6394 112.707 29.2211 111.869 29.012V29.0817Z" fill="black"/>
<path d="M149.665 58.2931C151.761 58.2931 153.647 57.7354 155.394 56.6199C157.14 55.5044 158.467 54.0404 159.376 52.158L156.931 58.9206H135.692C136.6 58.7811 137.299 58.2931 137.928 57.5262C138.557 56.7593 138.836 55.9925 138.836 55.0861V32.9162C138.836 32.0099 138.557 31.1733 137.928 30.4761C137.369 29.779 136.6 29.2909 135.692 29.0818H146.94C146.032 29.2212 145.263 29.7092 144.704 30.4064C144.146 31.1036 143.796 31.9402 143.796 32.9162V55.1559C143.796 56.0622 144.146 56.7593 144.774 57.3868C145.403 58.0142 146.172 58.2931 147.08 58.2931H149.665Z" fill="black"/>
<path d="M170.554 29.7788C169.646 29.7788 168.947 30.0577 168.318 30.6852C167.69 31.3126 167.41 32.0098 167.41 32.9161V42.1884H173.837C174.885 42.1884 175.863 41.8399 176.702 41.1427C177.54 40.4455 178.029 39.5392 178.239 38.4237V46.5806C178.029 45.5348 177.54 44.6285 176.702 43.8616C175.863 43.1645 174.885 42.8159 173.837 42.8159H167.41V55.1558C167.41 55.9924 167.69 56.7592 168.318 57.317C168.947 57.9444 169.716 58.2233 170.554 58.2233H173.907C175.933 58.2233 177.89 57.6656 179.636 56.5501C181.383 55.4346 182.71 53.9706 183.618 52.0882L181.173 58.8507H159.236C160.144 58.6416 160.913 58.2233 161.472 57.4564C162.031 56.7592 162.38 55.9226 162.38 55.0163V32.8464C162.38 31.9401 162.1 31.1035 161.542 30.4063C160.913 29.6394 160.144 29.2211 159.306 29.012H181.243L183.688 35.7745C182.78 33.8921 181.453 32.4281 179.706 31.3126C177.959 30.1972 176.073 29.6394 173.977 29.6394H170.694L170.554 29.7788Z" fill="black"/>
<path d="M206.883 55.6438C207.931 57.4564 209.468 58.5719 211.494 58.9902H199.757C200.246 58.8507 200.665 58.6416 201.014 58.2233C201.364 57.805 201.503 57.3867 201.503 56.8987C201.503 56.4107 201.364 56.1318 201.154 55.7832L195.355 45.6046L188.579 55.8529C188.229 56.4804 188.229 57.1078 188.579 57.7353C188.858 58.3627 189.417 58.781 190.046 58.9205H183.409C185.155 58.5719 186.692 57.4564 187.95 55.4346L193.679 46.9292C194.587 45.6046 194.587 44.2102 193.749 42.7462L187.88 32.4978C186.832 30.6154 185.225 29.4303 183.129 29.012H194.866C194.377 29.1514 193.958 29.3605 193.679 29.7788C193.399 30.1971 193.26 30.6154 193.26 31.1035C193.26 31.5915 193.329 31.8006 193.539 32.1492L198.849 41.4913L204.158 32.2189C204.298 31.9401 204.438 31.5915 204.438 31.2429C204.438 30.6852 204.298 30.1971 203.949 29.8486C203.599 29.4303 203.18 29.1514 202.691 29.0817H209.258C207.372 29.5 205.975 30.6154 204.857 32.4978L200.386 40.0969C200.036 40.7244 199.897 41.4913 199.897 42.3279C199.897 43.1645 200.106 43.8616 200.455 44.4891L206.883 55.6438Z" fill="black"/>
<path d="M238.251 43.9315H254.18C254.18 45.1864 254.18 46.2321 254.11 47.2779C254.11 48.2539 253.901 49.3694 253.691 50.4848C253.481 51.6003 253.202 52.6461 252.783 53.4827C252.433 54.3193 251.944 55.2256 251.316 56.0622C250.687 56.8988 249.918 57.596 249.08 58.1537C248.242 58.7114 247.194 59.1297 245.866 59.4783C244.609 59.8269 243.212 59.9663 241.675 59.9663C240.138 59.9663 237.553 59.6177 235.736 58.9206C233.92 58.2234 232.453 57.2474 231.265 56.0622C230.077 54.877 229.099 53.4827 228.261 51.9489C227.422 50.4151 226.933 48.8116 226.794 47.0687C226.584 45.3955 226.584 43.6526 226.794 41.9794C226.933 40.3062 227.422 38.633 228.191 37.0992C228.959 35.5654 229.938 34.1711 231.055 32.9859C232.173 31.8007 233.64 30.8247 235.387 30.1275C237.133 29.4304 239.09 29.0818 241.185 29.0818H250.058L252.503 36.0535C251.595 34.1711 250.338 32.6373 248.521 31.5219C246.775 30.4064 244.888 29.8487 242.792 29.8487H242.024C239.998 29.8487 238.251 30.5458 236.714 32.0099C235.177 33.4042 234.129 35.2169 233.431 37.3084C232.732 39.4696 232.383 41.7702 232.313 44.28C232.313 46.7899 232.592 49.0905 233.221 51.3214C233.85 53.4827 234.898 55.2953 236.365 56.8291C237.832 58.2931 239.579 59.1297 241.675 59.2692C245.377 59.2692 247.892 58.0142 249.359 55.5044C250.477 53.5524 250.687 51.4609 249.848 49.2299C249.08 47.1384 247.753 45.7441 245.796 45.1166C245.098 44.9075 244.329 44.7681 243.561 44.7681H238.251V44.0709V43.9315Z" fill="black"/>
<path d="M267.873 58.2931C269.969 58.2931 271.855 57.7354 273.602 56.6199C275.348 55.5044 276.676 54.0404 277.584 52.158L275.139 58.9206H253.9C254.809 58.7811 255.507 58.2931 256.136 57.5262C256.765 56.7593 257.044 55.9925 257.044 55.0861V32.9162C257.044 32.0099 256.765 31.1733 256.136 30.4761C255.577 29.779 254.809 29.2909 253.9 29.0818H265.148C264.24 29.2212 263.472 29.7092 262.913 30.4064C262.354 31.1036 262.004 31.9402 262.004 32.9162V55.1559C262.004 56.0622 262.354 56.7593 262.983 57.3868C263.611 58.0142 264.38 58.2931 265.288 58.2931H267.873Z" fill="black"/>
<path d="M294.002 28.1057C296.936 28.1057 299.591 28.8029 302.106 30.2669C304.551 31.6613 306.507 33.6133 307.975 36.0534C309.442 38.4935 310.14 41.1428 310.14 44.0709C310.14 46.999 309.442 49.6482 307.975 52.0883C306.507 54.5284 304.551 56.4804 302.106 57.9445C299.661 59.4085 296.936 60.1057 294.002 60.1057C291.068 60.1057 288.343 59.4085 285.898 57.9445C283.383 56.4804 281.427 54.5284 280.029 52.0883C278.562 49.6482 277.864 46.9292 277.864 44.0709C277.864 41.2125 278.562 38.5632 280.029 36.0534C281.496 33.6133 283.453 31.6613 285.898 30.2669C288.413 28.8726 291.068 28.1057 294.002 28.1057ZM294.002 59.4085C300.639 59.4085 303.922 54.3192 303.922 44.1406C303.922 33.9619 300.639 28.7332 294.002 28.7332C287.365 28.7332 283.942 33.8225 283.942 44.0709C283.942 54.3192 287.295 59.4085 294.002 59.4085Z" fill="black"/>
<path d="M324.253 42.3278C325.72 42.3278 327.047 42.3278 328.235 42.6067C329.492 42.8159 330.61 43.2342 331.658 43.8616C332.706 44.4891 333.544 45.3257 334.103 46.4411C334.732 47.5566 335.012 48.9509 335.012 50.5544C335.012 52.9248 334.103 54.9466 332.357 56.5501C330.61 58.1535 328.305 58.9901 325.51 58.9901H309.791C310.699 58.781 311.468 58.3627 312.027 57.5958C312.586 56.8986 312.935 56.062 312.935 55.1557V32.9858C312.935 32.0795 312.655 31.2429 312.027 30.5457C311.468 29.8485 310.699 29.3605 309.791 29.1514H324.323C326.628 29.1514 328.444 29.6394 329.912 30.6851C331.379 31.7309 332.077 33.2647 332.077 35.4259C332.077 37.5871 331.938 37.0294 331.658 37.7265C331.379 38.4237 331.029 38.9814 330.68 39.3997C330.331 39.818 329.772 40.2363 329.143 40.5849C328.444 40.9335 327.886 41.2124 327.466 41.3518C327.047 41.4912 326.418 41.7004 325.72 41.9095C325.021 42.1187 324.532 42.2581 324.323 42.3278H324.253ZM321.668 29.7788C320.62 29.7788 319.781 30.0577 319.013 30.6851C318.314 31.3126 317.895 32.0098 317.895 32.9161V42.8159C318.314 42.8159 318.733 42.6764 319.153 42.6067C319.572 42.537 320.201 42.3976 320.969 42.2581C321.738 42.049 322.436 41.8398 323.065 41.4912C323.694 41.1427 324.323 40.7244 324.951 40.3061C325.58 39.818 326.069 39.2603 326.418 38.4934C326.768 37.7265 326.977 36.9596 326.977 36.0533C326.977 34.2407 326.558 32.7766 325.72 31.5915C324.881 30.4063 323.624 29.8485 322.017 29.8485H321.598L321.668 29.7788ZM322.157 58.293C324.323 58.293 326.139 57.5261 327.676 55.9923C329.213 54.4586 329.912 52.6459 329.912 50.4847C329.912 48.3235 329.702 48.6024 329.283 47.7657C328.864 46.9291 328.375 46.3017 327.816 45.744C327.257 45.1862 326.558 44.7679 325.72 44.3496C324.881 43.9313 324.113 43.6525 323.344 43.4433C322.576 43.2342 321.807 43.0947 320.969 42.9553C320.131 42.8159 319.502 42.7461 319.083 42.7461C318.664 42.7461 318.244 42.7461 317.895 42.7461V55.086C317.895 55.9923 318.244 56.7592 318.943 57.3169C319.642 57.8747 320.55 58.2233 321.738 58.2233H322.157V58.293Z" fill="black"/>
<path d="M362.957 58.9205H351.709C352.547 58.7113 353.106 58.293 353.455 57.5261C353.805 56.829 353.805 55.9924 353.455 55.086L351.988 50.8333H340.181L338.714 55.086C338.435 55.9924 338.435 56.829 338.714 57.5261C339.064 58.2233 339.622 58.7113 340.461 58.9205H333.684C334.662 58.7113 335.57 58.293 336.409 57.5261C337.247 56.829 337.806 55.9924 338.085 55.086L345.77 32.9858C345.491 31.9401 344.862 31.1732 344.094 30.4063C343.255 29.7091 342.347 29.2211 341.369 29.012H352.617C351.779 29.2211 351.15 29.6394 350.87 30.4063C350.521 31.1035 350.521 31.9401 350.87 32.8464L358.555 55.0163C358.905 55.9226 359.464 56.7592 360.302 57.4564C361.14 58.1536 362.048 58.6416 363.027 58.8507L362.957 58.9205ZM340.391 50.2756H351.709L346.05 33.8921L340.391 50.2756Z" fill="black"/>
<path d="M377.139 58.2931C379.235 58.2931 381.121 57.7354 382.868 56.6199C384.614 55.5044 385.942 54.0404 386.85 52.158L384.405 58.9206H363.167C364.075 58.7811 364.773 58.2931 365.402 57.5262C366.031 56.7593 366.31 55.9925 366.31 55.0861V32.9162C366.31 32.0099 366.031 31.1733 365.402 30.4761C364.843 29.779 364.075 29.2909 363.167 29.0818H374.414C373.506 29.2212 372.738 29.7092 372.179 30.4064C371.62 31.1036 371.271 31.9402 371.271 32.9162V55.1559C371.271 56.0622 371.62 56.7593 372.249 57.3868C372.877 58.0142 373.646 58.2931 374.554 58.2931H377.139Z" fill="black"/>
</svg>
