<svg width="43" height="46" viewBox="0 0 43 46" fill="none" xmlns="http://www.w3.org/2000/svg">
<g filter="url(#filter0_d_24_237)">
<path d="M24.0238 11.5583C24.0238 12.1981 23.5109 12.7099 22.8698 12.7099C22.2287 12.7099 21.7158 12.1981 21.7158 11.5583H24.0665H24.0238Z" fill="white"/>
<path d="M8.9366 10.364C8.59468 10.1081 8.21003 9.80959 7.82537 9.38308C6.07302 7.63442 5.09 5.4166 4.96178 4.35034C4.96178 4.35034 4.14972 7.25057 7.05604 10.1934C7.91084 11.0464 8.7229 11.6009 9.1503 11.8568C9.06482 11.345 8.97934 10.8332 8.97934 10.3214L8.9366 10.364Z" fill="white"/>
<path d="M9.27862 7.25056C8.89396 6.90935 8.38108 6.39755 7.8682 5.71515C7.31258 4.99009 6.84244 4.17973 6.50052 3.32673C6.07312 2.26047 5.81668 1.15156 5.7312 0C5.7312 0 4.61996 3.49733 6.97066 6.4402C7.8682 7.59176 8.723 8.27417 9.02218 8.48742C9.06492 8.06091 9.1504 7.63441 9.27862 7.20791V7.25056Z" fill="white"/>
<path d="M9.44971 21.4104C9.44971 21.4957 11.0311 23.3297 13.8519 23.6282C12.9116 23.0311 12.0141 22.3487 11.2448 21.581L9.44971 21.4104Z" fill="white"/>
<path d="M8.21015 17.1454C8.12467 16.9321 7.99645 16.7189 7.91097 16.5056C7.35535 16.1644 6.32959 15.5247 6.32959 15.5247C6.32959 15.5247 6.45781 17.5292 8.25289 19.1926C9.10769 20.0029 10.048 20.3015 10.3044 20.4294C9.49235 19.4485 8.76577 18.3396 8.21015 17.188V17.1454Z" fill="white"/>
<path d="M12.356 19.278C11.5439 18.3397 10.8601 17.3161 10.3045 16.2072C9.83435 15.2262 9.57791 14.3306 9.44969 13.7761C9.44969 13.7761 9.44969 13.7335 9.44969 13.6908L8.42393 13.0511C8.33845 13.0084 8.25297 12.9657 8.16749 12.8804C8.16749 12.9657 8.21023 13.307 8.29571 13.7761C7.48365 13.2217 6.79981 12.6245 6.20145 11.9421C5.60309 11.2171 5.13295 10.4494 4.79103 9.59637C4.32089 8.44481 4.19267 7.42121 4.23541 7.03735C4.23541 7.03735 3.25239 9.89493 5.30391 12.6245C6.07323 13.6482 7.18447 14.5012 8.42393 15.1836L8.76585 15.3968C8.89407 15.7807 9.06503 16.2072 9.27873 16.6337C9.83435 17.8705 10.6037 18.9794 11.5012 20.0031C12.4415 21.0693 13.5955 22.0076 14.8777 22.7753C15.1769 22.5194 15.476 22.2635 15.8179 22.0076C14.493 21.2826 13.339 20.3443 12.356 19.278Z" fill="white"/>
<path d="M7.52662 20.6429C7.52662 20.6429 7.52662 20.5576 7.48388 20.5149C7.3984 20.4296 7.31292 20.3443 7.22744 20.259C6.50086 19.5766 5.9025 18.7663 5.4751 17.8706C5.56058 18.4677 5.77428 19.7046 6.50086 21.112C7.05648 22.1783 7.8258 23.1166 8.76608 23.8417C9.7491 24.652 10.9458 25.2065 12.3135 25.5477L12.399 25.4197C12.399 25.3771 12.6554 25.0359 13.0828 24.5667C11.6724 24.2682 10.4757 23.7564 9.49266 22.9886C8.6806 22.3489 8.0395 21.5812 7.52662 20.6429Z" fill="white"/>
<path d="M33.0848 10.364C33.4267 10.1081 33.8114 9.80959 34.196 9.38308C35.9484 7.63442 36.9314 5.4166 37.0596 4.35034C37.0596 4.35034 37.8717 7.25057 34.9654 10.1934C34.1106 11.0464 33.2985 11.6009 32.8711 11.8568C32.9566 11.345 33.0421 10.8332 33.0421 10.3214L33.0848 10.364Z" fill="white"/>
<path d="M32.7432 7.25056C33.1278 6.90935 33.6407 6.39755 34.1536 5.71514C34.7092 4.99009 35.1793 4.17973 35.5213 3.32673C35.9487 2.26047 36.2051 1.15156 36.2906 0C36.2906 0 37.4018 3.49733 35.0511 6.4402C32.7004 9.38307 33.2988 8.27416 32.9996 8.48742C32.9569 8.06091 32.8714 7.63441 32.7432 7.20791V7.25056Z" fill="white"/>
<path d="M33.8115 17.1454C33.897 16.9321 34.0252 16.7189 34.1107 16.5056C34.6663 16.1644 35.6921 15.5247 35.6921 15.5247C35.6921 15.5247 35.5639 17.5292 33.7688 19.1926C32.914 20.0029 31.9737 20.3015 31.7173 20.4294C32.5293 19.4485 33.2559 18.3396 33.8115 17.188V17.1454Z" fill="white"/>
<path d="M37.8291 7.03735C37.8291 7.42121 37.7436 8.44481 37.2735 9.59637C36.9316 10.4494 36.4614 11.2171 35.8631 11.9421C35.2647 12.6245 34.5809 13.2643 33.7688 13.7761C33.8543 13.307 33.897 13.0084 33.897 12.8804C33.8115 12.9657 33.6833 13.0084 33.6406 13.0511L32.6148 13.6908C32.6148 13.6908 32.6148 13.7335 32.6148 13.7761C32.4866 14.3306 32.2302 15.1409 31.8028 16.1219C31.8028 16.4631 31.8455 16.7616 31.8455 17.0602C31.8455 17.572 31.8455 18.0838 31.7173 18.5529C32.1447 17.9558 32.4866 17.3161 32.7858 16.6763C32.9995 16.2498 33.1704 15.8233 33.2987 15.4395L33.6406 15.2262C34.88 14.5012 35.9913 13.6908 36.7606 12.6672C38.8121 9.93758 37.8291 7.08 37.8291 7.08V7.03735Z" fill="white"/>
<path d="M29.7941 11.1744C29.8796 11.2597 29.9223 11.3876 30.0078 11.4729C30.2215 10.1508 30.0078 9.16982 29.9223 8.82861L28.7256 10.0228C29.1102 10.364 29.4522 10.7479 29.7513 11.1744H29.7941Z" fill="white"/>
<path d="M13.1681 18.041C13.7237 18.6381 14.3648 19.1499 15.0486 19.5764C15.9034 20.0882 16.801 20.472 17.8267 20.7279C18.4251 20.4294 18.9807 20.1735 19.4936 19.9176C17.9977 19.7043 16.7155 19.2778 15.647 18.6381C14.4075 17.8704 13.3818 16.8468 12.5697 15.4393C11.8431 14.1598 11.3302 12.9229 11.0738 11.7287C10.8601 10.7904 10.8174 9.85211 10.9456 8.95645C10.9883 8.5726 11.0738 8.27404 11.1593 7.97549L10.2617 7.07983C10.0908 7.50634 9.96255 8.10344 9.83433 8.7432C9.70611 9.76681 9.74885 10.8331 9.96255 11.8993C10.219 13.2215 10.7746 14.6289 11.5867 15.9938C12.0568 16.8041 12.5697 17.4865 13.1681 18.0836V18.041Z" fill="white"/>
<path d="M32.1873 8.65799C32.1018 7.97559 31.9309 7.42113 31.7599 6.99463L30.8624 7.89029C30.9478 8.18884 30.9906 8.48739 31.0761 8.87124C31.1615 9.7669 31.1188 10.6626 30.9478 11.6435C30.8624 11.9421 30.8196 12.2833 30.6914 12.5818C30.9478 13.0936 31.1615 13.6054 31.3325 14.1172C31.6744 13.3495 31.8881 12.5818 32.0591 11.8141C32.2728 10.7479 32.3155 9.6816 32.1873 8.65799Z" fill="white"/>
<path d="M34.7946 20.3015C34.7091 20.3868 34.6236 20.4721 34.5381 20.5574C34.5381 20.5574 34.5381 20.6427 34.4954 20.6854C33.9825 21.6237 33.3414 22.3914 32.5293 23.0311C32.2302 23.287 31.8882 23.5003 31.5463 23.6709C31.2899 24.0974 30.777 24.7371 29.9222 25.4195C29.8367 25.4622 29.794 25.5475 29.7085 25.5901C31.0762 25.2489 32.2729 24.6945 33.2559 23.8841C34.1962 23.1591 34.9655 22.2208 35.5211 21.1545C36.2477 19.7897 36.5042 18.5102 36.5469 17.9131C36.1195 18.8087 35.5211 19.6191 34.7946 20.3015Z" fill="white"/>
<path d="M30.6916 26.3581C30.0078 27.8509 28.6828 30.3672 26.5458 32.4145C24.879 34.0352 23.4258 34.9735 22.5283 35.4853C21.8444 35.8691 21.3315 36.0824 21.1178 36.1677C20.8614 36.0824 20.3485 35.8691 19.7074 35.4853C18.8099 34.9735 17.3567 34.0352 15.6899 32.4145C14.023 30.7937 12.8263 28.9171 12.1424 27.595C11.9287 27.1685 11.715 26.742 11.5441 26.4008C10.9457 26.2302 10.3901 25.9743 9.83447 25.7184C9.96269 26.1022 10.3474 27.0405 10.9457 28.1494C11.6723 29.5569 12.9545 31.6041 14.7496 33.3101C18.2115 36.6368 20.8187 37.4045 20.9469 37.4045H21.1178C21.1178 37.4472 21.2888 37.4045 21.2888 37.4045C21.417 37.4045 24.0242 36.6368 27.4861 33.3101C29.2812 31.5615 30.5634 29.5142 31.29 28.1494C31.9311 26.9126 32.3157 25.9743 32.4439 25.6331C31.8883 25.9316 31.3327 26.1449 30.7343 26.3581H30.6916Z" fill="white"/>
<path d="M31.2896 6.22694L30.7768 5.37393L30.6913 5.28863C30.6913 5.28863 29.751 4.56357 28.0841 3.88117C27.1011 3.49731 26.0754 3.15611 25.0496 2.94286C23.7247 2.64431 22.357 2.51636 20.9466 2.51636C19.5361 2.51636 18.1685 2.64431 16.8435 2.94286C15.775 3.15611 14.7493 3.49731 13.809 3.88117C12.1421 4.56357 11.2446 5.28863 11.2018 5.28863L11.0736 5.37393L10.689 6.14164L11.5865 7.03729L12.0139 6.14164C12.2703 5.97103 13.0824 5.45923 14.2791 4.94743C15.1767 4.56357 16.1169 4.26502 17.1 4.05177C18.3394 3.79587 19.6216 3.66792 20.9038 3.66792C22.186 3.66792 23.4682 3.79587 24.7077 4.05177C25.6907 4.26502 26.631 4.56357 27.5285 4.94743C28.8107 5.45923 29.58 6.01368 29.8365 6.18429L30.3921 7.07994L31.2469 6.22694H31.2896Z" fill="white"/>
<path d="M29.6657 22.093C29.6657 22.093 29.281 22.7754 28.3408 23.5858C27.0586 24.6947 25.7336 25.3771 24.3659 26.1448C23.2547 26.7419 22.1007 27.3817 20.9895 28.192C19.2371 29.5142 18.0404 30.879 17.3138 31.7746C17.2283 31.9026 17.1001 32.0305 17.0146 32.1585C17.3138 32.4144 17.613 32.6703 17.8694 32.9262C17.9549 32.7983 18.0831 32.6277 18.2114 32.4997C18.8952 31.6467 20.0064 30.3672 21.6306 29.173C22.6991 28.3626 23.7248 27.8082 24.8788 27.2111C26.2465 26.486 27.6996 25.7183 29.0673 24.5241C29.7939 23.8843 30.2213 23.3725 30.4778 23.0313C30.6487 23.0313 32.743 22.4342 33.2559 21.1121C31.5463 22.1783 29.6657 22.1783 29.6657 22.1783V22.093Z" fill="white"/>
<path d="M25.5201 29.77C26.1185 29.0023 27.5289 27.3816 28.7684 26.2727C27.6571 27.0831 24.879 28.064 23.0412 31.476C22.4856 32.5423 22.0155 33.8645 21.8018 34.5895C21.8445 34.5895 21.93 34.5469 21.9727 34.5042C22.3574 34.291 22.7848 34.0351 23.3404 33.6512C23.5114 33.2247 23.7678 32.6703 24.1097 32.0305C24.5371 31.2201 25.0073 30.4951 25.5629 29.8127L25.5201 29.77Z" fill="white"/>
<path d="M19.0232 33.7792C19.4079 34.0351 19.7498 34.2483 20.0062 34.4189C21.2457 31.6893 22.5279 29.6421 22.5279 29.6421C22.4424 29.7274 20.6901 31.2202 18.9805 33.7792H19.0232Z" fill="white"/>
<path d="M17.0574 27.552C18.2541 26.2298 20.0064 25.0356 22.2716 23.9267C26.3747 21.9648 28.0415 20.0029 28.0415 17.1027C28.0415 14.2024 27.0585 13.4347 26.5884 12.9656L25.9473 13.9465C26.0328 14.0745 26.161 14.2451 26.2892 14.4583C26.5884 14.9701 26.8876 15.8231 26.8876 17.1027C26.8876 18.3822 26.5456 19.2352 25.8191 20.0882C25.007 21.0265 23.6821 21.9648 21.7588 22.8605C20.1346 23.6282 17.9122 24.9077 16.1598 26.7843C15.476 27.5093 14.8776 28.277 14.3647 29.1727C14.6212 29.5139 14.8776 29.8551 15.1341 30.1963C15.6469 29.1727 16.3308 28.3197 17.0146 27.5093L17.0574 27.552Z" fill="white"/>
<path d="M18.9806 23.3297C19.7072 22.9032 20.391 22.562 21.1176 22.2208C22.8272 21.3678 24.4513 20.6001 25.3916 18.8514C26.2892 17.1454 25.6481 15.1835 25.4771 14.7144L24.6223 15.9939C24.7505 16.6336 24.7505 17.5293 24.3659 18.297C24.0239 18.9367 23.5538 19.4912 22.87 19.9603C22.2289 20.4295 21.4595 20.8134 20.6047 21.1972C19.8781 21.5384 19.1516 21.8796 18.3822 22.3488C17.442 22.9032 16.5017 23.6283 15.6469 24.396C14.963 25.0357 14.3219 25.7181 13.7236 26.4858C13.5099 26.7418 13.3389 26.9977 13.168 27.2536C13.3389 27.5948 13.5526 27.9786 13.8091 28.3625C14.6211 27.1256 16.3307 24.9078 18.9806 23.3297Z" fill="white"/>
<path d="M16.7156 17.8704C18.126 18.5954 20.6049 18.894 21.8871 17.6571C24.2805 15.1834 21.7161 11.3875 18.4679 12.6244C19.28 10.9184 20.9041 10.3639 22.8274 10.3213C24.7934 10.3213 26.4603 11.2169 27.657 12.795C28.5973 14.0745 29.1529 15.6099 29.1956 17.188C29.1102 22.8178 22.5709 24.0973 18.8526 27.2961C17.9978 27.8932 16.6301 29.6419 15.7325 31.0067C15.9462 31.2199 16.1599 31.4758 16.4164 31.6891C16.4591 31.7318 16.5446 31.7744 16.5873 31.8597C17.3994 30.3669 19.3227 27.7653 23.1266 25.8887C27.7852 23.6708 31.6746 19.9176 29.9222 14.7143C29.4948 13.5201 28.8965 12.4111 28.0417 11.4728C26.0756 9.12707 22.5282 8.31671 19.5364 9.98008C16.5446 11.6434 16.9293 14.7996 17.2712 15.7379C17.3994 15.0128 19.0663 12.5391 21.075 14.0745C21.3742 14.3304 21.7161 14.7569 21.7161 15.4393C21.7161 16.6762 20.8613 17.4439 19.6219 17.4012C15.8608 17.4865 13.2536 13.3921 13.1681 9.98008L12.0996 8.91382C11.544 12.0273 13.7665 16.5056 16.7583 17.9557L16.7156 17.8704Z" fill="white"/>
</g>
<defs>
<filter id="filter0_d_24_237" x="0" y="0" width="42.0645" height="45.4236" filterUnits="userSpaceOnUse" color-interpolation-filters="sRGB">
<feFlood flood-opacity="0" result="BackgroundImageFix"/>
<feColorMatrix in="SourceAlpha" type="matrix" values="0 0 0 0 0 0 0 0 0 0 0 0 0 0 0 0 0 0 127 0" result="hardAlpha"/>
<feOffset dy="4"/>
<feGaussianBlur stdDeviation="2"/>
<feComposite in2="hardAlpha" operator="out"/>
<feColorMatrix type="matrix" values="0 0 0 0 0 0 0 0 0 0 0 0 0 0 0 0 0 0 0.32 0"/>
<feBlend mode="normal" in2="BackgroundImageFix" result="effect1_dropShadow_24_237"/>
<feBlend mode="normal" in="SourceGraphic" in2="effect1_dropShadow_24_237" result="shape"/>
</filter>
</defs>
</svg>
